{"glyphs":{"0":{"ha":919,"x_min":50,"x_max":911,"o":"m 64 504 q 231 867 104 732 q 568 1001 357 1001 q 827 908 743 1001 q 911 649 911 814 q 897 504 911 578 q 731 141 857 276 q 393 6 604 6 q 134 99 218 6 q 50 360 50 193 q 64 504 50 418 m 593 504 q 604 604 604 560 q 517 710 604 710 q 416 656 447 710 q 367 504 385 603 q 356 404 356 446 q 376 325 356 353 q 444 297 396 297 q 544 351 513 297 q 593 504 575 406 z "},"1":{"ha":554,"x_min":67,"x_max":589,"o":"m 67 694 l 118 983 l 589 983 l 415 0 l 92 0 l 214 694 l 67 694 z "},"2":{"ha":786,"x_min":-28,"x_max":810,"o":"m 13 246 q 344 490 219 383 q 485 682 469 597 q 488 707 488 701 q 449 751 488 751 q 405 727 421 751 q 376 636 389 703 l 78 636 q 240 918 118 826 q 518 1010 361 1010 q 740 944 671 1010 q 810 774 810 878 q 804 713 810 754 q 673 464 781 581 q 417 263 565 347 l 735 263 l 690 14 l -28 14 l 13 246 z "},"3":{"ha":854,"x_min":36,"x_max":833,"o":"m 117 697 q 258 950 150 863 q 535 1038 365 1038 q 756 974 679 1038 q 833 806 833 910 q 829 754 833 782 q 757 601 813 657 q 640 528 701 546 l 640 522 q 769 342 769 471 q 765 290 769 318 q 635 72 742 154 q 369 -10 528 -10 q 124 56 211 -10 q 36 264 36 122 q 43 346 36 297 l 343 346 q 338 303 338 324 q 400 244 338 244 q 451 269 429 244 q 472 331 472 293 q 449 376 472 361 q 372 392 425 392 l 321 392 l 365 640 l 415 640 q 522 715 508 635 q 524 736 524 722 q 483 783 524 783 q 438 760 453 783 q 417 697 424 736 l 117 697 z "},"4":{"ha":978,"x_min":31,"x_max":925,"o":"m 31 153 l 75 410 l 593 1000 l 925 1000 l 824 419 l 924 419 l 876 153 l 776 153 l 749 0 l 438 0 l 465 153 l 31 153 m 578 649 l 388 419 l 538 419 l 578 649 z "},"5":{"ha":917,"x_min":111,"x_max":921,"o":"m 874 744 l 471 744 l 450 628 q 622 679 517 679 q 801 610 742 679 q 861 431 861 542 q 854 351 861 396 q 714 92 824 185 q 440 0 604 0 q 197 70 283 0 q 111 257 111 140 q 118 325 111 286 l 418 325 l 417 313 q 429 278 417 293 q 472 264 442 264 q 528 289 507 264 q 557 357 549 314 q 560 381 560 374 q 544 424 560 410 q 499 439 528 439 q 452 425 469 439 q 431 393 435 411 l 131 393 l 240 1015 l 921 1015 l 874 744 z "},"6":{"ha":879,"x_min":72,"x_max":853,"o":"m 563 707 q 549 768 563 749 q 503 788 536 788 q 423 734 450 788 q 376 568 396 681 q 460 629 410 607 q 571 651 511 651 q 750 591 685 651 q 815 415 815 531 q 807 332 815 376 q 667 83 779 175 q 389 -10 554 -10 q 145 74 218 -10 q 72 310 72 157 q 92 500 72 394 q 184 806 125 689 q 337 978 243 922 q 565 1033 431 1033 q 783 956 714 1033 q 853 760 853 879 q 850 707 853 725 l 563 707 m 453 415 q 383 389 411 415 q 356 315 356 363 q 374 269 356 285 q 425 254 392 254 q 489 274 464 254 q 521 336 514 294 q 522 353 522 342 q 503 399 522 383 q 453 415 485 415 z "},"7":{"ha":711,"x_min":-28,"x_max":804,"o":"m 764 769 l 289 0 l -28 0 l 443 732 l 88 732 l 135 996 l 804 996 l 764 769 z "},"8":{"ha":913,"x_min":47,"x_max":893,"o":"m 236 558 q 151 717 151 613 q 156 768 151 742 q 220 902 168 838 q 363 1008 272 967 q 572 1050 453 1050 q 753 1016 681 1050 q 859 927 825 982 q 893 810 893 872 q 889 768 893 789 q 733 558 864 626 q 836 371 836 492 q 831 313 836 340 q 746 133 813 207 q 584 22 679 60 q 383 -15 489 -15 q 142 54 238 -15 q 47 250 47 124 q 53 313 47 283 q 236 558 82 476 m 528 800 q 478 777 500 800 q 449 715 456 754 q 446 692 446 699 q 460 648 446 663 q 499 633 475 633 q 548 654 526 633 q 576 715 569 675 q 579 739 579 732 q 565 784 579 768 q 528 800 551 800 m 461 426 q 383 393 414 426 q 353 311 353 360 q 372 257 353 278 q 428 236 390 236 q 506 269 476 236 q 536 351 536 303 q 517 406 536 386 q 461 426 497 426 z "},"9":{"ha":829,"x_min":49,"x_max":832,"o":"m 339 317 q 355 256 340 275 q 403 236 369 236 q 479 288 454 236 q 525 456 504 340 q 442 394 493 417 q 332 372 392 372 q 152 433 218 372 q 86 610 86 493 q 94 692 86 649 q 235 941 122 849 q 513 1033 347 1033 q 758 952 685 1033 q 832 721 832 871 q 814 538 832 643 q 660 128 765 265 q 360 -10 554 -10 q 185 29 256 -10 q 82 133 115 68 q 49 276 49 199 q 51 317 49 289 l 339 317 m 450 608 q 519 635 492 608 q 547 708 547 661 q 529 754 547 739 q 478 769 511 769 q 414 749 439 769 q 382 688 389 729 q 381 669 381 681 q 399 624 381 640 q 450 608 418 608 z "},"\u0000":{"ha":0,"x_min":0,"x_max":0,"o":""},"\r":{"ha":236,"x_min":0,"x_max":0,"o":""}," ":{"ha":236,"x_min":0,"x_max":0,"o":""},"अ":{"ha":1174,"x_min":42,"x_max":1279,"o":"m 1279 1028 l 1239 793 l 1132 793 l 992 0 l 710 0 l 764 308 l 661 308 q 539 147 626 206 q 333 88 451 88 q 119 153 197 88 q 42 329 42 218 q 47 388 42 360 l 311 388 q 310 375 310 383 q 322 342 310 356 q 358 329 335 329 q 406 350 388 329 q 425 401 425 371 q 406 443 425 428 q 349 458 386 458 l 281 458 l 321 685 l 389 685 q 455 703 428 685 q 482 758 482 722 q 471 790 482 778 q 440 801 460 801 q 400 786 417 801 q 379 749 383 771 l 119 749 q 184 900 135 833 q 310 1003 233 967 q 482 1040 388 1040 q 672 985 604 1040 q 740 835 740 931 q 736 783 740 811 q 680 659 724 711 q 569 581 636 607 l 568 575 q 629 540 604 563 l 806 540 l 890 1028 l 1279 1028 z "},"आ":{"ha":1638,"x_min":42,"x_max":1743,"o":"m 1701 793 l 1596 793 l 1457 0 l 1174 0 l 1313 793 l 1132 793 l 992 0 l 710 0 l 764 308 l 661 308 q 539 147 626 206 q 333 88 451 88 q 119 153 197 88 q 42 329 42 218 q 47 388 42 360 l 311 388 q 310 375 310 383 q 322 342 310 356 q 358 329 335 329 q 406 350 388 329 q 425 401 425 371 q 406 443 425 428 q 349 458 386 458 l 281 458 l 321 685 l 389 685 q 455 703 428 685 q 482 758 482 722 q 471 790 482 778 q 440 801 460 801 q 400 786 417 801 q 379 749 383 771 l 119 749 q 184 900 135 833 q 310 1003 233 967 q 482 1040 388 1040 q 672 985 604 1040 q 740 835 740 931 q 736 783 740 811 q 680 659 724 711 q 569 581 636 607 l 568 575 q 629 540 604 563 l 806 540 l 890 1028 l 1743 1028 l 1701 793 z "},"इ":{"ha":814,"x_min":-1,"x_max":919,"o":"m 715 793 l 706 733 l 669 533 l 404 533 q 372 525 385 533 q 357 501 360 517 q 394 471 353 471 l 454 471 q 631 419 560 471 q 701 260 701 367 q 696 200 701 228 q 603 33 676 94 q 425 -29 531 -29 q 347 -19 382 -29 q 289 7 311 -8 l 267 -124 l -1 -124 l 61 235 l 315 235 q 326 192 311 206 q 368 178 340 178 q 415 193 397 178 q 432 233 432 208 q 364 274 432 274 q 269 276 307 274 q 132 329 192 281 q 72 467 72 378 q 76 514 72 489 q 175 679 96 625 q 369 733 254 733 l 432 733 l 442 793 l 43 793 l 85 1028 l 919 1028 l 878 793 l 715 793 z "},"ई":{"ha":801,"x_min":-1,"x_max":1118,"o":"m 858 1114 q 864 1154 864 1135 q 829 1197 864 1197 q 787 1177 801 1197 q 765 1113 772 1157 l 750 1028 l 922 1028 l 881 793 l 718 793 l 697 681 l 696 681 l 669 533 l 404 533 q 370 524 383 533 q 357 496 357 514 q 394 471 357 471 l 454 471 q 631 419 560 471 q 701 260 701 367 q 696 200 701 228 q 603 33 676 94 q 425 -29 531 -29 q 347 -19 382 -29 q 289 7 311 -8 l 267 -124 l -1 -124 l 61 235 l 315 235 q 326 192 311 206 q 368 178 340 178 q 413 193 396 178 q 431 232 431 208 q 364 274 431 274 q 269 276 307 274 q 131 329 190 281 q 72 468 72 378 q 76 514 72 489 q 175 679 96 625 q 369 733 254 733 l 433 733 l 444 793 l 46 793 l 88 1028 l 490 1028 l 504 1108 q 614 1336 529 1242 q 865 1431 699 1431 q 1053 1373 989 1431 q 1118 1211 1118 1315 q 1106 1114 1118 1167 l 858 1114 z "},"उ":{"ha":776,"x_min":8,"x_max":882,"o":"m 840 792 l 749 792 l 740 747 q 687 613 726 665 q 594 546 647 560 l 593 542 q 670 475 642 522 q 699 363 699 428 q 694 310 699 338 q 569 90 671 172 q 315 7 468 7 q 91 75 174 7 q 8 267 8 143 q 15 340 8 296 l 285 340 q 282 319 282 326 q 299 275 282 292 q 346 258 315 258 q 408 283 383 258 q 433 350 433 308 q 416 397 433 379 q 363 414 399 414 l 267 414 l 310 660 l 364 660 q 431 683 401 660 q 471 760 461 706 l 476 792 l 33 792 l 75 1028 l 882 1028 l 840 792 z "},"ऊ":{"ha":1171,"x_min":8,"x_max":1276,"o":"m 740 747 q 687 613 726 665 q 594 546 647 560 l 593 542 l 815 542 q 1026 488 951 542 q 1100 329 1100 435 q 1094 269 1100 297 q 994 90 1075 161 q 788 19 914 19 q 697 29 742 19 l 735 240 l 775 240 q 813 253 799 240 q 826 288 826 267 q 815 310 826 301 q 781 319 803 319 l 692 319 l 688 293 q 622 147 672 211 q 493 44 572 82 q 315 7 414 7 q 91 75 174 7 q 8 267 8 143 q 15 340 8 296 l 285 340 q 282 319 282 326 q 299 275 282 292 q 346 258 315 258 q 408 283 383 258 q 433 350 433 308 q 416 397 433 379 q 363 414 399 414 l 267 414 l 310 660 l 364 660 q 431 683 401 660 q 471 760 461 706 l 476 793 l 33 793 l 75 1028 l 1276 1028 l 1235 793 l 749 793 l 740 747 z "},"ऋ":{"ha":1488,"x_min":7,"x_max":1593,"o":"m 953 793 l 925 638 l 1097 638 q 1149 651 1128 638 q 1176 692 1171 664 l 1182 726 l 1424 726 l 1339 244 l 1296 244 q 1221 222 1247 244 q 1194 165 1194 200 q 1220 124 1194 138 q 1288 111 1246 111 q 1368 121 1325 111 l 1329 -103 q 1210 -112 1265 -112 q 996 -56 1075 -112 q 917 103 917 1 q 921 150 917 125 q 989 295 936 236 q 1122 385 1042 354 l 1131 431 q 1015 415 1078 415 l 886 415 l 813 0 l 553 0 l 581 153 l 369 0 l 7 0 l 8 11 l 615 410 q 575 455 603 439 q 507 471 547 471 q 387 428 433 471 q 328 315 340 385 l 44 315 q 122 519 65 431 q 265 658 178 608 q 463 708 351 708 q 664 631 597 708 l 693 793 l 35 793 l 75 1028 l 1593 1028 l 1553 793 l 953 793 z "},"ॠ":{"ha":1492,"x_min":7,"x_max":1597,"o":"m 951 793 l 924 638 l 1097 638 q 1149 651 1128 638 q 1175 690 1169 664 l 1182 726 l 1424 726 l 1338 238 l 1292 238 q 1231 228 1254 238 q 1204 192 1208 218 q 1275 147 1196 147 l 1364 147 l 1328 -61 l 1256 -61 q 1183 -71 1210 -61 q 1150 -111 1156 -81 q 1170 -151 1144 -142 q 1239 -161 1196 -161 q 1388 -140 1310 -161 l 1351 -347 q 1260 -370 1314 -362 q 1157 -378 1207 -378 q 953 -331 1036 -378 q 869 -185 869 -283 q 874 -142 869 -165 q 934 -28 885 -76 q 1051 36 983 21 l 1053 42 q 933 172 933 69 q 936 207 933 194 q 1000 320 949 278 q 1121 378 1051 363 l 1131 431 q 1014 415 1075 415 l 885 415 l 813 0 l 553 0 l 579 153 l 369 0 l 7 0 l 8 11 l 614 411 q 574 455 601 439 q 507 471 546 471 q 387 428 433 471 q 328 315 340 385 l 44 315 q 122 519 65 431 q 265 658 178 608 q 463 708 351 708 q 664 632 596 708 l 692 793 l 33 793 l 75 1028 l 1597 1028 l 1556 793 l 951 793 z "},"ऌ":{"ha":1263,"x_min":14,"x_max":1357,"o":"m 1071 793 l 1053 689 q 1143 601 1110 658 q 1176 457 1176 543 q 1169 376 1176 425 q 1122 238 1158 304 l 1114 238 q 1013 219 1043 238 q 976 167 982 201 q 999 122 971 138 q 1076 106 1028 106 q 1158 114 1124 106 l 1118 -110 q 999 -118 1054 -118 q 781 -61 860 -118 q 701 101 701 -4 q 706 153 701 126 q 768 281 718 225 q 886 367 818 338 l 888 378 q 890 404 890 397 q 873 454 890 436 q 824 472 856 472 q 752 441 778 472 q 718 365 726 410 l 708 315 l 475 315 l 485 365 q 488 394 488 385 q 470 450 488 428 q 415 472 453 472 q 336 436 365 472 q 307 339 307 400 q 392 261 307 261 q 429 263 414 261 l 386 18 q 336 17 363 17 q 97 90 179 17 q 14 293 14 163 q 22 376 14 333 q 103 570 43 493 q 247 684 164 647 q 417 721 329 721 q 633 589 588 721 l 639 589 q 781 697 692 664 l 797 793 l 22 793 l 64 1028 l 1357 1028 l 1315 793 l 1071 793 z "},"ॡ":{"ha":1279,"x_min":14,"x_max":1372,"o":"m 1069 793 l 1051 689 q 1144 603 1110 660 q 1178 463 1178 546 q 1169 376 1178 422 q 1122 238 1156 306 l 1088 238 q 1026 228 1050 238 q 999 192 1003 218 q 1071 147 990 147 l 1160 147 l 1124 -61 l 1051 -61 q 978 -71 1006 -61 q 944 -111 950 -81 q 965 -151 939 -142 q 1035 -161 992 -161 q 1183 -140 1106 -161 l 1147 -347 q 1056 -370 1110 -362 q 953 -378 1003 -378 q 749 -331 832 -378 q 665 -185 665 -283 q 669 -142 665 -165 q 730 -28 681 -76 q 847 36 779 21 l 849 42 q 729 172 729 69 q 732 207 729 194 q 785 310 743 269 q 886 369 826 350 l 888 378 q 890 404 890 397 q 873 454 890 436 q 824 472 856 472 q 751 440 778 472 q 717 365 724 408 l 708 315 l 475 315 l 483 365 q 486 394 486 385 q 469 450 486 428 q 415 472 453 472 q 335 436 365 472 q 306 339 306 400 q 392 261 306 261 q 428 263 414 261 l 385 18 q 336 17 363 17 q 97 90 179 17 q 14 293 14 163 q 22 376 14 333 q 103 570 43 493 q 246 684 164 647 q 415 721 328 721 q 558 686 504 721 q 633 589 611 651 l 639 589 q 779 697 690 664 l 796 793 l 21 793 l 63 1028 l 1372 1028 l 1331 793 l 1069 793 z "},"ए":{"ha":906,"x_min":32,"x_max":1011,"o":"m 969 793 l 871 793 l 857 715 q 754 487 831 567 q 536 407 678 407 q 449 414 500 407 l 493 667 q 517 664 510 664 q 562 679 544 664 q 583 722 579 694 l 596 793 l 426 793 l 350 358 q 347 335 347 342 q 365 283 347 300 q 411 267 383 267 q 467 285 443 267 q 497 338 492 304 l 774 338 q 647 108 749 189 q 390 26 544 26 q 149 101 235 26 q 64 301 64 175 q 69 369 64 338 l 143 793 l 32 793 l 74 1028 l 1011 1028 l 969 793 z "},"ऐ":{"ha":907,"x_min":33,"x_max":1013,"o":"m 971 793 l 872 793 l 858 715 q 756 487 832 567 q 538 407 679 407 q 450 414 501 407 l 494 667 q 518 664 511 664 q 563 679 546 664 q 585 722 581 694 l 597 793 l 428 793 l 351 358 q 349 335 349 342 q 367 283 349 300 q 413 267 385 267 q 469 285 444 267 q 499 338 493 304 l 775 338 q 648 108 750 189 q 392 26 546 26 q 151 101 236 26 q 65 301 65 175 q 71 369 65 338 l 144 793 l 33 793 l 75 1028 l 633 1028 q 577 1126 599 1097 q 525 1167 556 1156 q 436 1179 494 1179 l 354 1179 l 394 1406 l 472 1406 q 665 1378 597 1404 q 785 1274 733 1351 q 897 1028 836 1196 l 1013 1028 l 971 793 z "},"ओ":{"ha":1638,"x_min":42,"x_max":1743,"o":"m 1743 1028 l 1701 793 l 1596 793 l 1457 0 l 1174 0 l 1313 793 l 1132 793 l 992 0 l 710 0 l 764 308 l 661 308 q 539 147 626 206 q 333 88 451 88 q 119 153 197 88 q 42 329 42 218 q 47 388 42 360 l 311 388 q 310 375 310 383 q 322 342 310 356 q 358 329 335 329 q 406 350 388 329 q 425 401 425 371 q 406 443 425 428 q 349 458 386 458 l 281 458 l 321 685 l 389 685 q 455 703 428 685 q 482 758 482 722 q 471 790 482 778 q 440 801 460 801 q 400 786 417 801 q 379 749 383 771 l 119 749 q 184 900 135 833 q 310 1003 233 967 q 482 1040 388 1040 q 672 985 604 1040 q 740 835 740 931 q 736 783 740 811 q 680 659 724 711 q 569 581 636 607 l 568 575 q 629 540 604 563 l 806 540 l 890 1028 l 1360 1028 q 1303 1126 1325 1097 q 1251 1167 1282 1156 q 1163 1179 1221 1179 l 1081 1179 l 1119 1406 l 1197 1406 q 1390 1378 1322 1404 q 1510 1274 1458 1353 q 1624 1028 1563 1196 l 1743 1028 z "},"औ":{"ha":1638,"x_min":42,"x_max":1743,"o":"m 1743 1028 l 1701 793 l 1596 793 l 1457 0 l 1174 0 l 1313 793 l 1132 793 l 992 0 l 710 0 l 764 308 l 661 308 q 539 147 626 206 q 333 88 451 88 q 119 153 197 88 q 42 329 42 218 q 47 388 42 360 l 311 388 q 310 375 310 383 q 322 342 310 356 q 358 329 335 329 q 406 350 388 329 q 425 401 425 371 q 406 443 425 428 q 349 458 386 458 l 281 458 l 321 685 l 389 685 q 455 703 428 685 q 482 758 482 722 q 471 790 482 778 q 440 801 460 801 q 400 786 417 801 q 379 749 383 771 l 119 749 q 184 900 135 833 q 310 1003 233 967 q 482 1040 388 1040 q 672 985 604 1040 q 740 835 740 931 q 736 783 740 811 q 680 659 724 711 q 569 581 636 607 l 568 575 q 629 540 604 563 l 806 540 l 890 1028 l 1369 1028 l 1325 1053 q 1263 1086 1282 1078 q 1217 1097 1243 1094 q 1121 1099 1192 1099 l 1036 1099 l 1067 1272 l 1144 1272 q 1248 1269 1215 1272 q 1308 1256 1281 1267 q 1367 1218 1335 1244 q 1309 1302 1339 1276 q 1250 1334 1279 1328 q 1169 1340 1221 1340 l 1079 1340 l 1110 1515 l 1193 1515 q 1377 1489 1319 1515 q 1483 1368 1435 1463 q 1617 1028 1532 1274 l 1743 1028 z "},"ऍ":{"ha":907,"x_min":-6,"x_max":974,"o":"m 522 1122 q 285 1187 363 1122 q 208 1368 208 1251 q 215 1446 208 1400 l 457 1446 q 454 1415 454 1424 q 558 1329 454 1329 q 656 1360 621 1329 q 701 1446 692 1392 l 943 1446 q 811 1208 917 1293 q 522 1122 706 1122 m 932 793 l 833 793 l 819 715 q 717 487 793 567 q 499 407 640 407 q 411 414 463 407 l 456 667 q 479 664 472 664 q 524 679 507 664 q 546 722 542 694 l 558 793 l 389 793 l 313 358 q 310 335 310 342 q 328 283 310 300 q 374 267 346 267 q 430 285 406 267 q 460 338 454 304 l 736 338 q 609 108 711 189 q 353 26 507 26 q 112 101 197 26 q 26 301 26 175 q 32 369 26 338 l 106 793 l -6 793 l 36 1028 l 974 1028 l 932 793 z "},"ॲ":{"ha":1174,"x_min":42,"x_max":1481,"o":"m 1279 1028 l 1239 793 l 1132 793 l 992 0 l 710 0 l 764 308 l 661 308 q 539 147 626 206 q 333 88 451 88 q 119 153 197 88 q 42 329 42 218 q 47 388 42 360 l 311 388 q 310 375 310 383 q 322 342 310 356 q 358 329 335 329 q 406 350 388 329 q 425 401 425 371 q 406 443 425 428 q 349 458 386 458 l 281 458 l 321 685 l 389 685 q 455 703 428 685 q 482 758 482 722 q 471 790 482 778 q 440 801 460 801 q 400 786 417 801 q 379 749 383 771 l 119 749 q 184 900 135 833 q 310 1003 233 967 q 482 1040 388 1040 q 672 985 604 1040 q 740 835 740 931 q 736 783 740 811 q 680 659 724 711 q 569 581 636 607 l 568 575 q 629 540 604 563 l 806 540 l 890 1028 l 1279 1028 m 1481 1454 q 1353 1215 1454 1300 q 1071 1131 1253 1131 q 828 1197 910 1131 q 746 1381 746 1263 q 753 1454 746 1410 l 994 1454 q 992 1424 992 1432 q 1096 1338 992 1338 q 1194 1369 1158 1338 q 1239 1454 1229 1400 l 1481 1454 z "},"ऑ":{"ha":1638,"x_min":42,"x_max":1743,"o":"m 1701 793 l 1596 793 l 1457 0 l 1174 0 l 1313 793 l 1132 793 l 992 0 l 710 0 l 764 308 l 661 308 q 539 147 626 206 q 333 88 451 88 q 119 153 197 88 q 42 329 42 218 q 47 388 42 360 l 311 388 q 310 375 310 383 q 322 342 310 356 q 358 329 335 329 q 406 350 388 329 q 425 401 425 371 q 406 443 425 428 q 349 458 386 458 l 281 458 l 321 685 l 389 685 q 455 703 428 685 q 482 758 482 722 q 471 790 482 778 q 440 801 460 801 q 400 786 417 801 q 379 749 383 771 l 119 749 q 184 900 135 833 q 310 1003 233 967 q 482 1040 388 1040 q 672 985 604 1040 q 740 835 740 931 q 736 783 740 811 q 680 659 724 711 q 569 581 636 607 l 568 575 q 629 540 604 563 l 806 540 l 890 1028 l 1743 1028 l 1701 793 m 1707 1446 q 1580 1207 1681 1292 q 1297 1122 1479 1122 q 1054 1188 1136 1122 q 972 1372 972 1254 q 979 1446 972 1401 l 1221 1446 q 1218 1415 1218 1424 q 1322 1329 1218 1329 q 1420 1360 1385 1329 q 1465 1446 1456 1392 l 1707 1446 z "},"ा":{"ha":465,"x_min":1,"x_max":571,"o":"m 1 0 l 140 793 l 33 793 l 75 1028 l 571 1028 l 529 793 l 424 793 l 285 0 l 1 0 z "},"ि":{"ha":465,"x_min":0,"x_max":1400,"o":"m 867 1463 q 1160 1411 1040 1463 q 1340 1270 1281 1360 q 1400 1068 1400 1181 q 1393 992 1400 1036 l 1389 967 l 1106 967 l 1108 986 q 1111 1022 1111 1011 q 1033 1178 1111 1122 q 826 1233 956 1233 q 593 1178 693 1233 q 464 1028 493 1124 l 571 1028 l 529 793 l 424 793 l 283 0 l 0 0 l 140 793 l 33 793 l 75 1028 l 183 1028 q 305 1249 215 1151 q 538 1405 394 1347 q 867 1463 681 1463 z "},"ी":{"ha":465,"x_min":-294,"x_max":572,"o":"m 572 1028 l 531 793 l 425 793 l 285 0 l 1 0 l 142 793 l 35 793 l 76 1028 l 192 1028 l 200 1076 q 207 1136 207 1118 q 129 1225 207 1225 q 38 1181 65 1225 q 0 1076 11 1138 l -19 967 l -294 967 l -278 1063 q -137 1356 -246 1250 q 171 1463 -28 1463 q 483 1179 483 1463 q 472 1063 483 1126 l 467 1028 l 572 1028 z "},"ु":{"ha":0,"x_min":-815,"x_max":-103,"o":"m -106 -221 q -221 -430 -121 -353 q -471 -507 -321 -507 q -715 -442 -614 -507 q -815 -239 -815 -378 q -808 -164 -815 -197 l -558 -164 q -562 -199 -562 -183 q -533 -266 -562 -244 q -453 -287 -504 -287 q -374 -265 -403 -287 q -346 -204 -346 -243 q -367 -162 -346 -178 q -431 -146 -389 -146 l -490 -146 l -451 72 l -392 72 q -179 8 -256 72 q -103 -174 -103 -57 q -106 -221 -103 -204 z "},"ू":{"ha":0,"x_min":-699,"x_max":1,"o":"m -437 -481 q -565 -456 -506 -481 q -662 -383 -625 -432 q -699 -261 -699 -333 q -693 -207 -699 -233 q -575 -7 -671 -76 q -337 63 -479 63 q -80 -35 -161 63 q 1 -281 1 -132 q -7 -375 1 -328 q -15 -415 -11 -397 q -21 -446 -18 -432 q -28 -474 -26 -467 l -257 -474 l -237 -367 q -231 -293 -231 -322 q -262 -185 -231 -225 q -362 -146 -294 -146 q -431 -162 -400 -146 q -469 -215 -462 -179 q -471 -228 -471 -219 q -449 -267 -471 -254 q -397 -281 -428 -281 l -365 -281 l -400 -481 l -437 -481 z "},"ृ":{"ha":0,"x_min":-651,"x_max":-150,"o":"m -189 -464 q -364 -489 -274 -489 q -499 -462 -433 -489 q -608 -382 -565 -436 q -651 -247 -651 -328 q -646 -192 -651 -218 q -526 -1 -624 -68 q -271 67 -428 67 q -169 64 -200 67 l -203 -125 l -279 -125 q -372 -187 -360 -125 q -374 -203 -374 -193 q -346 -249 -374 -232 q -278 -265 -318 -265 q -150 -246 -224 -265 l -189 -464 z "},"ॄ":{"ha":0,"x_min":-636,"x_max":-117,"o":"m -154 -669 q -245 -691 -190 -683 q -349 -699 -300 -699 q -553 -652 -471 -699 q -636 -508 -636 -606 q -632 -464 -636 -487 q -571 -349 -619 -397 q -453 -286 -522 -301 l -453 -281 q -540 -236 -507 -268 q -572 -150 -572 -204 q -569 -115 -572 -128 q -471 23 -553 -21 q -300 67 -389 67 l -169 67 l -196 -83 l -212 -83 q -273 -93 -250 -83 q -300 -129 -296 -103 q -229 -175 -308 -175 l -140 -175 l -176 -382 l -247 -382 q -322 -392 -294 -382 q -356 -433 -350 -403 q -335 -472 -361 -462 q -265 -482 -308 -482 q -117 -461 -194 -482 l -154 -669 z "},"ॢ":{"ha":0,"x_min":-821,"x_max":75,"o":"m 26 -401 q -53 -415 -29 -401 q -82 -456 -78 -429 q -65 -490 -86 -478 q -8 -503 -44 -503 q 56 -496 28 -503 l 25 -668 q -68 -675 -28 -675 q -235 -631 -174 -675 q -296 -506 -296 -586 q -255 -381 -296 -436 q -154 -301 -214 -326 l -153 -296 q -151 -275 -151 -289 q -164 -236 -151 -250 q -200 -222 -176 -222 q -255 -247 -235 -222 q -281 -304 -275 -271 l -287 -342 l -468 -342 l -461 -304 q -458 -281 -458 -287 q -471 -238 -458 -254 q -511 -222 -483 -222 q -574 -249 -550 -222 q -597 -322 -597 -276 q -531 -383 -597 -383 q -503 -381 -514 -383 l -537 -571 l -574 -571 q -758 -515 -694 -571 q -821 -358 -821 -458 q -815 -296 -821 -325 q -753 -147 -800 -207 q -643 -60 -707 -87 q -512 -32 -579 -32 q -347 -132 -382 -32 l -343 -132 q -256 -59 -310 -86 q -133 -32 -201 -32 q 15 -83 -46 -32 q 75 -233 75 -133 q 69 -296 75 -267 q 35 -401 60 -349 l 26 -401 z "},"ॣ":{"ha":0,"x_min":-819,"x_max":76,"o":"m -108 -669 q -92 -699 -112 -692 q -37 -706 -72 -706 q 75 -690 14 -706 l 46 -850 q -23 -865 18 -860 q -103 -871 -64 -871 q -258 -836 -196 -871 q -321 -726 -321 -801 q -282 -616 -321 -662 q -182 -556 -243 -569 l -182 -553 q -247 -517 -222 -543 q -272 -450 -272 -492 q -238 -352 -272 -389 q -151 -297 -204 -315 l -151 -296 q -150 -276 -150 -289 q -163 -237 -150 -251 q -200 -222 -176 -222 q -253 -246 -235 -222 q -279 -304 -272 -269 l -286 -342 l -467 -342 l -460 -304 q -457 -282 -457 -290 q -470 -240 -457 -257 q -511 -222 -483 -222 q -574 -249 -550 -222 q -597 -322 -597 -276 q -529 -383 -597 -383 q -503 -381 -512 -383 l -536 -571 l -572 -571 q -756 -515 -692 -571 q -819 -360 -819 -458 q -814 -296 -819 -325 q -703 -98 -789 -164 q -512 -32 -618 -32 q -346 -132 -383 -32 l -342 -132 q -256 -59 -310 -86 q -133 -32 -201 -32 q 16 -83 -44 -32 q 76 -233 76 -133 q 71 -296 76 -267 q 35 -401 63 -344 l 3 -401 q -65 -440 -65 -401 q -7 -469 -65 -469 l 58 -469 l 29 -629 l -25 -629 q -83 -637 -62 -629 q -108 -669 -104 -644 z "},"े":{"ha":0,"x_min":-550,"x_max":-4,"o":"m -268 1021 q -325 1124 -303 1093 q -378 1167 -347 1156 q -468 1179 -410 1179 l -550 1179 l -511 1406 l -433 1406 q -239 1378 -307 1404 q -119 1272 -171 1351 q -4 1021 -67 1193 l -268 1021 z "},"ै":{"ha":0,"x_min":-596,"x_max":-14,"o":"m -439 1515 q -255 1489 -312 1515 q -149 1367 -197 1463 q -14 1024 -100 1271 l -256 1024 q -307 1054 -260 1026 q -369 1087 -350 1079 q -415 1097 -389 1094 q -511 1099 -440 1099 l -596 1099 l -565 1272 l -487 1272 q -384 1269 -417 1272 q -324 1256 -351 1267 q -265 1218 -297 1244 q -323 1302 -293 1276 q -382 1334 -353 1328 q -462 1340 -411 1340 l -553 1340 l -522 1515 l -439 1515 z "},"ो":{"ha":467,"x_min":-83,"x_max":572,"o":"m 572 1028 l 531 793 l 425 793 l 286 0 l 3 0 l 142 793 l 35 793 l 76 1028 l 196 1028 q 140 1126 163 1096 q 88 1167 118 1156 q -1 1179 57 1179 l -83 1179 l -43 1406 l 35 1406 q 228 1378 160 1404 q 347 1274 296 1353 q 460 1028 399 1196 l 572 1028 z "},"ौ":{"ha":465,"x_min":-174,"x_max":528,"o":"m 528 1028 l 486 793 l 381 793 l 242 0 l -42 0 l 97 793 l -10 793 l 32 1028 l 160 1028 l 115 1053 q 53 1086 72 1078 q 8 1097 33 1094 q -89 1099 -18 1099 l -174 1099 l -143 1272 l -65 1272 q 38 1269 6 1272 q 98 1256 71 1267 q 157 1218 125 1244 q 99 1302 129 1276 q 40 1334 69 1328 q -40 1340 11 1340 l -131 1340 l -100 1515 l -17 1515 q 167 1489 110 1515 q 274 1368 225 1463 q 407 1028 322 1274 l 528 1028 z "},"ॅ":{"ha":0,"x_min":-440,"x_max":294,"o":"m 294 1444 q 167 1206 268 1290 q -115 1121 67 1121 q -358 1187 -276 1121 q -440 1371 -440 1253 q -433 1444 -440 1400 l -192 1444 q -194 1414 -194 1422 q -90 1328 -194 1328 q 8 1359 -28 1328 q 53 1444 43 1390 l 294 1444 z "},"ॉ":{"ha":468,"x_min":1,"x_max":761,"o":"m 761 1444 q 634 1206 735 1290 q 351 1121 533 1121 q 108 1187 190 1121 q 26 1371 26 1253 q 33 1444 26 1400 l 275 1444 q 272 1414 272 1422 q 376 1328 272 1328 q 474 1359 439 1328 q 519 1444 510 1390 l 761 1444 m 1 0 l 140 793 l 33 793 l 75 1028 l 571 1028 l 529 793 l 424 793 l 285 0 l 1 0 z "},"क":{"ha":1314,"x_min":31,"x_max":1419,"o":"m 854 793 l 828 644 q 1004 713 899 713 q 1177 640 1115 713 q 1239 456 1239 568 q 1232 379 1239 413 q 1113 156 1204 233 q 894 78 1022 78 q 797 90 843 78 l 836 310 q 857 307 844 307 q 922 333 894 307 q 949 403 949 360 q 932 452 949 432 q 881 472 915 472 q 816 446 842 472 q 781 369 790 419 l 715 0 l 443 0 l 467 135 q 272 60 394 60 q 147 93 201 60 q 61 186 92 126 q 31 322 31 246 q 38 393 31 351 q 154 626 63 539 q 385 713 246 713 q 556 642 504 713 l 582 793 l 33 793 l 75 1028 l 1419 1028 l 1378 793 l 854 793 m 401 297 q 473 321 443 297 q 510 379 503 344 l 511 386 l 513 400 q 491 453 513 433 q 433 474 469 474 q 354 443 386 474 q 322 368 322 413 q 344 317 322 338 q 401 297 367 297 z "},"ख":{"ha":1358,"x_min":35,"x_max":1464,"o":"m 1464 1028 l 1422 793 l 1317 793 l 1178 0 l 896 0 l 926 174 q 783 132 869 132 q 743 136 763 132 q 591 28 678 68 q 403 -12 504 -12 q 141 70 233 -12 q 49 307 49 153 q 58 413 49 360 l 85 564 l 111 564 q 258 604 208 564 q 321 726 307 644 l 332 793 l 35 793 l 76 1028 l 1464 1028 m 453 231 q 589 286 544 231 q 578 379 578 333 q 583 449 578 417 q 683 635 603 564 q 871 707 764 707 q 1011 661 965 707 l 1035 793 l 617 793 l 599 686 q 506 476 576 557 q 332 372 435 394 q 329 344 329 353 q 361 262 329 293 q 453 231 393 231 m 822 406 q 840 361 822 376 q 885 346 857 346 q 940 366 917 346 q 969 421 964 386 q 971 436 971 426 q 956 478 971 461 q 911 494 940 494 q 848 471 874 494 q 822 406 822 447 z "},"ग":{"ha":1193,"x_min":31,"x_max":1299,"o":"m 1299 1028 l 1257 793 l 1150 793 l 1011 0 l 728 0 l 867 793 l 738 793 l 690 518 q 573 278 665 368 q 321 188 481 188 q 110 250 189 188 q 31 432 31 313 q 38 504 31 463 q 47 550 43 535 l 321 550 l 313 506 q 310 472 310 493 q 346 428 310 428 q 404 506 392 428 l 454 793 l 33 793 l 75 1028 l 1299 1028 z "},"घ":{"ha":960,"x_min":33,"x_max":1065,"o":"m 1024 793 l 919 793 l 781 0 l 496 0 l 531 199 q 300 121 436 121 q 120 177 193 121 q 47 331 47 233 q 51 374 47 351 q 110 495 64 444 q 213 567 156 546 l 213 572 q 126 704 126 603 q 131 753 126 726 l 138 793 l 33 793 l 75 1028 l 1065 1028 l 1024 793 m 635 793 l 421 793 l 417 767 q 414 744 414 750 q 486 686 414 686 l 535 686 l 494 460 l 424 460 q 365 442 386 460 q 343 394 343 424 q 362 362 343 374 q 411 350 381 350 q 521 388 474 350 q 582 488 568 425 l 635 793 z "},"ङ":{"ha":1014,"x_min":6,"x_max":1119,"o":"m 1119 1028 l 1079 793 l 715 793 l 703 731 l 704 731 l 669 533 l 406 533 q 372 525 386 533 q 357 503 358 517 q 393 471 351 471 l 454 471 q 634 419 564 471 q 704 268 704 368 q 699 214 704 240 q 586 31 678 94 q 340 -33 494 -33 q 100 28 194 -33 q 6 203 6 89 q 7 235 6 224 l 289 235 q 307 190 286 203 q 356 178 328 178 q 410 192 389 178 q 432 235 432 207 q 367 274 432 274 l 322 274 q 151 317 231 274 q 71 465 71 361 q 75 513 71 488 q 174 674 93 617 q 369 731 256 731 l 429 731 l 442 793 l 38 793 l 78 1028 l 1119 1028 m 888 632 q 974 599 940 632 q 1007 515 1007 565 q 983 435 1007 472 q 919 374 958 397 q 838 351 881 351 q 753 384 786 351 q 719 465 719 417 q 743 548 719 510 q 806 609 767 586 q 888 632 844 632 z "},"च":{"ha":1063,"x_min":33,"x_max":1168,"o":"m 1126 793 l 1021 793 l 881 0 l 597 0 l 631 186 q 388 100 533 100 q 215 153 281 100 q 150 301 150 207 q 156 354 150 318 q 218 478 168 428 l 64 478 l 103 699 l 622 699 l 583 478 l 519 478 q 462 460 488 478 q 429 407 436 442 q 428 394 428 403 q 451 349 428 365 q 513 333 474 333 q 626 379 582 333 q 688 511 669 425 l 738 793 l 33 793 l 75 1028 l 1168 1028 l 1126 793 z "},"छ":{"ha":1149,"x_min":32,"x_max":1254,"o":"m 979 793 l 965 715 q 1055 634 1024 688 q 1086 507 1086 581 q 1079 438 1086 479 q 979 219 1057 313 q 772 74 901 125 q 472 22 643 22 q 247 55 346 22 q 94 149 149 88 q 39 294 39 211 q 44 349 39 325 q 204 538 72 482 l 204 543 q 142 589 165 556 q 119 675 119 622 q 124 724 119 697 l 136 793 l 32 793 l 74 1028 l 1254 1028 l 1213 793 l 979 793 m 718 793 l 419 793 l 410 736 q 407 710 407 717 q 461 656 407 656 l 488 656 l 447 431 l 426 431 q 358 406 383 431 q 332 344 332 381 q 374 284 332 306 q 518 263 417 263 q 740 308 664 263 q 835 451 817 354 q 838 479 838 471 q 801 532 838 532 q 760 510 776 532 q 738 454 744 489 q 733 399 733 428 q 735 361 733 374 l 504 361 q 503 403 503 372 q 510 486 503 446 q 576 633 525 575 q 704 717 628 690 l 718 793 z "},"ज":{"ha":1211,"x_min":33,"x_max":1317,"o":"m 1275 793 l 1169 793 l 1031 0 l 747 0 l 822 428 l 728 428 q 595 198 699 285 q 340 111 492 111 q 117 185 200 111 q 33 383 33 258 q 40 453 33 411 l 79 668 l 364 668 l 325 451 q 322 418 322 439 q 375 358 322 358 q 456 451 439 358 l 494 668 l 864 668 l 886 793 l 33 793 l 75 1028 l 1317 1028 l 1275 793 z "},"झ":{"ha":1236,"x_min":0,"x_max":1342,"o":"m 1300 793 l 1193 793 l 1054 0 l 776 0 l 822 260 l 688 260 q 683 183 689 225 q 597 31 667 89 q 425 -28 526 -28 q 347 -18 382 -28 q 289 7 311 -8 l 267 -124 l 0 -124 l 63 233 l 317 233 q 315 221 315 229 q 368 178 315 178 q 414 192 397 178 q 431 231 431 206 q 414 262 431 250 q 364 274 397 274 q 269 276 307 274 q 129 330 189 281 q 69 472 69 379 q 74 522 69 496 q 172 681 92 629 q 369 733 253 733 l 432 733 l 442 793 l 44 793 l 86 1028 l 1342 1028 l 1300 793 m 915 793 l 715 793 l 706 733 l 669 533 l 404 533 q 372 525 385 533 q 357 501 360 517 q 394 471 353 471 l 454 471 l 858 471 l 915 793 z "},"ञ":{"ha":1182,"x_min":24,"x_max":1288,"o":"m 1246 793 l 1140 793 l 1001 0 l 718 0 l 765 272 l 672 272 q 527 103 624 163 q 311 43 431 43 q 103 107 182 43 q 24 288 24 171 q 26 333 24 318 l 293 333 q 315 292 297 304 q 356 281 333 281 q 426 317 397 281 q 454 407 454 354 q 438 459 454 439 q 392 479 422 479 q 346 467 369 479 q 310 428 322 456 l 43 428 q 121 585 64 519 q 258 685 178 651 q 431 719 339 719 q 619 665 544 719 q 708 510 693 610 l 807 510 l 857 793 l 33 793 l 75 1028 l 1288 1028 l 1246 793 z "},"ट":{"ha":893,"x_min":26,"x_max":999,"o":"m 475 485 q 361 447 410 485 q 313 342 313 408 q 340 276 313 300 q 419 251 368 251 q 522 285 481 251 q 572 375 563 319 l 842 375 q 761 181 822 264 q 605 52 700 97 q 390 7 510 7 q 199 44 282 7 q 72 151 117 82 q 26 311 26 219 q 32 375 26 346 q 171 620 58 529 q 461 719 283 711 l 474 793 l 33 793 l 75 1028 l 999 1028 l 957 793 l 751 793 l 697 485 l 475 485 z "},"ठ":{"ha":926,"x_min":29,"x_max":1032,"o":"m 649 793 l 635 719 q 792 617 732 689 q 851 442 851 546 q 844 372 851 411 q 760 184 825 263 q 599 66 696 106 q 388 26 501 26 q 206 63 288 26 q 77 167 125 99 q 29 328 29 235 q 35 394 29 363 q 144 614 57 531 q 357 726 232 697 l 369 793 l 32 793 l 74 1028 l 1032 1028 l 990 793 l 649 793 m 567 410 q 539 479 567 454 q 460 504 511 504 q 353 463 394 504 q 313 357 313 421 q 340 287 313 313 q 417 261 367 261 q 525 303 483 261 q 567 410 567 346 z "},"ड":{"ha":781,"x_min":6,"x_max":886,"o":"m 406 533 q 372 525 386 533 q 357 503 358 517 q 393 471 351 471 l 454 471 q 634 419 564 471 q 704 268 704 368 q 699 214 704 240 q 586 31 678 94 q 340 -33 494 -33 q 100 28 194 -33 q 6 203 6 89 q 7 235 6 224 l 289 235 q 307 190 286 203 q 356 178 328 178 q 410 192 389 178 q 432 235 432 207 q 367 274 432 274 l 322 274 q 151 317 231 274 q 71 465 71 361 q 75 513 71 488 q 174 674 93 617 q 369 731 256 731 l 429 731 l 442 793 l 38 793 l 78 1028 l 886 1028 l 846 793 l 714 793 l 668 533 l 406 533 z "},"ढ":{"ha":925,"x_min":31,"x_max":1031,"o":"m 560 544 q 393 494 464 544 q 307 356 322 444 q 303 313 303 333 q 344 213 303 250 q 472 175 385 175 q 581 197 538 175 q 632 263 624 218 q 626 290 635 279 q 603 301 618 301 q 564 272 572 301 q 561 249 561 264 l 364 249 q 368 308 364 283 q 460 450 383 400 q 650 500 536 500 q 814 446 753 500 q 875 300 875 392 q 871 254 875 279 q 736 47 846 121 q 444 -26 626 -26 q 230 15 324 -26 q 83 132 136 56 q 31 311 31 208 q 38 382 31 340 q 124 573 58 493 q 287 694 189 653 q 500 736 385 736 l 508 736 l 518 793 l 36 793 l 78 1028 l 1031 1028 l 989 793 l 783 793 l 740 544 l 560 544 z "},"ण":{"ha":1279,"x_min":33,"x_max":1385,"o":"m 1343 793 l 1238 793 l 1097 0 l 814 0 l 954 793 l 822 793 l 768 492 q 651 256 743 346 q 401 167 558 167 q 178 238 261 167 q 94 429 94 310 q 100 492 94 463 l 154 793 l 33 793 l 75 1028 l 1385 1028 l 1343 793 m 544 793 l 431 793 l 372 465 q 371 451 371 460 q 384 417 371 429 q 419 404 397 404 q 464 421 447 404 q 486 465 481 438 l 544 793 z "},"त":{"ha":996,"x_min":22,"x_max":1101,"o":"m 1060 793 l 953 793 l 814 0 l 531 0 l 607 436 l 453 436 q 351 399 392 436 q 310 306 310 363 q 335 244 310 267 q 414 222 361 222 l 436 222 l 397 1 l 357 1 q 194 32 271 1 q 70 126 118 63 q 22 282 22 189 q 28 344 22 315 q 182 596 56 514 q 482 678 308 678 l 649 678 l 669 793 l 33 793 l 75 1028 l 1101 1028 l 1060 793 z "},"थ":{"ha":1126,"x_min":44,"x_max":1232,"o":"m 1232 1028 l 1192 793 l 1085 793 l 944 0 l 661 0 l 701 229 q 573 137 656 174 q 388 100 490 100 q 137 184 229 100 q 44 415 44 268 q 53 506 44 458 q 82 622 65 575 l 193 622 q 376 651 310 622 q 454 749 442 681 q 456 761 456 753 q 446 789 456 778 q 419 800 436 800 q 374 770 388 800 q 364 703 360 740 l 110 703 q 158 870 114 793 q 281 994 201 947 q 467 1040 360 1040 q 654 978 585 1040 q 724 806 724 915 q 718 740 724 772 q 594 521 694 608 q 318 424 494 433 q 360 360 325 386 q 471 333 396 333 q 663 406 581 333 q 769 617 746 478 l 842 1028 l 1232 1028 z "},"द":{"ha":857,"x_min":35,"x_max":963,"o":"m 457 467 q 363 433 397 467 q 328 349 328 400 q 346 301 328 318 q 397 283 364 283 q 461 308 436 283 q 493 371 486 332 l 756 371 l 679 -61 l 403 -61 l 433 110 q 274 61 369 61 q 154 90 208 61 q 67 174 100 118 q 35 313 35 231 q 42 390 35 344 q 185 626 69 544 q 469 708 300 708 l 490 708 l 506 793 l 39 793 l 81 1028 l 963 1028 l 919 793 l 790 793 l 732 467 l 457 467 z "},"ध":{"ha":1046,"x_min":50,"x_max":1151,"o":"m 1111 793 l 1011 793 l 871 0 l 588 0 l 621 190 q 329 90 513 90 q 128 146 207 90 q 50 303 50 201 q 54 349 50 324 q 124 479 68 429 q 243 547 179 529 l 244 553 q 152 623 189 574 q 115 744 115 672 q 119 794 115 768 q 220 976 139 913 q 419 1040 301 1040 q 597 987 533 1040 q 660 838 660 933 q 643 733 660 790 l 436 733 q 440 763 440 746 q 403 804 440 804 q 365 784 379 804 q 350 732 350 764 q 447 668 350 668 l 575 668 l 535 442 l 463 442 q 347 381 358 442 q 367 336 342 351 q 444 321 392 321 q 599 376 536 321 q 681 526 661 432 l 728 793 l 768 1028 l 1151 1028 l 1111 793 z "},"न":{"ha":1172,"x_min":25,"x_max":1278,"o":"m 1236 793 l 1131 793 l 990 0 l 707 0 l 786 447 l 658 447 q 667 383 667 408 q 661 329 667 356 q 594 178 646 240 q 472 85 543 117 q 322 54 400 54 q 169 89 238 54 q 63 186 101 124 q 25 328 25 249 q 31 386 25 347 q 167 609 58 536 q 431 682 275 682 l 828 682 l 847 793 l 33 793 l 75 1028 l 1278 1028 l 1236 793 m 446 383 q 428 430 446 413 q 381 447 411 447 q 313 420 340 447 q 285 354 285 393 q 303 309 285 326 q 353 292 322 292 q 418 318 390 292 q 446 383 446 344 z "},"प":{"ha":960,"x_min":33,"x_max":1065,"o":"m 1024 793 l 918 793 l 779 0 l 496 0 l 539 244 q 358 189 464 189 q 152 267 226 189 q 78 474 78 346 q 86 557 78 514 l 128 793 l 33 793 l 75 1028 l 1065 1028 l 1024 793 m 635 793 l 411 793 l 369 557 q 365 522 365 539 q 390 452 365 478 q 467 426 415 426 q 548 458 517 426 q 592 544 579 490 l 635 793 z "},"फ":{"ha":1367,"x_min":33,"x_max":1472,"o":"m 896 793 l 869 640 q 1071 713 949 713 q 1240 646 1182 713 q 1299 472 1299 579 q 1292 400 1299 442 q 1172 164 1265 250 q 950 78 1078 78 q 843 94 889 78 l 881 310 q 913 306 897 306 q 978 335 953 306 q 1003 406 1003 365 q 987 453 1003 435 q 936 472 971 472 q 861 441 892 472 q 818 350 831 410 l 757 0 l 474 0 l 517 242 q 347 189 444 189 q 149 264 221 189 q 76 460 76 339 q 85 542 76 500 l 128 793 l 33 793 l 75 1028 l 1472 1028 l 1431 793 l 896 793 m 613 793 l 411 793 l 368 542 q 364 510 364 525 q 386 449 364 472 q 453 426 408 426 q 527 455 499 426 q 567 531 556 483 l 613 793 z "},"ब":{"ha":954,"x_min":33,"x_max":1060,"o":"m 1060 1028 l 1018 793 l 913 793 l 774 0 l 501 0 l 522 118 q 431 70 485 86 q 317 54 378 54 q 168 91 232 54 q 70 194 104 128 q 36 343 36 260 q 42 414 36 381 q 174 642 67 557 q 435 728 281 728 q 621 679 550 728 l 640 793 l 33 793 l 75 1028 l 1060 1028 m 464 549 q 376 525 417 549 l 581 368 q 589 400 589 394 q 592 428 592 419 q 557 515 592 482 q 464 549 522 549 m 285 400 q 282 371 282 381 q 319 285 282 317 q 413 253 356 253 q 499 275 458 253 l 294 433 q 285 400 286 411 z "},"भ":{"ha":1235,"x_min":24,"x_max":1340,"o":"m 1340 1028 l 1300 793 l 1192 793 l 1051 0 l 768 0 l 843 424 l 707 424 l 700 385 q 572 140 672 229 q 311 50 472 50 q 101 115 178 50 q 24 293 24 181 q 29 354 24 326 q 165 578 56 503 q 424 654 275 654 l 483 654 l 499 742 q 500 763 500 749 q 467 800 500 800 q 432 785 446 800 q 414 746 418 769 q 411 707 410 725 l 128 707 l 128 719 q 131 757 128 732 q 247 961 153 882 q 497 1040 342 1040 q 700 974 638 1040 q 763 792 763 907 q 753 689 763 739 l 747 654 l 883 654 l 949 1028 l 1340 1028 m 443 424 l 392 424 q 319 402 347 424 q 290 340 290 381 q 306 302 290 315 q 349 289 322 289 q 406 311 385 289 q 433 369 426 333 l 443 424 z "},"म":{"ha":1221,"x_min":15,"x_max":1326,"o":"m 1285 793 l 1179 793 l 1039 0 l 754 0 l 829 424 l 699 424 l 692 385 q 563 140 664 229 q 301 50 463 50 q 92 116 168 50 q 15 294 15 182 q 21 354 15 326 q 156 578 46 503 q 414 654 267 654 l 475 654 l 499 793 l 33 793 l 75 1028 l 1326 1028 l 1285 793 m 894 793 l 763 793 l 739 654 l 869 654 l 894 793 m 435 424 l 382 424 q 310 403 338 424 q 282 342 282 382 q 299 303 282 317 q 340 289 317 289 q 397 311 376 289 q 425 369 418 333 l 435 424 z "},"य":{"ha":1068,"x_min":33,"x_max":1174,"o":"m 1132 793 l 1026 793 l 886 0 l 603 0 l 632 167 q 389 88 533 88 q 210 126 286 88 q 92 234 133 164 q 51 397 51 304 q 58 479 51 444 q 82 575 65 517 l 93 575 q 243 621 200 575 q 301 750 286 667 l 310 793 l 33 793 l 75 1028 l 1174 1028 l 1132 793 m 743 793 l 589 793 l 571 697 q 333 436 532 472 q 367 355 331 388 q 475 322 404 322 q 622 378 565 322 q 694 521 679 433 l 743 793 z "},"र":{"ha":735,"x_min":25,"x_max":840,"o":"m 799 793 l 711 793 l 706 757 q 590 493 676 593 q 328 383 503 393 l 310 276 q 308 260 308 271 q 338 228 308 228 q 367 242 356 228 q 383 276 379 256 l 390 322 l 661 322 l 657 286 q 545 67 633 147 q 315 -12 457 -12 q 102 56 179 -12 q 25 233 25 125 q 31 290 25 264 l 88 608 l 224 608 q 367 647 324 608 q 422 757 410 685 l 428 793 l 35 793 l 76 1028 l 840 1028 l 799 793 z "},"ल":{"ha":1278,"x_min":28,"x_max":1383,"o":"m 1119 793 l 1096 657 q 1172 563 1144 621 q 1199 429 1199 506 q 1192 349 1199 385 q 1114 165 1172 243 q 963 45 1056 86 q 751 7 869 4 l 703 10 l 747 254 q 782 251 761 251 q 861 280 826 251 q 904 363 896 308 q 907 388 907 379 q 888 442 907 422 q 833 463 868 463 q 761 431 788 463 q 726 356 735 400 l 719 315 l 486 315 l 493 356 q 496 386 496 375 q 479 441 496 419 q 425 463 463 463 q 355 435 383 463 q 318 363 326 408 q 315 336 315 343 q 340 273 315 294 q 408 251 364 251 q 439 254 417 251 l 394 8 q 353 7 375 7 q 113 88 197 7 q 28 300 28 168 q 35 379 28 344 q 113 569 54 494 q 252 678 172 644 q 418 711 332 711 q 564 676 507 711 q 644 581 621 640 l 649 581 q 825 700 714 672 l 842 793 l 33 793 l 75 1028 l 1383 1028 l 1342 793 l 1119 793 z "},"व":{"ha":919,"x_min":33,"x_max":1025,"o":"m 1025 1028 l 983 793 l 878 793 l 739 0 l 463 0 l 485 129 q 294 57 408 57 q 104 129 174 57 q 35 325 35 201 q 44 417 35 361 q 160 637 69 556 q 390 718 250 718 q 575 646 507 718 l 601 793 l 33 793 l 75 1028 l 1025 1028 m 313 368 q 338 306 313 331 q 406 282 363 282 q 495 319 458 282 q 532 410 532 357 q 508 470 532 447 q 442 493 483 493 q 349 456 386 493 q 313 368 313 419 z "},"श":{"ha":1225,"x_min":32,"x_max":1331,"o":"m 372 233 q 422 256 404 233 q 447 324 439 278 l 722 324 q 609 78 703 164 q 350 -8 515 -8 q 118 63 204 -8 q 32 257 32 133 q 39 325 32 286 l 89 607 l 276 607 q 440 634 374 607 q 521 736 507 661 q 522 750 522 742 q 513 783 522 771 q 483 796 503 796 q 431 766 449 796 q 414 694 414 736 l 132 694 q 251 949 147 858 q 515 1040 354 1040 q 728 972 644 1040 q 811 783 811 904 q 806 718 811 747 q 647 458 775 544 q 343 371 519 371 l 333 371 l 322 308 q 319 283 319 292 q 372 233 319 233 m 1331 1028 l 1289 793 l 1183 793 l 1043 0 l 756 0 l 938 1028 l 1331 1028 z "},"ष":{"ha":986,"x_min":33,"x_max":1092,"o":"m 1050 793 l 943 793 l 804 0 l 526 0 l 568 236 q 363 167 483 167 q 151 249 225 167 q 78 464 78 331 q 86 557 78 510 l 128 793 l 33 793 l 75 1028 l 1092 1028 l 1050 793 m 665 793 l 406 793 l 639 643 l 665 793 m 358 549 q 356 511 356 536 q 381 433 356 463 q 457 404 406 404 q 594 475 544 404 l 371 615 l 358 549 z "},"स":{"ha":1160,"x_min":29,"x_max":1265,"o":"m 1224 793 l 1118 793 l 978 0 l 694 0 l 760 374 l 326 374 l 310 279 q 308 267 308 275 q 344 228 308 228 q 381 244 368 228 q 400 294 393 261 l 671 294 q 563 69 658 150 q 317 -12 468 -12 q 104 60 179 -12 q 29 247 29 132 q 35 310 29 282 l 81 574 l 168 574 q 311 612 268 574 q 367 722 354 650 l 379 793 l 35 793 l 76 1028 l 1265 1028 l 1224 793 m 835 793 l 663 793 l 650 722 q 614 604 639 656 l 801 604 l 835 793 z "},"ह":{"ha":825,"x_min":19,"x_max":932,"o":"m 446 539 q 410 529 425 539 q 393 500 396 519 l 392 490 q 396 476 392 483 q 431 478 408 478 q 592 444 525 478 q 692 356 658 411 q 726 236 726 300 q 724 200 726 225 l 453 200 q 436 240 454 224 q 389 256 418 256 q 324 226 354 256 q 294 139 294 196 q 313 86 294 103 q 358 69 332 69 q 407 83 385 69 q 439 119 429 97 l 710 119 q 579 -86 682 -10 q 333 -162 476 -162 q 170 -128 242 -162 q 59 -30 99 -93 q 19 117 19 33 q 25 183 19 151 q 172 408 50 329 q 119 522 119 453 q 151 631 119 582 q 240 709 182 681 q 378 738 299 738 l 444 738 l 454 793 l 49 793 l 90 1028 l 932 1028 l 890 793 l 724 793 l 714 738 l 678 539 l 446 539 z "},"ळ":{"ha":1300,"x_min":24,"x_max":1406,"o":"m 1136 793 l 1110 647 q 1192 558 1163 614 q 1221 432 1221 503 q 1215 365 1221 397 q 1142 190 1197 265 q 1008 76 1088 115 q 840 36 929 36 q 690 71 756 36 q 593 176 624 106 l 585 176 q 458 71 533 106 q 299 36 383 36 q 158 67 221 36 q 60 158 96 99 q 24 299 24 218 q 29 365 24 333 q 102 538 47 464 q 237 653 157 613 q 406 693 317 693 q 550 663 486 693 q 653 554 614 633 l 658 554 q 843 681 736 651 l 863 793 l 31 793 l 72 1028 l 1406 1028 l 1364 793 l 1136 793 m 485 365 q 486 381 486 371 q 465 433 486 413 q 411 454 444 454 q 335 424 367 454 q 304 346 304 393 q 325 295 304 314 q 381 276 346 276 q 448 301 418 276 q 485 365 478 325 m 940 381 q 920 434 940 414 q 864 454 900 454 q 790 423 821 454 q 758 347 758 392 q 778 295 758 314 q 833 276 799 276 q 909 305 878 276 q 940 381 940 333 z "},"क़":{"ha":1314,"x_min":24,"x_max":1419,"o":"m 854 793 l 828 644 q 1004 713 899 713 q 1177 640 1115 713 q 1239 456 1239 568 q 1232 379 1239 413 q 1113 156 1204 233 q 894 78 1022 78 q 797 90 843 78 l 836 310 q 857 307 844 307 q 922 333 894 307 q 949 403 949 360 q 932 452 949 432 q 881 472 915 472 q 816 446 842 472 q 781 369 790 419 l 715 0 l 443 0 l 467 135 q 272 60 394 60 q 147 93 201 60 q 61 186 92 126 q 31 322 31 246 q 38 393 31 351 q 154 626 63 539 q 385 713 246 713 q 556 642 504 713 l 582 793 l 33 793 l 75 1028 l 1419 1028 l 1378 793 l 854 793 m 401 297 q 473 321 443 297 q 510 379 503 344 l 511 386 l 513 400 q 491 453 513 433 q 433 474 469 474 q 354 443 386 474 q 322 368 322 413 q 344 317 322 338 q 401 297 367 297 m 344 -132 q 318 -223 344 -181 q 248 -290 292 -265 q 156 -315 204 -315 q 60 -278 97 -315 q 24 -187 24 -242 q 50 -94 24 -137 q 120 -26 76 -51 q 211 0 164 0 q 307 -37 269 0 q 344 -132 344 -75 z "},"ख़":{"ha":1358,"x_min":35,"x_max":1464,"o":"m 1464 1028 l 1422 793 l 1317 793 l 1178 0 l 896 0 l 926 174 q 783 132 869 132 q 743 136 763 132 q 591 28 678 68 q 403 -12 504 -12 q 141 70 233 -12 q 49 307 49 153 q 58 413 49 360 l 85 564 l 111 564 q 258 604 208 564 q 321 726 307 644 l 332 793 l 35 793 l 76 1028 l 1464 1028 m 453 231 q 589 286 544 231 q 578 379 578 333 q 583 449 578 417 q 683 635 603 564 q 871 707 764 707 q 1011 661 965 707 l 1035 793 l 617 793 l 599 686 q 506 476 576 557 q 332 372 435 394 q 329 344 329 353 q 361 262 329 293 q 453 231 393 231 m 822 406 q 840 361 822 376 q 885 346 857 346 q 940 366 917 346 q 969 421 964 386 q 971 436 971 426 q 956 478 971 461 q 911 494 940 494 q 848 471 874 494 q 822 406 822 447 m 489 -199 q 463 -290 489 -247 q 392 -357 436 -332 q 300 -382 349 -382 q 205 -345 242 -382 q 168 -254 168 -308 q 194 -161 168 -204 q 265 -92 221 -118 q 356 -67 308 -67 q 451 -104 414 -67 q 489 -199 489 -142 z "},"ग़":{"ha":1193,"x_min":31,"x_max":1299,"o":"m 1299 1028 l 1257 793 l 1150 793 l 1011 0 l 728 0 l 867 793 l 738 793 l 690 518 q 573 278 665 368 q 321 188 481 188 q 110 250 189 188 q 31 432 31 313 q 38 504 31 463 q 47 550 43 535 l 321 550 l 313 506 q 310 472 310 493 q 346 428 310 428 q 404 506 392 428 l 454 793 l 33 793 l 75 1028 l 1299 1028 m 433 -4 q 407 -95 433 -53 q 337 -162 381 -137 q 244 -187 293 -187 q 149 -151 186 -187 q 113 -60 113 -114 q 139 33 113 -10 q 209 102 165 76 q 300 128 253 128 q 396 90 358 128 q 433 -4 433 53 z "},"ज़":{"ha":1211,"x_min":33,"x_max":1317,"o":"m 1275 793 l 1169 793 l 1031 0 l 747 0 l 822 428 l 728 428 q 595 198 699 285 q 340 111 492 111 q 117 185 200 111 q 33 383 33 258 q 40 453 33 411 l 79 668 l 364 668 l 325 451 q 322 418 322 439 q 375 358 322 358 q 456 451 439 358 l 494 668 l 864 668 l 886 793 l 33 793 l 75 1028 l 1317 1028 l 1275 793 m 454 -79 q 428 -170 454 -128 q 358 -237 401 -212 q 265 -262 314 -262 q 170 -226 207 -262 q 133 -135 133 -189 q 160 -42 133 -85 q 230 27 186 1 q 321 53 274 53 q 417 15 379 53 q 454 -79 454 -22 z "},"ड़":{"ha":781,"x_min":6,"x_max":886,"o":"m 406 533 q 372 525 386 533 q 357 503 358 517 q 393 471 351 471 l 454 471 q 634 419 564 471 q 704 268 704 368 q 699 214 704 240 q 586 31 678 94 q 340 -33 494 -33 q 100 28 194 -33 q 6 203 6 89 q 7 235 6 224 l 289 235 q 307 190 286 203 q 356 178 328 178 q 410 192 389 178 q 432 235 432 207 q 367 274 432 274 l 322 274 q 151 317 231 274 q 71 465 71 361 q 75 513 71 488 q 174 674 93 617 q 369 731 256 731 l 429 731 l 442 793 l 38 793 l 78 1028 l 886 1028 l 846 793 l 714 793 l 668 533 l 406 533 m 450 -224 q 424 -315 450 -272 q 353 -382 397 -357 q 261 -407 310 -407 q 166 -370 203 -407 q 129 -279 129 -333 q 156 -186 129 -229 q 226 -117 182 -143 q 317 -92 269 -92 q 413 -129 375 -92 q 450 -224 450 -167 z "},"ढ़":{"ha":925,"x_min":31,"x_max":1031,"o":"m 560 544 q 393 494 464 544 q 307 356 322 444 q 303 313 303 333 q 344 213 303 250 q 472 175 385 175 q 581 197 538 175 q 632 263 624 218 q 626 290 635 279 q 603 301 618 301 q 564 272 572 301 q 561 249 561 264 l 364 249 q 368 308 364 283 q 460 450 383 400 q 650 500 536 500 q 814 446 753 500 q 875 300 875 392 q 871 254 875 279 q 736 47 846 121 q 444 -26 626 -26 q 230 15 324 -26 q 83 132 136 56 q 31 311 31 208 q 38 382 31 340 q 124 573 58 493 q 287 694 189 653 q 500 736 385 736 l 508 736 l 518 793 l 36 793 l 78 1028 l 1031 1028 l 989 793 l 783 793 l 740 544 l 560 544 m 529 -215 q 503 -306 529 -264 q 433 -374 476 -349 q 340 -399 389 -399 q 245 -362 282 -399 q 208 -271 208 -325 q 235 -178 208 -221 q 305 -109 261 -135 q 396 -83 349 -83 q 492 -121 454 -83 q 529 -215 529 -158 z "},"फ़":{"ha":1367,"x_min":33,"x_max":1472,"o":"m 896 793 l 869 640 q 1071 713 949 713 q 1240 646 1182 713 q 1299 472 1299 579 q 1292 400 1299 442 q 1172 164 1265 250 q 950 78 1078 78 q 843 94 889 78 l 881 310 q 913 306 897 306 q 978 335 953 306 q 1003 406 1003 365 q 987 453 1003 435 q 936 472 971 472 q 861 441 892 472 q 818 350 831 410 l 757 0 l 474 0 l 517 242 q 347 189 444 189 q 149 264 221 189 q 76 460 76 339 q 85 542 76 500 l 128 793 l 33 793 l 75 1028 l 1472 1028 l 1431 793 l 896 793 m 613 793 l 411 793 l 368 542 q 364 510 364 525 q 386 449 364 472 q 453 426 408 426 q 527 455 499 426 q 567 531 556 483 l 613 793 m 354 7 q 328 -84 354 -42 q 258 -151 301 -126 q 165 -176 214 -176 q 70 -140 107 -176 q 33 -49 33 -103 q 60 44 33 1 q 130 113 86 88 q 221 139 174 139 q 317 101 279 139 q 354 7 354 64 z "},"ऱ":{"ha":735,"x_min":-137,"x_max":840,"o":"m 799 793 l 711 793 l 706 757 q 590 493 676 593 q 328 383 503 393 l 310 276 q 308 260 308 271 q 338 228 308 228 q 367 242 356 228 q 383 276 379 256 l 390 322 l 661 322 l 657 286 q 545 67 633 147 q 315 -12 457 -12 q 102 56 179 -12 q 25 233 25 125 q 31 290 25 264 l 88 608 l 224 608 q 367 647 324 608 q 422 757 410 685 l 428 793 l 35 793 l 76 1028 l 840 1028 l 799 793 m 183 -158 q 157 -249 183 -207 q 87 -317 131 -292 q -6 -342 43 -342 q -101 -305 -64 -342 q -137 -214 -137 -268 q -111 -121 -137 -164 q -41 -52 -85 -78 q 50 -26 3 -26 q 146 -64 108 -26 q 183 -158 183 -101 z "},"ं":{"ha":0,"x_min":-267,"x_max":56,"o":"m 56 1294 q 28 1204 56 1247 q -42 1135 1 1161 q -135 1110 -86 1110 q -230 1147 -193 1110 q -267 1239 -267 1183 q -240 1331 -267 1289 q -170 1399 -214 1374 q -79 1425 -126 1425 q 18 1388 -19 1425 q 56 1294 56 1351 z "},"ँ":{"ha":0,"x_min":-439,"x_max":294,"o":"m 38 1493 q 1 1409 38 1444 q -85 1374 -36 1374 q -144 1397 -121 1374 q -168 1457 -168 1421 q -131 1540 -168 1504 q -49 1576 -94 1576 q 14 1553 -10 1576 q 38 1493 38 1529 m 294 1444 q 163 1203 267 1285 q -115 1121 60 1121 q -350 1188 -261 1121 q -439 1379 -439 1256 q -433 1444 -439 1413 l -210 1444 q -212 1421 -212 1428 q -181 1347 -212 1375 q -92 1319 -149 1319 q 15 1354 -28 1319 q 68 1444 58 1389 l 294 1444 z "},"ः":{"ha":431,"x_min":19,"x_max":411,"o":"m 411 657 q 384 566 411 608 q 313 498 357 524 q 222 472 269 472 q 126 510 164 472 q 89 601 89 547 q 116 693 89 650 q 187 762 143 736 q 278 788 231 788 q 374 750 336 788 q 411 657 411 713 m 342 265 q 315 174 342 217 q 244 107 288 132 q 153 82 201 82 q 57 119 94 82 q 19 211 19 156 q 47 303 19 260 q 117 371 74 346 q 208 396 161 396 q 304 359 267 396 q 342 265 342 322 z "},"ऽ":{"ha":847,"x_min":-15,"x_max":819,"o":"m -15 51 l 26 288 l 356 288 q 408 325 408 288 q 392 362 408 343 q 339 410 375 381 q 263 480 293 449 q 211 557 233 511 q 189 661 189 603 q 193 715 189 686 q 290 876 211 819 q 482 933 368 933 l 819 933 l 778 696 l 513 696 q 475 671 478 696 q 488 635 472 653 q 542 585 504 617 q 619 516 589 547 q 673 438 650 485 q 696 331 696 390 q 690 276 696 315 q 587 110 671 169 q 389 51 503 51 l -15 51 z "},"्":{"ha":0,"x_min":-471,"x_max":-56,"o":"m -343 -401 l -471 -71 l -190 -71 l -56 -401 l -343 -401 z "},"़":{"ha":0,"x_min":-486,"x_max":-165,"o":"m -165 -282 q -192 -373 -165 -331 q -262 -440 -218 -415 q -354 -465 -306 -465 q -449 -428 -412 -465 q -486 -337 -486 -392 q -460 -244 -486 -287 q -390 -176 -433 -201 q -299 -150 -346 -150 q -203 -187 -240 -150 q -165 -282 -165 -225 z "},"०":{"ha":919,"x_min":50,"x_max":911,"o":"m 64 504 q 231 867 104 732 q 568 1001 357 1001 q 827 908 743 1001 q 911 649 911 814 q 897 504 911 578 q 731 141 857 276 q 393 6 604 6 q 134 99 218 6 q 50 360 50 193 q 64 504 50 418 m 593 504 q 604 604 604 560 q 517 710 604 710 q 416 656 447 710 q 367 504 385 603 q 356 404 356 446 q 376 325 356 353 q 444 297 396 297 q 544 351 513 297 q 593 504 575 406 z "},"१":{"ha":554,"x_min":67,"x_max":589,"o":"m 67 694 l 118 983 l 589 983 l 415 0 l 92 0 l 214 694 l 67 694 z "},"२":{"ha":786,"x_min":-28,"x_max":810,"o":"m 13 246 q 344 490 219 383 q 485 682 469 597 q 488 707 488 701 q 449 751 488 751 q 405 727 421 751 q 376 636 389 703 l 78 636 q 240 918 118 826 q 518 1010 361 1010 q 740 944 671 1010 q 810 774 810 878 q 804 713 810 754 q 673 464 781 581 q 417 263 565 347 l 735 263 l 690 14 l -28 14 l 13 246 z "},"३":{"ha":854,"x_min":36,"x_max":833,"o":"m 117 697 q 258 950 150 863 q 535 1038 365 1038 q 756 974 679 1038 q 833 806 833 910 q 829 754 833 782 q 757 601 813 657 q 640 528 701 546 l 640 522 q 769 342 769 471 q 765 290 769 318 q 635 72 742 154 q 369 -10 528 -10 q 124 56 211 -10 q 36 264 36 122 q 43 346 36 297 l 343 346 q 338 303 338 324 q 400 244 338 244 q 451 269 429 244 q 472 331 472 293 q 449 376 472 361 q 372 392 425 392 l 321 392 l 365 640 l 415 640 q 522 715 508 635 q 524 736 524 722 q 483 783 524 783 q 438 760 453 783 q 417 697 424 736 l 117 697 z "},"४":{"ha":978,"x_min":31,"x_max":925,"o":"m 31 153 l 75 410 l 593 1000 l 925 1000 l 824 419 l 924 419 l 876 153 l 776 153 l 749 0 l 438 0 l 465 153 l 31 153 m 578 649 l 388 419 l 538 419 l 578 649 z "},"५":{"ha":917,"x_min":111,"x_max":921,"o":"m 874 744 l 471 744 l 450 628 q 622 679 517 679 q 801 610 742 679 q 861 431 861 542 q 854 351 861 396 q 714 92 824 185 q 440 0 604 0 q 197 70 283 0 q 111 257 111 140 q 118 325 111 286 l 418 325 l 417 313 q 429 278 417 293 q 472 264 442 264 q 528 289 507 264 q 557 357 549 314 q 560 381 560 374 q 544 424 560 410 q 499 439 528 439 q 452 425 469 439 q 431 393 435 411 l 131 393 l 240 1015 l 921 1015 l 874 744 z "},"६":{"ha":879,"x_min":72,"x_max":853,"o":"m 563 707 q 549 768 563 749 q 503 788 536 788 q 423 734 450 788 q 376 568 396 681 q 460 629 410 607 q 571 651 511 651 q 750 591 685 651 q 815 415 815 531 q 807 332 815 376 q 667 83 779 175 q 389 -10 554 -10 q 145 74 218 -10 q 72 310 72 157 q 92 500 72 394 q 184 806 125 689 q 337 978 243 922 q 565 1033 431 1033 q 783 956 714 1033 q 853 760 853 879 q 850 707 853 725 l 563 707 m 453 415 q 383 389 411 415 q 356 315 356 363 q 374 269 356 285 q 425 254 392 254 q 489 274 464 254 q 521 336 514 294 q 522 353 522 342 q 503 399 522 383 q 453 415 485 415 z "},"७":{"ha":711,"x_min":-28,"x_max":804,"o":"m 764 769 l 289 0 l -28 0 l 443 732 l 88 732 l 135 996 l 804 996 l 764 769 z "},"८":{"ha":913,"x_min":47,"x_max":893,"o":"m 236 558 q 151 717 151 613 q 156 768 151 742 q 220 902 168 838 q 363 1008 272 967 q 572 1050 453 1050 q 753 1016 681 1050 q 859 927 825 982 q 893 810 893 872 q 889 768 893 789 q 733 558 864 626 q 836 371 836 492 q 831 313 836 340 q 746 133 813 207 q 584 22 679 60 q 383 -15 489 -15 q 142 54 238 -15 q 47 250 47 124 q 53 313 47 283 q 236 558 82 476 m 528 800 q 478 777 500 800 q 449 715 456 754 q 446 692 446 699 q 460 648 446 663 q 499 633 475 633 q 548 654 526 633 q 576 715 569 675 q 579 739 579 732 q 565 784 579 768 q 528 800 551 800 m 461 426 q 383 393 414 426 q 353 311 353 360 q 372 257 353 278 q 428 236 390 236 q 506 269 476 236 q 536 351 536 303 q 517 406 536 386 q 461 426 497 426 z "},"९":{"ha":829,"x_min":49,"x_max":832,"o":"m 339 317 q 355 256 340 275 q 403 236 369 236 q 479 288 454 236 q 525 456 504 340 q 442 394 493 417 q 332 372 392 372 q 152 433 218 372 q 86 610 86 493 q 94 692 86 649 q 235 941 122 849 q 513 1033 347 1033 q 758 952 685 1033 q 832 721 832 871 q 814 538 832 643 q 660 128 765 265 q 360 -10 554 -10 q 185 29 256 -10 q 82 133 115 68 q 49 276 49 199 q 51 317 49 289 l 339 317 m 450 608 q 519 635 492 608 q 547 708 547 661 q 529 754 547 739 q 478 769 511 769 q 414 749 439 769 q 382 688 389 729 q 381 669 381 681 q 399 624 381 640 q 450 608 418 608 z "},"ॐ":{"ha":1503,"x_min":6,"x_max":1406,"o":"m 857 1244 q 797 1268 821 1244 q 774 1328 774 1292 q 810 1413 774 1376 q 893 1449 847 1449 q 954 1425 931 1449 q 978 1364 978 1401 q 942 1280 978 1315 q 857 1244 906 1244 m 828 992 q 588 1060 674 992 q 501 1250 501 1129 q 507 1315 501 1286 l 731 1315 q 729 1293 729 1307 q 761 1219 729 1247 q 850 1192 793 1192 q 957 1226 914 1192 q 1010 1315 1000 1260 l 1236 1315 q 1108 1074 1213 1157 q 828 992 1003 992 m 1131 944 q 1339 883 1272 944 q 1406 701 1406 821 q 1396 601 1406 665 l 1368 446 q 1208 126 1331 238 q 901 14 1085 14 q 760 28 833 14 l 800 261 q 890 253 869 253 q 1031 305 985 253 q 1094 456 1078 357 l 1128 640 q 1129 661 1129 647 q 1089 706 1129 706 q 1022 624 1036 706 q 961 431 1001 501 q 845 325 921 360 q 643 289 769 290 q 642 285 642 288 q 524 86 619 160 q 294 13 428 13 q 82 77 158 13 q 6 251 6 142 q 11 311 6 283 l 275 311 q 274 300 274 307 q 286 267 274 281 q 321 254 299 254 q 370 275 351 254 q 389 328 389 296 q 369 369 389 354 q 313 385 350 385 l 244 385 l 286 622 l 354 622 q 420 641 393 622 q 447 697 447 660 q 436 728 447 717 q 406 739 425 739 q 365 724 382 739 q 344 686 349 710 l 83 686 q 149 839 99 772 q 279 942 200 906 q 454 979 358 979 q 644 924 576 979 q 713 772 713 869 q 708 721 713 749 q 650 595 694 649 q 539 515 606 542 l 538 510 l 542 508 l 618 508 q 692 518 665 508 q 735 553 719 528 q 760 626 750 578 q 874 865 788 786 q 1131 944 961 944 z "},"॰":{"ha":646,"x_min":75,"x_max":571,"o":"m 367 694 q 516 642 461 694 q 571 504 571 590 q 567 456 571 481 q 469 285 547 351 q 283 218 390 218 q 131 270 188 218 q 75 408 75 322 q 79 456 75 431 q 178 628 99 561 q 367 694 258 694 m 338 529 q 273 504 300 529 q 246 442 246 479 q 265 399 246 415 q 313 383 283 383 q 368 403 344 383 q 397 456 392 424 q 399 469 399 460 q 382 513 399 497 q 338 529 365 529 z "},"।":{"ha":532,"x_min":106,"x_max":567,"o":"m 567 1028 l 386 0 l 106 0 l 286 1028 l 567 1028 z "},"॥":{"ha":965,"x_min":106,"x_max":1000,"o":"m 567 1028 l 386 0 l 106 0 l 286 1028 l 567 1028 m 1000 1028 l 819 0 l 538 0 l 718 1028 l 1000 1028 z "},"₨":{"ha":1707,"x_min":0,"x_max":1690,"o":"m 949 661 q 863 485 931 561 q 685 376 794 410 l 833 0 l 494 0 l 371 353 l 308 0 l 0 0 l 174 983 l 632 983 q 872 913 790 983 q 954 724 954 842 q 949 661 954 689 m 1233 531 q 1263 503 1233 513 q 1358 482 1292 493 q 1507 448 1447 467 q 1611 389 1567 429 q 1656 279 1656 349 q 1651 240 1656 261 q 1590 113 1639 169 q 1462 23 1542 56 q 1279 -10 1382 -10 q 1015 63 1107 -10 q 924 271 922 135 l 1225 271 q 1249 229 1224 242 q 1315 217 1275 217 q 1375 247 1368 217 q 1349 280 1379 269 q 1247 303 1318 290 q 1103 335 1161 317 q 1003 393 1046 353 q 960 503 960 433 q 964 546 960 524 q 1024 670 975 614 q 1155 760 1072 726 q 1344 793 1238 793 q 1601 716 1515 793 q 1690 513 1688 639 l 1389 513 q 1300 565 1383 565 q 1251 557 1269 565 q 1233 531 1233 549 m 407 558 l 529 558 q 599 578 574 558 q 633 642 625 599 q 635 660 635 649 q 615 708 635 690 q 558 725 596 725 l 436 725 l 407 558 z "},"₹":{"ha":801,"x_min":22,"x_max":864,"o":"m 749 782 l 740 736 l 821 736 l 790 564 l 703 564 q 562 381 660 451 q 315 310 464 310 l 310 283 q 307 257 307 264 q 346 215 307 215 q 385 233 372 215 q 404 293 397 250 l 689 293 q 563 69 656 153 q 319 -14 469 -14 q 22 238 22 -14 q 32 336 22 286 l 63 507 q 263 510 197 507 q 363 526 328 514 q 414 564 399 538 l 72 564 l 103 736 l 453 736 l 461 782 l 111 782 l 146 983 l 864 983 l 829 782 l 749 782 z "},"‌":{"ha":0,"x_min":-32,"x_max":33,"o":"m -32 -319 l -32 1126 l 33 1126 l 33 -319 l -32 -319 z "},"‍":{"ha":0,"x_min":-178,"x_max":178,"o":"m 132 778 l 32 882 l 32 -319 l -33 -319 l -33 882 l -129 781 l -175 826 l -46 956 l -178 1088 l -132 1133 l 0 1001 l 133 1133 l 178 1089 l 44 956 l 178 824 l 132 778 z "},"◌":{"ha":904,"x_min":69,"x_max":835,"o":"m 478 692 q 461 649 478 665 q 418 633 444 633 q 375 649 392 633 q 358 692 358 665 q 375 734 358 718 q 418 750 392 750 q 461 734 444 750 q 478 692 478 718 m 646 671 q 629 628 646 644 q 586 613 613 613 q 543 628 560 613 q 526 671 526 644 q 543 713 526 697 q 586 729 560 729 q 629 713 613 729 q 646 671 646 697 m 315 633 q 299 591 315 607 q 256 575 282 575 q 213 591 229 575 q 196 633 196 607 q 213 676 196 660 q 256 692 229 692 q 299 676 282 692 q 315 633 315 660 m 774 568 q 757 526 774 542 q 714 510 740 510 q 671 526 688 510 q 654 568 654 542 q 671 610 654 594 q 714 626 688 626 q 757 610 740 626 q 774 568 774 594 m 210 496 q 193 453 210 469 q 150 438 176 438 q 107 453 124 438 q 90 496 90 469 q 107 538 90 522 q 150 554 124 554 q 193 538 176 554 q 210 496 210 522 m 835 410 q 818 367 835 383 q 775 351 801 351 q 732 367 749 351 q 715 410 715 383 q 732 452 715 436 q 775 468 749 468 q 818 452 801 468 q 835 410 835 436 m 189 328 q 172 285 189 301 q 129 269 156 269 q 86 285 103 269 q 69 328 69 301 q 86 370 69 354 q 129 386 103 386 q 172 370 156 386 q 189 328 189 354 m 821 243 q 804 201 821 217 q 761 185 788 185 q 718 201 735 185 q 701 243 701 217 q 718 285 701 269 q 761 301 735 301 q 804 285 788 301 q 821 243 821 269 m 251 171 q 235 128 251 144 q 192 113 218 113 q 149 128 165 113 q 132 171 132 144 q 149 213 132 197 q 192 229 165 229 q 235 213 218 229 q 251 171 251 197 m 719 110 q 703 67 719 83 q 660 51 686 51 q 617 67 633 51 q 600 110 600 83 q 617 152 600 136 q 660 168 633 168 q 703 152 686 168 q 719 110 719 136 m 388 65 q 371 23 388 39 q 328 7 354 7 q 285 23 301 7 q 268 65 268 39 q 285 108 268 92 q 328 124 301 124 q 371 108 354 124 q 388 65 388 92 m 560 46 q 543 3 560 19 q 500 -12 526 -12 q 457 3 474 -12 q 440 46 440 19 q 457 88 440 72 q 500 104 474 104 q 543 88 526 104 q 560 46 560 72 z "},"!":{"ha":632,"x_min":92,"x_max":600,"o":"m 600 1049 l 449 390 l 185 390 l 264 1049 l 600 1049 m 246 -11 q 133 24 174 -11 q 92 114 92 58 q 119 204 92 163 q 194 270 146 246 q 300 294 242 294 q 411 259 371 294 q 451 168 451 224 q 425 78 451 119 q 351 13 399 38 q 246 -11 304 -11 z "},"\"":{"ha":681,"x_min":151,"x_max":746,"o":"m 433 1115 l 357 789 l 151 789 l 190 1115 l 433 1115 m 746 1115 l 669 789 l 464 789 l 503 1115 l 746 1115 z "},"#":{"ha":1296,"x_min":-25,"x_max":1365,"o":"m 1096 585 l 1044 453 l 1199 453 l 1149 172 l 935 172 l 868 0 l 582 0 l 649 172 l 456 172 l 389 0 l 104 0 l 171 172 l -25 172 l 25 453 l 281 453 l 332 585 l 143 585 l 192 865 l 442 865 l 506 1028 l 790 1028 l 726 865 l 919 865 l 983 1028 l 1269 1028 l 1206 865 l 1365 865 l 1317 585 l 1096 585 m 810 585 l 617 585 l 565 453 l 758 453 l 810 585 z "},"$":{"ha":924,"x_min":28,"x_max":922,"o":"m 588 682 q 565 754 592 733 l 542 618 l 583 604 q 729 549 671 576 q 830 472 788 522 q 872 344 872 422 q 867 290 872 329 q 794 140 851 207 q 644 33 738 74 q 431 -10 551 -7 l 411 -121 l 325 -121 l 344 -7 q 113 78 199 7 q 28 274 28 149 q 31 315 28 288 l 358 315 q 388 238 353 258 l 413 374 q 248 427 308 403 q 139 503 188 451 q 90 643 90 556 q 96 700 90 672 q 174 856 113 790 q 326 958 235 922 q 522 999 418 994 l 542 1111 l 628 1111 l 608 999 q 840 918 758 988 q 922 725 922 849 q 919 682 922 713 l 588 682 m 428 704 q 461 653 428 675 l 481 764 q 442 744 456 760 q 428 704 428 729 m 538 293 q 493 344 538 321 l 472 225 q 519 247 501 229 q 538 293 538 265 z "},"%":{"ha":1244,"x_min":85,"x_max":1194,"o":"m 90 750 q 193 937 113 872 q 386 1001 274 1001 q 539 953 482 1001 q 596 811 596 904 q 590 750 596 779 q 490 564 569 628 q 299 500 410 500 q 143 549 201 500 q 85 692 85 597 q 90 750 85 722 m 1135 988 l 442 0 l 147 0 l 840 988 l 1135 988 m 353 822 q 292 750 306 822 q 289 724 289 731 q 326 679 289 679 q 368 697 351 679 q 390 750 385 715 q 393 776 393 769 q 353 822 393 822 m 690 238 q 793 424 713 360 q 985 489 874 489 q 1138 440 1082 489 q 1194 299 1194 392 q 1189 238 1194 267 q 1089 51 1168 115 q 897 -14 1010 -14 q 743 35 801 -14 q 685 179 685 85 q 690 238 685 210 m 953 310 q 913 291 929 310 q 890 238 896 272 q 888 211 888 218 q 926 165 888 165 q 967 183 950 165 q 989 238 983 201 q 992 263 992 257 q 953 310 992 310 z "},"&":{"ha":1163,"x_min":10,"x_max":1083,"o":"m 1064 472 q 889 225 981 325 l 1082 0 l 743 0 l 686 64 q 365 -14 542 -14 q 176 17 257 -14 q 53 106 96 49 q 10 239 10 163 q 76 424 10 342 q 253 558 142 506 q 213 685 213 622 q 263 844 213 775 q 399 950 313 913 q 594 988 486 988 q 814 926 738 988 q 890 771 890 865 q 886 728 890 751 l 606 728 q 607 740 607 732 q 593 770 607 760 q 561 781 579 781 q 518 765 536 781 q 500 721 500 750 q 543 628 500 676 l 729 411 q 779 496 757 453 l 785 508 l 1083 508 l 1064 472 m 433 229 q 526 243 478 229 l 389 397 q 343 351 360 376 q 326 301 326 325 q 354 250 326 271 q 433 229 382 229 z "},"'":{"ha":368,"x_min":151,"x_max":433,"o":"m 433 1115 l 357 789 l 151 789 l 190 1115 l 433 1115 z "},"(":{"ha":643,"x_min":67,"x_max":810,"o":"m 238 -318 q 111 -83 156 -224 q 67 228 67 58 q 121 606 67 414 q 276 965 175 799 q 513 1243 376 1132 l 810 1243 l 804 1214 q 574 942 672 1096 q 420 614 475 788 q 365 268 365 440 q 410 -37 365 107 q 539 -290 456 -182 l 535 -318 l 238 -318 z "},")":{"ha":643,"x_min":-142,"x_max":601,"o":"m -142 -318 l -137 -290 q 94 -19 -6 -174 q 249 310 194 136 q 303 656 303 483 q 258 961 303 817 q 128 1214 213 1106 l 133 1243 l 431 1243 q 557 1008 513 1149 q 601 697 601 867 q 547 319 601 511 q 392 -40 493 126 q 156 -318 292 -207 l -142 -318 z "},"*":{"ha":779,"x_min":175,"x_max":751,"o":"m 688 985 l 751 817 l 589 767 l 735 719 l 601 543 l 501 663 l 513 500 l 319 500 l 386 663 l 247 542 l 175 721 l 338 771 l 194 815 l 317 983 l 424 868 l 410 1033 l 607 1033 l 538 868 l 688 985 z "},"+":{"ha":765,"x_min":17,"x_max":776,"o":"m 726 331 l 519 331 l 482 118 l 186 118 l 224 331 l 17 331 l 67 613 l 274 613 l 311 826 l 607 826 l 569 613 l 776 613 l 726 331 z "},",":{"ha":483,"x_min":-18,"x_max":403,"o":"m 403 257 l 185 -164 l -18 -164 l 97 257 l 403 257 z "},"-":{"ha":800,"x_min":19,"x_max":713,"o":"m 713 601 l 667 347 l 19 347 l 65 601 l 713 601 z "},".":{"ha":443,"x_min":-3,"x_max":357,"o":"m 151 -11 q 38 24 79 -11 q -3 114 -3 58 q 24 204 -3 163 q 99 270 51 246 q 206 294 147 294 q 317 259 276 294 q 357 168 357 224 q 331 78 357 119 q 257 13 304 38 q 151 -11 210 -11 z "},"/":{"ha":554,"x_min":-168,"x_max":779,"o":"m 779 1326 l 128 -275 l -168 -275 l 485 1326 l 779 1326 z "},":":{"ha":443,"x_min":-3,"x_max":357,"o":"m 151 -11 q 38 24 79 -11 q -3 114 -3 58 q 24 204 -3 163 q 99 270 51 246 q 206 294 147 294 q 317 259 276 294 q 357 168 357 224 q 331 78 357 119 q 257 13 304 38 q 151 -11 210 -11 m 151 539 q 38 574 79 539 q -3 664 -3 608 q 24 754 -3 713 q 99 820 51 796 q 206 844 147 844 q 317 809 276 844 q 357 718 357 774 q 331 628 357 669 q 257 563 304 588 q 151 539 210 539 z "},";":{"ha":535,"x_min":-28,"x_max":475,"o":"m 269 518 q 156 553 197 518 q 115 643 115 588 q 142 733 115 692 q 217 799 169 775 q 324 824 265 824 q 435 788 394 824 q 475 697 475 753 q 449 608 475 649 q 375 542 422 567 q 269 518 328 518 m 393 257 l 175 -164 l -28 -164 l 88 257 l 393 257 z "},"<":{"ha":690,"x_min":42,"x_max":729,"o":"m 239 174 l 42 472 l 344 772 l 729 772 l 426 472 l 624 174 l 239 174 z "},"=":{"ha":869,"x_min":-17,"x_max":915,"o":"m 915 806 l 865 526 l 51 526 l 101 806 l 915 806 m 846 417 l 797 138 l -17 138 l 32 417 l 846 417 z "},">":{"ha":690,"x_min":-11,"x_max":676,"o":"m 94 772 l 479 772 l 676 472 l 374 174 l -11 174 l 292 472 l 94 772 z "},"?":{"ha":747,"x_min":56,"x_max":792,"o":"m 499 1074 q 713 1013 633 1074 q 792 838 792 953 q 786 771 792 803 q 669 574 764 649 q 439 496 574 499 l 414 397 l 142 397 l 185 692 l 301 692 q 433 710 386 692 q 485 772 479 729 l 486 783 q 475 813 486 803 q 446 824 464 824 q 401 806 418 824 q 381 761 385 789 l 90 761 q 152 918 101 847 q 291 1031 203 989 q 499 1074 379 1074 m 210 -11 q 97 24 138 -11 q 56 114 56 58 q 83 204 56 163 q 158 270 110 246 q 264 294 206 294 q 375 259 335 294 q 415 168 415 224 q 389 78 415 119 q 315 13 363 38 q 210 -11 268 -11 z "},"@":{"ha":1547,"x_min":83,"x_max":1440,"o":"m 874 954 q 1171 889 1042 954 q 1370 706 1300 824 q 1440 438 1440 589 q 1396 212 1440 313 q 1265 53 1351 111 q 1058 -6 1179 -6 q 928 22 982 -6 q 851 101 875 50 q 759 19 817 47 q 628 -10 701 -10 q 469 49 526 -10 q 413 213 413 107 q 451 399 413 311 q 560 540 490 486 q 715 593 629 593 q 810 569 772 593 q 863 506 849 546 l 876 586 l 1115 586 l 1061 279 q 1057 244 1057 261 q 1101 192 1057 192 q 1185 259 1157 192 q 1214 429 1214 326 q 1169 598 1214 525 q 1041 711 1124 671 q 847 751 958 751 q 573 678 697 751 q 377 481 449 606 q 306 211 306 357 q 397 -40 306 53 q 649 -133 489 -133 q 907 -83 790 -133 l 960 -276 q 635 -340 815 -340 q 344 -275 469 -340 q 151 -90 219 -210 q 83 189 83 31 q 188 584 83 410 q 472 856 292 758 q 874 954 653 954 m 729 204 q 792 235 764 204 q 821 311 821 265 q 804 362 821 343 q 761 381 788 381 q 697 349 725 381 q 669 271 669 318 q 685 222 669 240 q 729 204 701 204 z "},"A":{"ha":1074,"x_min":-69,"x_max":1004,"o":"m 657 149 l 329 149 l 254 0 l -69 0 l 464 983 l 819 983 l 1004 0 l 679 0 l 657 149 m 624 381 l 583 654 l 446 381 l 624 381 z "},"B":{"ha":950,"x_min":0,"x_max":957,"o":"m 953 728 q 882 583 938 642 q 749 504 826 524 q 859 435 821 486 q 897 317 897 385 q 893 269 897 294 q 773 70 871 140 q 515 0 675 0 l 0 0 l 174 983 l 675 983 q 883 931 808 983 q 957 779 957 879 q 953 728 957 756 m 628 668 q 629 686 629 675 q 612 726 629 714 q 558 739 594 739 l 439 739 l 414 600 l 533 600 q 599 617 575 600 q 628 668 622 633 m 586 315 q 588 333 588 322 q 517 386 588 386 l 376 386 l 353 247 l 493 247 q 558 263 535 247 q 586 315 581 279 z "},"C":{"ha":1046,"x_min":50,"x_max":1043,"o":"m 60 493 q 164 753 85 639 q 364 930 243 867 q 633 993 485 993 q 853 945 761 993 q 994 810 946 897 q 1042 606 1043 722 l 717 606 q 667 681 703 654 q 578 708 631 708 q 444 650 500 708 q 372 493 389 592 q 367 433 367 465 q 402 319 367 361 q 503 278 438 278 q 601 305 556 278 q 678 381 647 332 l 1003 381 q 882 176 961 264 q 694 41 803 89 q 457 -7 585 -7 q 236 41 328 -7 q 97 177 144 89 q 50 382 50 265 q 60 493 50 439 z "},"D":{"ha":1032,"x_min":0,"x_max":1017,"o":"m 583 983 q 817 934 719 983 q 965 797 914 885 q 1017 593 1017 708 q 1008 494 1017 547 q 901 242 983 354 q 691 65 818 129 q 410 0 564 0 l 0 0 l 174 983 l 583 983 m 431 275 q 606 332 535 275 q 696 494 678 389 q 700 546 700 522 q 649 671 700 628 q 508 714 599 714 l 435 714 l 357 275 l 431 275 z "},"E":{"ha":772,"x_min":0,"x_max":829,"o":"m 439 739 l 418 617 l 724 617 l 682 385 l 376 385 l 351 246 l 699 246 l 656 0 l 0 0 l 174 983 l 829 983 l 786 739 l 439 739 z "},"F":{"ha":799,"x_min":0,"x_max":868,"o":"m 868 983 l 825 739 l 439 739 l 415 603 l 693 603 l 651 371 l 374 371 l 308 0 l 0 0 l 174 983 l 868 983 z "},"G":{"ha":1044,"x_min":50,"x_max":1046,"o":"m 60 493 q 165 753 85 639 q 369 930 246 867 q 644 993 493 993 q 865 951 774 993 q 1001 831 956 908 q 1042 647 1046 753 l 717 647 q 674 692 704 676 q 596 708 643 708 q 448 650 507 708 q 372 493 389 592 q 365 425 365 451 q 553 264 365 264 q 740 350 660 264 l 494 350 l 532 568 l 1033 568 l 979 260 q 769 72 896 150 q 471 -7 643 -7 q 243 42 338 -7 q 99 178 149 90 q 50 385 50 267 q 60 493 50 440 z "},"H":{"ha":1049,"x_min":0,"x_max":1083,"o":"m 1083 983 l 910 0 l 601 0 l 669 383 l 376 383 l 308 0 l 0 0 l 174 983 l 482 983 l 419 629 l 713 629 l 775 983 l 1083 983 z "},"I":{"ha":447,"x_min":0,"x_max":482,"o":"m 482 983 l 308 0 l 0 0 l 174 983 l 482 983 z "},"J":{"ha":819,"x_min":3,"x_max":860,"o":"m 860 983 l 749 349 q 608 81 717 172 q 333 -10 500 -10 q 91 65 179 -10 q 3 283 3 139 q 11 376 3 326 l 315 376 q 311 333 311 351 q 368 268 311 268 q 415 286 396 268 q 442 349 433 304 l 553 983 l 860 983 z "},"K":{"ha":1049,"x_min":0,"x_max":1113,"o":"m 689 513 l 961 0 l 594 0 l 383 428 l 308 0 l 0 0 l 174 983 l 482 983 l 408 569 l 764 983 l 1113 983 l 689 513 z "},"L":{"ha":703,"x_min":0,"x_max":647,"o":"m 350 233 l 647 233 l 606 0 l 0 0 l 174 983 l 482 983 l 350 233 z "},"M":{"ha":1321,"x_min":0,"x_max":1356,"o":"m 1356 983 l 1182 0 l 875 0 l 961 489 l 724 0 l 460 0 l 394 493 l 308 0 l 0 0 l 174 983 l 551 983 l 664 392 l 979 983 l 1356 983 z "},"N":{"ha":1082,"x_min":0,"x_max":1117,"o":"m 943 0 l 635 0 l 396 494 l 308 0 l 0 0 l 174 983 l 482 983 l 719 481 l 808 983 l 1117 983 l 943 0 z "},"O":{"ha":1094,"x_min":65,"x_max":1065,"o":"m 482 -10 q 263 42 357 -10 q 117 187 168 93 q 65 401 65 281 q 138 713 65 578 q 342 924 211 849 q 644 1000 474 1000 q 867 949 772 1000 q 1014 806 963 899 q 1065 593 1065 714 q 992 281 1065 418 q 787 67 919 143 q 482 -10 654 -10 m 529 278 q 655 316 601 278 q 736 417 708 354 q 764 554 764 481 q 723 673 764 631 q 606 715 682 715 q 479 678 533 715 q 397 577 425 640 q 368 440 368 514 q 409 321 368 364 q 529 278 450 278 z "},"P":{"ha":901,"x_min":0,"x_max":925,"o":"m 918 646 q 846 477 901 553 q 698 357 790 401 q 486 313 606 313 l 364 313 l 308 0 l 0 0 l 174 983 l 604 983 q 843 913 761 983 q 925 718 925 842 q 918 646 925 688 m 494 556 q 606 646 589 556 q 608 669 608 663 q 526 736 608 736 l 439 736 l 407 556 l 494 556 z "},"Q":{"ha":1094,"x_min":65,"x_max":1065,"o":"m 1065 593 q 1006 307 1065 435 q 836 99 946 179 l 983 -160 l 619 -160 l 554 -6 q 482 -10 519 -10 q 263 42 357 -10 q 117 187 168 93 q 65 401 65 281 q 138 713 65 578 q 342 924 211 849 q 644 1000 474 1000 q 867 949 772 1000 q 1014 806 963 899 q 1065 593 1065 714 m 368 440 q 409 321 368 364 q 529 278 450 278 q 655 316 601 278 q 736 417 708 354 q 764 554 764 481 q 723 673 764 631 q 606 715 682 715 q 479 678 533 715 q 397 577 425 640 q 368 440 368 514 z "},"R":{"ha":931,"x_min":0,"x_max":954,"o":"m 632 983 q 872 913 790 983 q 954 724 954 842 q 949 661 954 689 q 863 485 931 561 q 686 376 794 410 l 833 0 l 494 0 l 371 353 l 308 0 l 0 0 l 174 983 l 632 983 m 407 558 l 529 558 q 599 578 574 558 q 633 642 625 599 q 635 660 635 649 q 615 708 635 690 q 558 725 596 725 l 436 725 l 407 558 z "},"S":{"ha":892,"x_min":26,"x_max":874,"o":"m 422 -10 q 134 63 242 -10 q 26 274 26 135 q 29 315 26 288 l 357 315 q 370 251 353 272 q 428 231 388 231 q 469 243 453 231 q 486 279 486 256 q 453 335 486 313 q 349 388 421 357 q 219 451 269 421 q 131 535 168 482 q 93 667 93 588 q 145 847 93 771 q 290 961 197 922 q 503 1000 383 1000 q 694 967 610 1000 q 826 870 778 933 q 874 721 874 807 q 871 682 874 710 l 539 682 q 542 704 542 699 q 526 745 542 731 q 485 760 511 760 q 446 746 461 760 q 431 710 431 732 q 463 656 431 679 q 564 600 494 633 q 695 529 643 563 q 785 441 747 496 q 822 307 822 386 q 774 144 822 217 q 636 31 726 72 q 422 -10 546 -10 z "},"T":{"ha":856,"x_min":75,"x_max":946,"o":"m 946 983 l 903 739 l 642 739 l 511 0 l 203 0 l 333 739 l 75 739 l 118 983 l 946 983 z "},"U":{"ha":999,"x_min":61,"x_max":1039,"o":"m 475 983 l 378 429 q 374 383 374 407 q 399 309 374 336 q 478 282 424 282 q 583 322 544 282 q 635 429 622 361 l 732 983 l 1039 983 l 942 429 q 842 186 917 285 q 660 39 768 88 q 424 -10 553 -10 q 160 77 258 -10 q 61 325 61 164 q 71 429 61 376 l 168 983 l 475 983 z "},"V":{"ha":1060,"x_min":104,"x_max":1164,"o":"m 432 983 l 515 307 l 836 983 l 1164 983 l 660 0 l 261 0 l 104 983 l 432 983 z "},"W":{"ha":1528,"x_min":146,"x_max":1590,"o":"m 1590 983 l 1192 0 l 808 0 l 793 558 l 581 0 l 197 0 l 146 983 l 478 983 l 458 364 l 700 983 l 1036 983 l 1060 364 l 1258 983 l 1590 983 z "},"X":{"ha":1061,"x_min":-56,"x_max":1139,"o":"m 733 486 l 992 0 l 626 0 l 492 256 l 296 0 l -56 0 l 357 507 l 104 983 l 469 983 l 600 738 l 788 983 l 1139 983 l 733 486 z "},"Y":{"ha":1014,"x_min":104,"x_max":1118,"o":"m 1118 983 l 644 299 l 592 0 l 283 0 l 336 299 l 104 983 l 457 983 l 553 635 l 771 983 l 1118 983 z "},"Z":{"ha":875,"x_min":0,"x_max":910,"o":"m 385 246 l 779 246 l 736 0 l 0 0 l 42 232 l 519 739 l 131 739 l 174 983 l 910 983 l 869 751 l 385 246 z "},"[":{"ha":740,"x_min":7,"x_max":813,"o":"m 813 1243 l 769 996 l 528 996 l 339 -71 l 581 -71 l 538 -318 l 7 -318 l 282 1243 l 813 1243 z "},"\\":{"ha":822,"x_min":263,"x_max":607,"o":"m 313 -275 l 263 1326 l 557 1326 l 607 -275 l 313 -275 z "},"]":{"ha":740,"x_min":-47,"x_max":758,"o":"m 483 -318 l -47 -318 l -4 -71 l 238 -71 l 426 996 l 185 996 l 228 1243 l 758 1243 l 483 -318 z "},"^":{"ha":1053,"x_min":6,"x_max":989,"o":"m 311 225 l 6 225 l 482 988 l 785 988 l 989 225 l 683 225 l 571 639 l 311 225 z "},"_":{"ha":1061,"x_min":-64,"x_max":926,"o":"m 926 -58 l 874 -358 l -64 -358 l -11 -58 l 926 -58 z "},"`":{"ha":450,"x_min":115,"x_max":489,"o":"m 489 1042 l 451 836 l 115 967 l 156 1194 l 489 1042 z "},"a":{"ha":944,"x_min":18,"x_max":944,"o":"m 28 392 q 108 606 50 515 q 249 745 167 697 q 422 793 331 793 q 549 762 499 793 q 618 676 599 731 l 638 783 l 944 783 l 806 0 l 499 0 l 518 107 q 418 22 479 53 q 281 -10 357 -10 q 90 69 163 -10 q 18 289 18 149 q 28 392 18 342 m 568 392 q 571 425 571 404 q 546 498 571 472 q 478 524 521 524 q 390 489 428 524 q 340 392 351 454 q 338 358 338 379 q 363 285 338 311 q 431 260 388 260 q 519 294 481 260 q 568 392 557 329 z "},"b":{"ha":944,"x_min":0,"x_max":926,"o":"m 428 676 q 527 762 467 731 q 664 793 588 793 q 854 714 782 793 q 926 494 926 635 q 917 392 926 442 q 836 177 894 268 q 696 38 778 86 q 522 -10 614 -10 q 397 22 446 -10 q 328 107 347 53 l 308 0 l 0 0 l 182 1028 l 490 1028 l 428 676 m 604 392 q 607 425 607 404 q 582 498 607 472 q 514 524 557 524 q 426 489 464 524 q 376 392 388 454 q 374 358 374 379 q 399 285 374 311 q 467 260 424 260 q 555 294 517 260 q 604 392 593 329 z "},"c":{"ha":846,"x_min":19,"x_max":832,"o":"m 28 392 q 117 605 50 514 q 283 744 183 696 q 499 793 382 793 q 741 707 651 793 q 832 468 831 621 l 506 468 q 444 529 496 529 q 380 494 407 529 q 340 392 353 460 q 335 340 335 353 q 351 276 335 297 q 397 254 368 254 q 478 315 450 254 l 804 315 q 630 76 750 163 q 357 -10 510 -10 q 110 73 201 -10 q 19 303 19 156 q 28 392 19 346 z "},"d":{"ha":944,"x_min":18,"x_max":988,"o":"m 28 392 q 108 606 50 515 q 249 745 167 697 q 422 793 331 793 q 548 762 499 793 q 617 676 597 731 l 679 1028 l 988 1028 l 806 0 l 497 0 l 517 107 q 417 22 478 53 q 281 -10 357 -10 q 90 69 163 -10 q 18 289 18 149 q 28 392 18 342 m 568 392 q 571 425 571 404 q 546 498 571 472 q 478 524 521 524 q 390 489 428 524 q 340 392 351 454 q 338 358 338 379 q 363 285 338 311 q 431 260 388 260 q 519 294 481 260 q 568 392 557 329 z "},"e":{"ha":856,"x_min":19,"x_max":838,"o":"m 499 793 q 746 710 654 793 q 838 485 838 628 q 829 399 838 444 q 814 338 819 353 l 319 338 q 318 314 318 329 q 385 236 318 236 q 465 282 436 236 l 792 282 q 696 133 761 199 q 542 28 631 67 q 357 -10 454 -10 q 110 73 201 -10 q 19 303 19 156 q 28 392 19 346 q 117 605 50 514 q 283 744 183 696 q 499 793 382 793 m 528 464 q 529 485 529 471 q 508 535 529 518 q 456 551 488 551 q 343 464 372 551 l 528 464 z "},"f":{"ha":535,"x_min":28,"x_max":646,"o":"m 600 839 q 567 842 575 842 q 509 828 531 842 q 476 783 488 814 l 590 783 l 544 526 l 429 526 l 336 0 l 28 0 l 121 526 l 38 526 l 83 783 l 167 783 q 304 1020 196 936 q 582 1104 413 1104 q 646 1101 601 1104 l 600 839 z "},"g":{"ha":944,"x_min":-31,"x_max":944,"o":"m 422 793 q 549 762 499 793 q 618 676 599 731 l 638 783 l 944 783 l 808 14 q 733 -186 789 -96 q 577 -331 676 -276 q 338 -385 478 -385 q 64 -305 158 -385 q -31 -86 -31 -225 q -29 -57 -31 -67 l 274 -57 q 363 -118 276 -118 q 452 -90 417 -118 q 501 14 488 -62 l 518 107 q 418 22 479 53 q 281 -10 357 -10 q 90 69 163 -10 q 18 289 18 149 q 28 392 18 342 q 108 606 50 515 q 249 745 167 697 q 422 793 331 793 m 568 392 q 571 425 571 404 q 546 498 571 472 q 478 524 521 524 q 390 489 428 524 q 340 392 351 454 q 338 358 338 379 q 363 285 338 311 q 431 260 388 260 q 519 294 481 260 q 568 392 557 329 z "},"h":{"ha":968,"x_min":0,"x_max":924,"o":"m 688 789 q 863 723 801 789 q 924 542 924 657 q 915 454 924 500 l 835 0 l 528 0 l 601 415 q 604 446 604 438 q 580 513 604 489 q 513 536 556 536 q 427 504 461 536 q 382 415 393 472 l 382 417 l 308 0 l 0 0 l 182 1028 l 490 1028 l 426 665 q 539 755 472 721 q 688 789 606 789 z "},"i":{"ha":447,"x_min":0,"x_max":511,"o":"m 306 846 q 192 881 233 846 q 151 971 151 915 q 178 1061 151 1019 q 252 1127 204 1103 q 358 1151 300 1151 q 470 1116 429 1151 q 511 1024 511 1081 q 485 935 511 975 q 411 870 458 894 q 306 846 364 846 m 447 783 l 308 0 l 0 0 l 139 783 l 447 783 z "},"j":{"ha":444,"x_min":-182,"x_max":508,"o":"m 303 846 q 190 881 231 846 q 149 971 149 915 q 175 1061 149 1019 q 249 1127 201 1103 q 356 1151 297 1151 q 467 1116 426 1151 q 508 1024 508 1081 q 482 935 508 975 q 408 870 456 894 q 303 846 361 846 m 299 -54 q -79 -375 243 -375 l -182 -375 l -136 -112 l -76 -112 q -31 -100 -46 -112 q -10 -60 -15 -87 l 139 783 l 447 783 l 299 -54 z "},"k":{"ha":939,"x_min":0,"x_max":1001,"o":"m 639 389 l 869 0 l 501 0 l 364 313 l 308 0 l 0 0 l 182 1028 l 490 1028 l 394 489 l 643 783 l 1001 783 l 639 389 z "},"l":{"ha":447,"x_min":0,"x_max":490,"o":"m 490 1028 l 308 0 l 0 0 l 182 1028 l 490 1028 z "},"m":{"ha":1494,"x_min":0,"x_max":1450,"o":"m 1185 789 q 1381 722 1313 789 q 1450 538 1450 656 q 1442 454 1450 499 l 1361 0 l 1054 0 l 1128 415 q 1129 439 1129 424 q 1105 501 1129 479 q 1038 522 1081 522 q 953 495 988 522 q 910 421 919 468 l 835 0 l 528 0 l 601 415 q 603 439 603 424 q 578 501 603 479 q 511 522 554 522 q 427 494 461 522 q 383 419 393 467 l 308 0 l 0 0 l 139 783 l 447 783 l 428 678 q 533 758 471 728 q 674 789 596 789 q 817 752 758 789 q 903 647 876 715 q 1030 749 957 710 q 1185 789 1103 789 z "},"n":{"ha":968,"x_min":0,"x_max":924,"o":"m 688 789 q 863 723 801 789 q 924 542 924 657 q 915 454 924 500 l 835 0 l 528 0 l 601 415 q 604 446 604 438 q 580 513 604 489 q 513 536 556 536 q 428 504 463 536 q 382 417 393 472 l 308 0 l 0 0 l 139 783 l 447 783 l 426 665 q 539 755 472 721 q 688 789 606 789 z "},"o":{"ha":883,"x_min":19,"x_max":864,"o":"m 371 -10 q 188 31 267 -10 q 64 145 108 71 q 19 318 19 219 q 84 563 19 454 q 261 732 149 671 q 513 793 374 793 q 696 752 617 793 q 819 637 775 711 q 864 464 864 563 q 800 219 864 328 q 624 51 736 111 q 371 -10 511 -10 m 418 257 q 513 311 478 257 q 547 432 547 365 q 524 503 547 479 q 465 526 501 526 q 371 472 406 526 q 336 351 336 418 q 358 281 336 304 q 418 257 381 257 z "},"p":{"ha":944,"x_min":-65,"x_max":926,"o":"m 428 676 q 527 762 467 731 q 664 793 588 793 q 854 714 782 793 q 926 494 926 635 q 917 392 926 442 q 836 177 894 268 q 696 38 778 86 q 522 -10 614 -10 q 397 22 446 -10 q 328 107 347 53 l 243 -375 l -65 -375 l 139 783 l 447 783 l 428 676 m 604 392 q 607 425 607 404 q 582 498 607 472 q 514 524 557 524 q 426 489 464 524 q 376 392 388 454 q 374 358 374 379 q 399 285 374 311 q 467 260 424 260 q 555 294 517 260 q 604 392 593 329 z "},"q":{"ha":944,"x_min":18,"x_max":944,"o":"m 26 386 q 110 593 47 501 q 263 737 174 685 q 443 789 351 789 q 550 772 506 789 q 625 714 594 754 l 638 783 l 944 783 l 740 -375 l 433 -375 l 514 86 q 413 15 463 38 q 303 -8 363 -8 q 158 30 222 -8 q 56 138 93 68 q 18 301 18 208 q 26 386 18 343 m 568 392 q 571 425 571 404 q 542 499 571 475 q 478 522 514 522 q 394 488 436 522 q 339 386 351 454 q 336 356 336 364 q 365 282 336 304 q 431 260 393 260 q 515 292 474 260 q 568 392 556 324 z "},"r":{"ha":649,"x_min":0,"x_max":704,"o":"m 422 639 q 556 748 482 707 q 704 789 631 789 l 647 460 l 560 460 q 426 429 472 460 q 365 321 379 399 l 308 0 l 0 0 l 139 783 l 447 783 l 422 639 z "},"s":{"ha":804,"x_min":6,"x_max":747,"o":"m 358 -10 q 176 21 256 -10 q 51 106 96 51 q 6 232 6 161 q 8 271 6 258 l 304 271 q 324 219 303 236 q 383 203 346 203 q 424 214 407 203 q 442 240 442 225 q 414 276 442 263 q 322 306 386 289 q 188 351 242 328 q 95 422 135 375 q 56 543 56 468 q 98 670 56 613 q 217 760 140 728 q 396 793 294 793 q 587 756 507 793 q 707 654 667 718 q 744 513 747 590 l 471 513 q 451 562 471 544 q 394 579 432 579 q 355 569 371 579 q 339 543 339 560 q 367 509 339 522 q 461 475 394 496 q 597 428 543 451 q 690 360 650 406 q 731 246 731 315 q 627 58 731 125 q 358 -10 524 -10 z "},"t":{"ha":606,"x_min":44,"x_max":624,"o":"m 413 315 q 411 301 411 310 q 461 263 411 263 l 535 263 l 488 0 l 371 0 q 97 232 97 0 q 106 321 97 274 l 142 526 l 44 526 l 90 783 l 188 783 l 221 972 l 529 972 l 496 783 l 624 783 l 578 526 l 450 526 l 413 315 z "},"u":{"ha":968,"x_min":44,"x_max":968,"o":"m 968 783 l 829 0 l 521 0 l 542 118 q 429 28 496 63 q 281 -6 363 -6 q 106 60 167 -6 q 44 242 44 126 q 53 329 44 283 l 133 783 l 440 783 l 367 368 q 364 338 364 346 q 388 271 364 294 q 456 247 413 247 q 540 279 506 247 q 586 367 575 311 l 660 783 l 968 783 z "},"v":{"ha":932,"x_min":82,"x_max":989,"o":"m 449 293 l 661 783 l 989 783 l 589 0 l 204 0 l 82 783 l 410 783 l 449 293 z "},"w":{"ha":1254,"x_min":68,"x_max":1328,"o":"m 1328 783 l 1003 0 l 656 0 l 639 442 l 461 0 l 114 0 l 68 783 l 374 783 l 356 307 l 540 783 l 869 783 l 892 301 l 1043 783 l 1328 783 z "},"x":{"ha":928,"x_min":-56,"x_max":985,"o":"m 642 381 l 858 0 l 514 0 l 414 176 l 283 0 l -56 0 l 281 413 l 69 783 l 414 783 l 514 606 l 646 783 l 985 783 l 642 381 z "},"y":{"ha":940,"x_min":-19,"x_max":1024,"o":"m 399 783 l 475 386 l 683 783 l 1024 783 l 318 -375 l -19 -375 l 250 39 l 56 783 l 399 783 z "},"z":{"ha":719,"x_min":-42,"x_max":747,"o":"m 342 256 l 668 256 l 622 0 l -42 0 l 1 242 l 350 528 l 56 528 l 101 783 l 747 783 l 704 542 l 342 256 z "},"{":{"ha":672,"x_min":74,"x_max":747,"o":"m 118 588 q 222 608 189 588 q 261 675 254 629 q 268 807 268 710 q 276 956 268 913 q 398 1168 300 1093 q 642 1243 496 1243 l 747 1243 l 704 997 l 657 997 q 561 922 575 997 q 553 814 558 908 q 540 663 547 704 q 480 529 526 582 q 356 463 433 476 l 356 460 q 444 411 414 447 q 475 322 475 375 q 429 114 475 263 q 407 35 417 72 q 397 -21 397 -3 q 468 -75 397 -75 l 515 -75 l 472 -321 l 367 -321 q 168 -263 240 -321 q 96 -97 96 -206 q 110 2 96 -53 q 153 136 125 57 q 177 211 167 175 q 188 265 188 247 q 161 318 188 300 q 74 336 135 336 l 118 588 z "},"|":{"ha":364,"x_min":-76,"x_max":469,"o":"m 232 -200 l -76 -200 l 161 1150 l 469 1150 l 232 -200 z "},"}":{"ha":672,"x_min":-50,"x_max":624,"o":"m 579 336 q 436 247 450 336 q 431 128 431 215 q 421 -33 431 28 q 298 -246 396 -171 q 56 -321 200 -321 l -50 -321 l -7 -75 l 40 -75 q 106 -56 83 -75 q 135 0 128 -36 q 141 61 139 21 q 144 115 143 101 q 156 260 147 211 q 217 394 171 342 q 342 460 264 446 l 342 463 q 222 611 222 486 q 226 663 222 636 q 267 810 235 710 q 297 922 293 893 q 300 943 300 936 q 229 997 300 997 l 182 997 l 225 1243 l 331 1243 q 530 1185 458 1243 q 601 1018 601 1126 q 596 956 601 985 q 547 794 583 890 q 519 706 528 736 q 510 654 510 675 q 535 603 510 619 q 624 588 561 588 l 579 336 z "},"~":{"ha":988,"x_min":3,"x_max":1000,"o":"m 3 251 q 167 529 65 440 q 394 618 268 618 q 483 603 444 618 q 568 563 522 589 q 626 534 604 543 q 671 525 647 525 q 731 547 708 525 q 769 621 753 568 l 1000 621 q 836 343 938 432 q 608 254 735 254 q 519 269 558 254 q 435 310 481 283 q 376 338 399 329 q 331 347 354 347 q 271 325 293 347 q 231 251 249 303 l 3 251 z "}," ":{"ha":236,"x_min":0,"x_max":0,"o":""},"¡":{"ha":632,"x_min":33,"x_max":542,"o":"m 388 800 q 501 765 460 800 q 542 675 542 731 q 515 585 542 626 q 440 519 488 543 q 333 494 392 494 q 222 530 263 494 q 182 621 182 565 q 208 710 182 669 q 282 776 235 751 q 388 800 329 800 m 33 -260 l 185 399 l 449 399 l 369 -260 l 33 -260 z "},"¢":{"ha":804,"x_min":14,"x_max":783,"o":"m 432 468 q 355 438 385 468 q 315 351 325 407 q 313 317 313 339 q 390 236 313 236 q 440 249 415 236 q 475 285 465 261 l 757 285 q 622 78 726 156 q 386 -10 518 1 l 368 -115 l 282 -115 l 300 -10 q 90 73 165 1 q 14 269 14 144 q 21 353 14 317 q 158 607 50 514 q 426 713 265 700 l 446 818 l 532 818 l 513 713 q 707 635 631 703 q 783 456 783 568 q 782 419 783 432 l 500 419 q 475 457 494 446 q 432 468 456 468 z "},"£":{"ha":943,"x_min":6,"x_max":915,"o":"m 629 738 q 567 821 633 821 q 478 725 496 821 q 475 689 475 703 q 483 585 475 660 l 718 585 l 682 381 l 472 381 q 360 229 438 283 l 825 229 l 783 -8 l 17 -8 l 6 136 q 120 243 78 186 q 183 381 163 300 l 42 381 l 78 585 l 185 585 q 182 647 182 624 q 192 761 182 704 q 329 988 217 906 q 600 1071 442 1071 q 836 994 757 1071 q 915 788 915 917 q 913 738 915 771 l 629 738 z "},"¤":{"ha":838,"x_min":68,"x_max":818,"o":"m 735 682 q 767 572 767 635 q 763 526 767 551 q 682 372 746 436 l 739 304 l 608 192 l 531 286 q 400 268 472 268 q 272 288 328 268 l 160 192 l 68 304 l 153 376 q 125 479 125 421 q 129 526 125 501 q 208 678 146 617 l 147 751 l 278 864 l 361 763 q 490 779 422 779 q 610 764 553 779 l 726 864 l 818 751 l 735 682 m 365 524 q 364 504 364 517 q 383 459 364 474 q 432 444 401 444 q 492 464 467 444 q 526 524 518 483 q 528 544 528 531 q 509 591 528 576 q 460 606 490 606 q 399 586 425 606 q 365 524 372 567 z "},"¥":{"ha":1014,"x_min":36,"x_max":1118,"o":"m 872 628 l 979 628 l 944 428 l 733 428 l 699 378 l 935 378 l 900 178 l 624 178 l 592 0 l 283 0 l 315 178 l 36 178 l 71 378 l 310 378 l 292 428 l 81 428 l 115 628 l 225 628 l 104 983 l 457 983 l 544 589 l 771 983 l 1118 983 l 872 628 z "},"¦":{"ha":600,"x_min":42,"x_max":588,"o":"m 279 1150 l 588 1150 l 482 553 l 174 553 l 279 1150 m 350 -200 l 42 -200 l 147 399 l 456 399 l 350 -200 z "},"§":{"ha":826,"x_min":-3,"x_max":811,"o":"m 506 713 q 508 744 508 738 q 485 788 508 788 q 464 776 472 788 q 456 742 456 764 q 493 680 456 710 q 636 593 531 650 q 792 375 792 499 q 789 339 792 351 q 739 225 778 274 q 619 140 700 176 q 669 -12 669 72 q 665 -61 669 -39 q 542 -253 644 -181 q 278 -326 439 -326 q 68 -257 139 -326 q -3 -71 -3 -187 q -1 -35 -3 -47 l 303 -35 q 300 -68 300 -60 q 322 -110 300 -110 q 344 -99 335 -110 q 353 -65 353 -87 q 316 -3 353 -33 q 172 86 279 26 q 17 303 17 175 q 19 339 17 326 q 188 539 47 485 q 139 690 139 608 q 143 739 139 717 q 267 931 164 858 q 531 1004 369 1004 q 740 935 669 1004 q 811 749 811 865 q 810 713 811 725 l 506 713 m 461 339 q 464 364 464 356 q 453 401 464 388 q 421 415 442 415 q 368 388 389 415 q 347 318 347 360 q 358 278 347 293 q 390 263 369 263 q 436 284 417 263 q 461 339 456 306 z "},"¨":{"ha":579,"x_min":115,"x_max":671,"o":"m 215 861 q 144 888 172 861 q 115 957 115 915 q 158 1058 115 1017 q 257 1100 200 1100 q 331 1073 303 1100 q 358 1001 358 1046 q 316 902 358 943 q 215 861 274 861 m 528 861 q 456 888 485 861 q 428 957 428 915 q 470 1058 428 1017 q 569 1100 513 1100 q 643 1073 615 1100 q 671 1001 671 1046 q 628 902 671 943 q 528 861 586 861 z "},"©":{"ha":1071,"x_min":50,"x_max":1057,"o":"m 643 1000 q 863 951 769 1000 q 1007 812 957 901 q 1057 604 1057 722 q 1047 497 1057 550 q 940 236 1022 351 q 733 56 857 121 q 465 -8 610 -8 q 245 42 339 -8 q 101 183 151 92 q 50 393 50 274 q 60 497 50 447 q 169 758 86 643 q 375 936 251 872 q 643 1000 499 1000 m 628 910 q 407 859 506 910 q 244 715 308 808 q 157 497 179 622 q 149 403 149 447 q 236 168 149 254 q 482 82 324 82 q 701 133 603 82 q 865 279 800 185 q 951 497 931 374 q 960 594 960 547 q 872 826 960 742 q 628 910 785 910 m 614 803 q 372 719 472 803 q 246 496 271 636 q 240 429 240 464 q 311 253 240 317 q 506 189 382 189 q 713 257 619 189 q 844 439 807 325 l 589 439 q 528 390 567 390 q 479 456 479 390 q 483 496 479 474 q 514 575 493 549 q 565 601 535 601 q 608 553 603 601 l 864 553 q 835 685 867 628 q 746 772 804 742 q 614 803 688 803 z "},"ª":{"ha":668,"x_min":83,"x_max":744,"o":"m 89 736 q 185 922 110 856 q 361 989 261 989 q 451 971 417 989 q 504 914 485 953 l 517 983 l 744 983 l 658 493 l 431 493 l 443 561 q 369 504 408 522 q 275 486 331 486 q 136 535 189 486 q 83 675 83 585 q 89 736 83 707 m 475 753 q 457 794 475 779 q 411 808 439 808 q 349 784 375 808 q 322 719 322 760 q 340 681 322 693 q 386 668 357 668 q 449 690 422 668 q 475 753 475 713 z "},"«":{"ha":858,"x_min":65,"x_max":849,"o":"m 129 167 l 65 410 l 215 653 l 494 653 l 342 410 l 408 167 l 129 167 m 483 167 l 419 410 l 569 653 l 849 653 l 696 410 l 763 167 l 483 167 z "},"¬":{"ha":1103,"x_min":29,"x_max":1053,"o":"m 1053 622 l 982 215 l 674 215 l 704 392 l 29 392 l 69 622 l 1053 622 z "},"­":{"ha":800,"x_min":19,"x_max":713,"o":"m 713 601 l 667 347 l 19 347 l 65 601 l 713 601 z "},"®":{"ha":710,"x_min":89,"x_max":726,"o":"m 463 1001 q 654 933 582 1001 q 726 754 726 865 q 721 692 726 719 q 653 532 706 603 q 522 422 600 461 q 354 382 444 382 q 161 451 233 382 q 89 631 89 519 q 94 692 89 664 q 163 852 110 782 q 294 962 215 922 q 463 1001 372 1001 m 622 692 q 626 740 626 717 q 578 865 626 819 q 447 911 531 911 q 281 851 350 911 q 193 692 211 790 q 189 644 189 667 q 237 519 189 567 q 369 472 285 472 q 535 533 465 472 q 622 692 606 594 m 468 842 q 535 822 511 842 q 560 767 560 801 q 542 706 560 733 q 494 664 524 678 l 539 550 l 413 550 l 382 643 l 365 550 l 250 550 l 301 842 l 468 842 m 392 721 l 415 721 q 436 736 432 721 l 436 739 q 421 751 436 751 l 397 751 l 392 721 z "},"¯":{"ha":626,"x_min":97,"x_max":732,"o":"m 732 1068 l 696 864 l 97 864 l 133 1068 l 732 1068 z "},"°":{"ha":689,"x_min":89,"x_max":722,"o":"m 93 740 q 212 926 115 858 q 451 993 308 993 q 650 940 578 993 q 722 790 722 886 q 718 740 722 765 q 602 552 697 622 q 367 482 507 482 q 165 539 240 482 q 89 694 89 596 q 93 740 89 718 m 483 738 q 486 764 486 757 q 468 817 486 800 q 425 833 450 833 q 365 810 393 833 q 328 738 336 786 q 325 715 325 721 q 347 663 325 681 q 396 644 368 644 q 450 667 425 644 q 483 738 475 690 z "},"±":{"ha":765,"x_min":-18,"x_max":801,"o":"m 546 478 l 535 413 l 742 413 l 692 133 l -18 133 l 32 413 l 239 413 l 250 478 l 43 478 l 92 757 l 299 757 l 319 875 l 615 875 l 594 757 l 801 757 l 753 478 l 546 478 z "},"²":{"ha":586,"x_min":83,"x_max":642,"o":"m 444 996 q 594 958 547 996 q 642 867 642 921 q 590 767 642 808 q 417 683 539 726 l 357 663 l 593 663 l 563 489 l 83 489 l 114 658 l 318 756 q 396 826 389 788 l 396 829 q 386 838 396 838 q 353 790 363 838 l 126 790 q 234 939 149 882 q 444 996 319 996 z "},"³":{"ha":560,"x_min":65,"x_max":604,"o":"m 100 801 q 186 940 114 883 q 397 996 258 996 q 551 962 497 996 q 604 871 604 928 q 481 746 604 765 l 479 740 q 555 706 532 728 q 578 650 578 685 q 576 628 578 636 q 494 522 564 558 q 313 485 424 485 q 122 526 178 485 q 65 644 65 567 q 67 669 65 661 l 306 669 q 304 658 304 665 q 321 642 304 642 q 343 671 338 642 q 344 683 344 675 q 313 706 344 706 l 271 706 l 283 781 l 313 781 q 342 789 332 781 q 356 817 353 797 l 357 825 q 343 840 357 840 q 327 831 333 840 q 317 801 321 822 l 100 801 z "},"´":{"ha":388,"x_min":92,"x_max":515,"o":"m 475 967 l 92 836 l 129 1042 l 515 1194 l 475 967 z "},"µ":{"ha":1043,"x_min":-31,"x_max":1008,"o":"m 1008 783 l 869 0 l 561 0 l 581 107 q 477 27 538 58 q 342 -6 417 -4 l 276 -375 l -31 -375 l 174 783 l 481 783 l 407 369 q 406 346 406 361 q 430 283 406 306 q 497 261 454 261 q 583 290 549 261 q 626 369 618 319 l 626 367 l 700 783 l 1008 783 z "},"¶":{"ha":1081,"x_min":75,"x_max":1081,"o":"m 907 0 l 661 0 l 794 753 l 714 753 l 581 0 l 336 0 l 401 368 l 358 368 q 144 438 213 368 q 75 614 75 507 q 81 675 75 647 q 141 826 94 756 q 270 940 188 896 q 467 983 353 983 l 1081 983 l 907 0 z "},"·":{"ha":485,"x_min":18,"x_max":378,"o":"m 172 260 q 59 294 100 260 q 18 385 18 329 q 45 475 18 433 q 120 541 72 517 q 226 565 168 565 q 338 530 297 565 q 378 439 378 494 q 351 349 378 390 q 278 284 325 308 q 172 260 231 260 z "},"¸":{"ha":476,"x_min":-122,"x_max":360,"o":"m 207 -37 q 312 -69 264 -37 q 360 -171 360 -101 q 357 -207 360 -194 q 271 -337 340 -297 q 118 -376 201 -376 l -122 -376 l -94 -219 l 114 -219 q 142 -213 131 -219 q 154 -197 153 -207 l 154 -193 q 122 -176 154 -176 l 4 -176 l 38 10 l 215 10 l 207 -37 z "},"¹":{"ha":396,"x_min":100,"x_max":450,"o":"m 100 801 l 131 978 l 450 978 l 364 489 l 136 489 l 192 801 l 100 801 z "},"º":{"ha":653,"x_min":85,"x_max":690,"o":"m 89 735 q 148 863 101 807 q 267 952 194 919 q 431 985 340 985 q 622 928 553 985 q 690 779 690 871 q 686 735 690 758 q 627 606 674 664 q 506 515 581 549 q 342 482 432 482 q 153 540 221 482 q 85 690 85 599 q 89 735 85 713 m 454 735 q 456 754 456 742 q 440 797 456 782 q 400 811 425 811 q 342 786 367 811 q 318 714 318 761 q 333 672 318 686 q 374 657 349 657 q 425 677 403 657 q 454 735 447 697 z "},"»":{"ha":858,"x_min":29,"x_max":813,"o":"m 183 410 l 115 653 l 396 653 l 458 410 l 310 167 l 29 167 l 183 410 m 538 410 l 469 653 l 750 653 l 813 410 l 664 167 l 383 167 l 538 410 z "},"¼":{"ha":1221,"x_min":83,"x_max":1158,"o":"m 1096 983 l 385 0 l 83 0 l 796 983 l 1096 983 m 135 801 l 165 978 l 485 978 l 399 489 l 171 489 l 226 801 l 135 801 m 1136 81 l 1088 81 l 1072 0 l 843 0 l 858 81 l 576 81 l 596 197 l 843 488 l 1158 488 l 1108 203 l 1157 203 l 1136 81 m 917 347 l 811 210 l 893 210 l 917 347 z "},"½":{"ha":1289,"x_min":83,"x_max":1272,"o":"m 1111 988 l 385 0 l 83 0 l 811 988 l 1111 988 m 226 801 l 135 801 l 165 978 l 485 978 l 399 489 l 171 489 l 226 801 m 1075 506 q 1225 468 1178 506 q 1272 376 1272 431 q 1221 277 1272 318 q 1047 193 1169 236 l 988 172 l 1224 172 l 1193 -1 l 714 -1 l 744 168 l 949 265 q 1026 336 1019 297 l 1026 339 q 1017 347 1026 347 q 983 300 993 347 l 757 300 q 865 449 779 392 q 1075 506 950 506 z "},"¾":{"ha":1422,"x_min":139,"x_max":1369,"o":"m 174 801 q 260 940 188 883 q 471 996 332 996 q 624 962 571 996 q 678 871 678 928 q 554 746 678 765 l 553 740 q 628 706 606 728 q 651 650 651 685 q 650 628 651 636 q 567 522 638 558 q 386 485 497 485 q 195 526 251 485 q 139 644 139 567 q 140 669 139 661 l 379 669 q 378 658 378 665 q 394 642 378 642 q 417 671 411 642 q 418 683 418 675 q 386 706 418 706 l 344 706 l 357 781 l 386 781 q 416 789 406 781 q 429 817 426 797 l 431 825 q 417 840 431 840 q 401 831 407 840 q 390 801 394 822 l 174 801 m 1282 988 l 593 0 l 293 0 l 981 988 l 1282 988 m 1347 81 l 1299 81 l 1283 0 l 1056 0 l 1071 81 l 788 81 l 807 197 l 1026 488 l 1369 488 l 1319 203 l 1368 203 l 1347 81 m 1135 375 l 1022 203 l 1104 203 l 1135 375 z "},"¿":{"ha":747,"x_min":-47,"x_max":689,"o":"m 535 807 q 648 772 607 807 q 689 682 689 738 q 662 592 689 633 q 587 526 635 550 q 481 501 539 501 q 369 537 410 501 q 329 628 329 572 q 356 717 329 676 q 429 783 382 758 q 535 807 476 807 m 246 -278 q 32 -217 111 -278 q -47 -42 -47 -157 q -42 25 -47 -7 q 76 222 -19 147 q 306 300 171 297 l 331 399 l 603 399 l 560 104 l 443 104 q 312 85 358 104 q 260 24 265 67 l 258 13 q 269 -17 258 -7 q 299 -28 281 -28 q 343 -10 326 -28 q 364 35 360 7 l 654 35 q 592 -122 643 -51 q 453 -235 542 -193 q 246 -278 365 -278 z "},"À":{"ha":1074,"x_min":-69,"x_max":1004,"o":"m 657 149 l 329 149 l 254 0 l -69 0 l 464 983 l 819 983 l 1004 0 l 679 0 l 657 149 m 624 381 l 583 654 l 446 381 l 624 381 m 867 1246 l 829 1040 l 493 1171 l 533 1399 l 867 1246 z "},"Á":{"ha":1074,"x_min":-69,"x_max":1004,"o":"m 657 149 l 329 149 l 254 0 l -69 0 l 464 983 l 819 983 l 1004 0 l 679 0 l 657 149 m 624 381 l 583 654 l 446 381 l 624 381 m 853 1171 l 469 1040 l 507 1246 l 893 1399 l 853 1171 z "},"Â":{"ha":1074,"x_min":-69,"x_max":1004,"o":"m 657 149 l 329 149 l 254 0 l -69 0 l 464 983 l 819 983 l 1004 0 l 679 0 l 657 149 m 624 381 l 583 654 l 446 381 l 624 381 m 671 1149 l 419 1026 l 454 1226 l 706 1344 l 914 1226 l 879 1026 l 671 1149 z "},"Ã":{"ha":1074,"x_min":-69,"x_max":1008,"o":"m 657 149 l 329 149 l 254 0 l -69 0 l 464 983 l 819 983 l 1004 0 l 679 0 l 657 149 m 624 381 l 583 654 l 446 381 l 624 381 m 329 1054 q 441 1241 375 1183 q 596 1299 507 1299 q 656 1289 629 1299 q 714 1261 682 1279 q 754 1241 740 1247 q 785 1235 768 1235 q 857 1300 836 1235 l 1008 1300 q 898 1114 964 1171 q 743 1057 832 1057 q 683 1067 710 1057 q 625 1094 657 1076 q 583 1114 597 1108 q 553 1119 569 1119 q 479 1054 503 1119 l 329 1054 z "},"Ä":{"ha":1074,"x_min":-69,"x_max":1004,"o":"m 657 149 l 329 149 l 254 0 l -69 0 l 464 983 l 819 983 l 1004 0 l 679 0 l 657 149 m 624 381 l 583 654 l 446 381 l 624 381 m 499 1065 q 427 1092 456 1065 q 399 1161 399 1119 q 441 1263 399 1221 q 540 1304 483 1304 q 614 1277 586 1304 q 642 1206 642 1250 q 599 1106 642 1147 q 499 1065 557 1065 m 811 1065 q 740 1092 768 1065 q 711 1161 711 1119 q 753 1263 711 1221 q 853 1304 796 1304 q 926 1277 899 1304 q 954 1206 954 1250 q 912 1106 954 1147 q 811 1065 869 1065 z "},"Å":{"ha":1074,"x_min":-69,"x_max":1004,"o":"m 657 149 l 329 149 l 254 0 l -69 0 l 464 983 l 819 983 l 1004 0 l 679 0 l 657 149 m 624 381 l 583 654 l 446 381 l 624 381 m 499 1211 q 575 1344 514 1294 q 714 1394 636 1394 q 826 1356 782 1394 q 869 1250 869 1317 q 839 1133 869 1183 q 758 1055 808 1082 q 650 1028 707 1028 q 538 1067 581 1028 q 496 1174 496 1106 q 499 1211 496 1199 m 747 1225 q 732 1263 747 1249 q 693 1276 717 1276 q 639 1255 661 1276 q 617 1199 617 1233 q 632 1160 617 1175 q 671 1146 647 1146 q 724 1169 701 1146 q 747 1225 747 1192 z "},"Æ":{"ha":1369,"x_min":-69,"x_max":1426,"o":"m 1050 739 l 1029 621 l 1321 621 l 1281 389 l 989 389 l 963 246 l 1296 246 l 1253 0 l 611 0 l 635 135 l 351 135 l 265 0 l -69 0 l 575 983 l 1426 983 l 1383 739 l 1050 739 m 676 367 l 743 746 l 500 367 l 676 367 z "},"Ç":{"ha":1046,"x_min":50,"x_max":1043,"o":"m 578 708 q 444 650 500 708 q 372 493 389 592 q 367 433 367 465 q 402 319 367 361 q 503 278 438 278 q 601 305 556 278 q 678 381 647 332 l 1003 381 q 829 125 949 226 q 550 0 710 24 l 557 0 l 549 -47 q 653 -79 606 -47 q 701 -181 701 -111 q 699 -217 701 -204 q 613 -347 682 -307 q 460 -386 543 -386 l 219 -386 l 247 -229 l 456 -229 q 483 -223 472 -229 q 496 -207 494 -217 l 496 -203 q 464 -186 496 -186 l 346 -186 l 379 -1 q 136 122 222 21 q 50 382 50 224 q 60 493 50 439 q 164 753 85 639 q 364 930 243 867 q 633 993 485 993 q 853 945 761 993 q 994 810 946 897 q 1042 606 1043 722 l 717 606 q 667 681 703 654 q 578 708 631 708 z "},"È":{"ha":772,"x_min":0,"x_max":829,"o":"m 439 739 l 418 617 l 724 617 l 682 385 l 376 385 l 351 246 l 699 246 l 656 0 l 0 0 l 174 983 l 829 983 l 786 739 l 439 739 m 721 1246 l 683 1040 l 347 1171 l 388 1399 l 721 1246 z "},"É":{"ha":772,"x_min":0,"x_max":829,"o":"m 439 739 l 418 617 l 724 617 l 682 385 l 376 385 l 351 246 l 699 246 l 656 0 l 0 0 l 174 983 l 829 983 l 786 739 l 439 739 m 707 1171 l 324 1040 l 361 1246 l 747 1399 l 707 1171 z "},"Ê":{"ha":772,"x_min":0,"x_max":829,"o":"m 439 739 l 418 617 l 724 617 l 682 385 l 376 385 l 351 246 l 699 246 l 656 0 l 0 0 l 174 983 l 829 983 l 786 739 l 439 739 m 525 1149 l 274 1026 l 308 1226 l 560 1344 l 768 1226 l 733 1026 l 525 1149 z "},"Ë":{"ha":772,"x_min":0,"x_max":829,"o":"m 439 739 l 418 617 l 724 617 l 682 385 l 376 385 l 351 246 l 699 246 l 656 0 l 0 0 l 174 983 l 829 983 l 786 739 l 439 739 m 353 1065 q 281 1092 310 1065 q 253 1161 253 1119 q 295 1263 253 1221 q 394 1304 338 1304 q 468 1277 440 1304 q 496 1206 496 1250 q 453 1106 496 1147 q 353 1065 411 1065 m 665 1065 q 594 1092 622 1065 q 565 1161 565 1119 q 608 1263 565 1221 q 707 1304 650 1304 q 781 1277 753 1304 q 808 1206 808 1250 q 766 1106 808 1147 q 665 1065 724 1065 z "},"Ì":{"ha":447,"x_min":0,"x_max":554,"o":"m 482 983 l 308 0 l 0 0 l 174 983 l 482 983 m 554 1246 l 517 1040 l 181 1171 l 221 1399 l 554 1246 z "},"Í":{"ha":447,"x_min":0,"x_max":581,"o":"m 482 983 l 308 0 l 0 0 l 174 983 l 482 983 m 540 1171 l 157 1040 l 194 1246 l 581 1399 l 540 1171 z "},"Î":{"ha":447,"x_min":0,"x_max":601,"o":"m 482 983 l 308 0 l 0 0 l 174 983 l 482 983 m 358 1149 l 107 1026 l 142 1226 l 393 1344 l 601 1226 l 567 1026 l 358 1149 z "},"Ï":{"ha":447,"x_min":0,"x_max":642,"o":"m 482 983 l 308 0 l 0 0 l 174 983 l 482 983 m 186 1065 q 115 1092 143 1065 q 86 1161 86 1119 q 128 1263 86 1221 q 228 1304 171 1304 q 301 1277 274 1304 q 329 1206 329 1250 q 287 1106 329 1147 q 186 1065 244 1065 m 499 1065 q 427 1092 456 1065 q 399 1161 399 1119 q 441 1263 399 1221 q 540 1304 483 1304 q 614 1277 586 1304 q 642 1206 642 1250 q 599 1106 642 1147 q 499 1065 557 1065 z "},"Ð":{"ha":1032,"x_min":-3,"x_max":1017,"o":"m 583 983 q 817 934 719 983 q 965 797 914 885 q 1017 593 1017 708 q 1008 494 1017 547 q 901 242 983 354 q 691 65 818 129 q 410 0 564 0 l 0 0 l 65 372 l -3 372 l 40 617 l 108 617 l 174 983 l 583 983 m 696 494 q 700 546 700 522 q 649 671 700 628 q 508 714 599 714 l 435 714 l 418 617 l 599 617 l 556 372 l 374 372 l 357 275 l 431 275 q 606 332 535 275 q 696 494 678 389 z "},"Ñ":{"ha":1082,"x_min":0,"x_max":1117,"o":"m 943 0 l 635 0 l 396 494 l 308 0 l 0 0 l 174 983 l 482 983 l 719 481 l 808 983 l 1117 983 l 943 0 m 332 1054 q 444 1241 378 1183 q 599 1299 510 1299 q 658 1289 632 1299 q 717 1261 685 1279 q 757 1241 743 1247 q 788 1235 771 1235 q 860 1300 839 1235 l 1011 1300 q 901 1114 967 1171 q 746 1057 835 1057 q 686 1067 713 1057 q 628 1094 660 1076 q 586 1114 600 1108 q 556 1119 572 1119 q 482 1054 506 1119 l 332 1054 z "},"Ò":{"ha":1094,"x_min":65,"x_max":1065,"o":"m 482 -10 q 263 42 357 -10 q 117 187 168 93 q 65 401 65 281 q 138 713 65 578 q 342 924 211 849 q 644 1000 474 1000 q 867 949 772 1000 q 1014 806 963 899 q 1065 593 1065 714 q 992 281 1065 418 q 787 67 919 143 q 482 -10 654 -10 m 529 278 q 655 316 601 278 q 736 417 708 354 q 764 554 764 481 q 723 673 764 631 q 606 715 682 715 q 479 678 533 715 q 397 577 425 640 q 368 440 368 514 q 409 321 368 364 q 529 278 450 278 m 878 1246 l 840 1040 l 504 1171 l 544 1399 l 878 1246 z "},"Ó":{"ha":1094,"x_min":65,"x_max":1065,"o":"m 482 -10 q 263 42 357 -10 q 117 187 168 93 q 65 401 65 281 q 138 713 65 578 q 342 924 211 849 q 644 1000 474 1000 q 867 949 772 1000 q 1014 806 963 899 q 1065 593 1065 714 q 992 281 1065 418 q 787 67 919 143 q 482 -10 654 -10 m 529 278 q 655 316 601 278 q 736 417 708 354 q 764 554 764 481 q 723 673 764 631 q 606 715 682 715 q 479 678 533 715 q 397 577 425 640 q 368 440 368 514 q 409 321 368 364 q 529 278 450 278 m 864 1171 l 481 1040 l 518 1246 l 904 1399 l 864 1171 z "},"Ô":{"ha":1094,"x_min":65,"x_max":1065,"o":"m 482 -10 q 263 42 357 -10 q 117 187 168 93 q 65 401 65 281 q 138 713 65 578 q 342 924 211 849 q 644 1000 474 1000 q 867 949 772 1000 q 1014 806 963 899 q 1065 593 1065 714 q 992 281 1065 418 q 787 67 919 143 q 482 -10 654 -10 m 529 278 q 655 316 601 278 q 736 417 708 354 q 764 554 764 481 q 723 673 764 631 q 606 715 682 715 q 479 678 533 715 q 397 577 425 640 q 368 440 368 514 q 409 321 368 364 q 529 278 450 278 m 682 1149 l 431 1026 l 465 1226 l 717 1344 l 925 1226 l 890 1026 l 682 1149 z "},"Õ":{"ha":1094,"x_min":65,"x_max":1065,"o":"m 482 -10 q 263 42 357 -10 q 117 187 168 93 q 65 401 65 281 q 138 713 65 578 q 342 924 211 849 q 644 1000 474 1000 q 867 949 772 1000 q 1014 806 963 899 q 1065 593 1065 714 q 992 281 1065 418 q 787 67 919 143 q 482 -10 654 -10 m 529 278 q 655 316 601 278 q 736 417 708 354 q 764 554 764 481 q 723 673 764 631 q 606 715 682 715 q 479 678 533 715 q 397 577 425 640 q 368 440 368 514 q 409 321 368 364 q 529 278 450 278 m 340 1054 q 452 1241 386 1183 q 607 1299 518 1299 q 667 1289 640 1299 q 725 1261 693 1279 q 765 1241 751 1247 q 796 1235 779 1235 q 868 1300 847 1235 l 1019 1300 q 909 1114 975 1171 q 754 1057 843 1057 q 694 1067 721 1057 q 636 1094 668 1076 q 594 1114 608 1108 q 564 1119 581 1119 q 490 1054 514 1119 l 340 1054 z "},"Ö":{"ha":1094,"x_min":65,"x_max":1065,"o":"m 482 -10 q 263 42 357 -10 q 117 187 168 93 q 65 401 65 281 q 138 713 65 578 q 342 924 211 849 q 644 1000 474 1000 q 867 949 772 1000 q 1014 806 963 899 q 1065 593 1065 714 q 992 281 1065 418 q 787 67 919 143 q 482 -10 654 -10 m 529 278 q 655 316 601 278 q 736 417 708 354 q 764 554 764 481 q 723 673 764 631 q 606 715 682 715 q 479 678 533 715 q 397 577 425 640 q 368 440 368 514 q 409 321 368 364 q 529 278 450 278 m 510 1065 q 438 1092 467 1065 q 410 1161 410 1119 q 452 1263 410 1221 q 551 1304 494 1304 q 625 1277 597 1304 q 653 1206 653 1250 q 610 1106 653 1147 q 510 1065 568 1065 m 822 1065 q 751 1092 779 1065 q 722 1161 722 1119 q 765 1263 722 1221 q 864 1304 807 1304 q 938 1277 910 1304 q 965 1206 965 1250 q 923 1106 965 1147 q 822 1065 881 1065 z "},"×":{"ha":807,"x_min":13,"x_max":810,"o":"m 618 488 l 765 310 l 525 108 l 381 285 l 176 110 l 13 307 l 217 482 l 79 649 l 318 850 l 454 686 l 644 850 l 810 653 l 618 488 z "},"Ø":{"ha":1094,"x_min":-44,"x_max":1174,"o":"m 1000 826 q 1064 593 1064 728 q 991 281 1064 418 q 785 67 918 143 q 481 -10 653 -10 q 203 82 314 -10 l 117 1 l -44 1 l 129 164 q 64 401 64 267 q 137 713 64 578 q 341 924 210 849 q 643 1000 472 1000 q 928 908 817 1000 l 1014 989 l 1174 989 l 1000 826 m 367 440 q 372 390 367 411 l 697 693 q 604 715 657 715 q 478 678 532 715 q 395 577 424 640 q 367 440 367 514 m 763 554 q 758 600 763 579 l 436 300 q 528 278 471 278 q 653 316 600 278 q 735 417 707 354 q 763 554 763 481 z "},"Ù":{"ha":999,"x_min":61,"x_max":1039,"o":"m 475 983 l 378 429 q 374 383 374 407 q 399 309 374 336 q 478 282 424 282 q 583 322 544 282 q 635 429 622 361 l 732 983 l 1039 983 l 942 429 q 842 186 917 285 q 660 39 768 88 q 424 -10 553 -10 q 160 77 258 -10 q 61 325 61 164 q 71 429 61 376 l 168 983 l 475 983 m 829 1246 l 792 1040 l 456 1171 l 496 1399 l 829 1246 z "},"Ú":{"ha":999,"x_min":61,"x_max":1039,"o":"m 475 983 l 378 429 q 374 383 374 407 q 399 309 374 336 q 478 282 424 282 q 583 322 544 282 q 635 429 622 361 l 732 983 l 1039 983 l 942 429 q 842 186 917 285 q 660 39 768 88 q 424 -10 553 -10 q 160 77 258 -10 q 61 325 61 164 q 71 429 61 376 l 168 983 l 475 983 m 815 1171 l 432 1040 l 469 1246 l 856 1399 l 815 1171 z "},"Û":{"ha":999,"x_min":61,"x_max":1039,"o":"m 475 983 l 378 429 q 374 383 374 407 q 399 309 374 336 q 478 282 424 282 q 583 322 544 282 q 635 429 622 361 l 732 983 l 1039 983 l 942 429 q 842 186 917 285 q 660 39 768 88 q 424 -10 553 -10 q 160 77 258 -10 q 61 325 61 164 q 71 429 61 376 l 168 983 l 475 983 m 633 1149 l 382 1026 l 417 1226 l 668 1344 l 876 1226 l 842 1026 l 633 1149 z "},"Ü":{"ha":999,"x_min":61,"x_max":1039,"o":"m 475 983 l 378 429 q 374 383 374 407 q 399 309 374 336 q 478 282 424 282 q 583 322 544 282 q 635 429 622 361 l 732 983 l 1039 983 l 942 429 q 842 186 917 285 q 660 39 768 88 q 424 -10 553 -10 q 160 77 258 -10 q 61 325 61 164 q 71 429 61 376 l 168 983 l 475 983 m 461 1065 q 390 1092 418 1065 q 361 1161 361 1119 q 403 1263 361 1221 q 503 1304 446 1304 q 576 1277 549 1304 q 604 1206 604 1250 q 562 1106 604 1147 q 461 1065 519 1065 m 774 1065 q 702 1092 731 1065 q 674 1161 674 1119 q 716 1263 674 1221 q 815 1304 758 1304 q 889 1277 861 1304 q 917 1206 917 1250 q 874 1106 917 1147 q 774 1065 832 1065 z "},"Ý":{"ha":1014,"x_min":104,"x_max":1118,"o":"m 1118 983 l 644 299 l 592 0 l 283 0 l 336 299 l 104 983 l 457 983 l 553 635 l 771 983 l 1118 983 m 824 1171 l 440 1040 l 478 1246 l 864 1399 l 824 1171 z "},"Þ":{"ha":901,"x_min":0,"x_max":897,"o":"m 892 493 q 821 331 876 404 q 673 216 765 258 q 461 174 581 174 l 339 174 l 308 0 l 0 0 l 174 983 l 479 983 l 450 817 l 575 817 q 815 748 733 817 q 897 560 897 679 q 892 493 897 525 m 467 403 q 579 493 563 403 q 582 517 582 510 q 561 566 582 549 q 499 583 540 583 l 411 583 l 379 403 l 467 403 z "},"ß":{"ha":1074,"x_min":-7,"x_max":1050,"o":"m 117 707 q 277 967 147 874 q 604 1060 407 1060 q 788 1031 708 1060 q 911 949 868 1001 q 954 831 954 897 q 922 716 954 765 q 835 614 889 667 q 796 574 808 589 q 783 546 783 558 q 790 530 783 536 q 821 511 796 524 q 886 481 846 499 q 1013 396 975 442 q 1050 272 1050 350 q 1005 122 1050 188 q 878 22 960 57 q 690 -14 796 -14 q 457 57 538 -14 q 375 261 376 128 l 644 261 q 665 216 647 233 q 708 199 683 199 q 743 210 729 199 q 757 238 757 221 q 738 272 757 257 q 664 310 718 288 q 514 390 558 353 q 469 481 469 428 q 495 559 469 522 q 568 642 521 596 q 622 703 606 681 q 639 747 639 725 q 616 790 639 774 q 554 806 593 806 q 466 775 503 806 q 421 693 429 744 l 299 0 l -7 0 l 117 707 z "},"à":{"ha":944,"x_min":18,"x_max":944,"o":"m 28 392 q 108 606 50 515 q 249 745 167 697 q 422 793 331 793 q 549 762 499 793 q 618 676 599 731 l 638 783 l 944 783 l 806 0 l 499 0 l 518 107 q 418 22 479 53 q 281 -10 357 -10 q 90 69 163 -10 q 18 289 18 149 q 28 392 18 342 m 568 392 q 571 425 571 404 q 546 498 571 472 q 478 524 521 524 q 390 489 428 524 q 340 392 351 454 q 338 358 338 379 q 363 285 338 311 q 431 260 388 260 q 519 294 481 260 q 568 392 557 329 m 775 1042 l 738 836 l 401 967 l 442 1194 l 775 1042 z "},"á":{"ha":944,"x_min":18,"x_max":944,"o":"m 28 392 q 108 606 50 515 q 249 745 167 697 q 422 793 331 793 q 549 762 499 793 q 618 676 599 731 l 638 783 l 944 783 l 806 0 l 499 0 l 518 107 q 418 22 479 53 q 281 -10 357 -10 q 90 69 163 -10 q 18 289 18 149 q 28 392 18 342 m 568 392 q 571 425 571 404 q 546 498 571 472 q 478 524 521 524 q 390 489 428 524 q 340 392 351 454 q 338 358 338 379 q 363 285 338 311 q 431 260 388 260 q 519 294 481 260 q 568 392 557 329 m 761 967 l 378 836 l 415 1042 l 801 1194 l 761 967 z "},"â":{"ha":944,"x_min":18,"x_max":944,"o":"m 28 392 q 108 606 50 515 q 249 745 167 697 q 422 793 331 793 q 549 762 499 793 q 618 676 599 731 l 638 783 l 944 783 l 806 0 l 499 0 l 518 107 q 418 22 479 53 q 281 -10 357 -10 q 90 69 163 -10 q 18 289 18 149 q 28 392 18 342 m 568 392 q 571 425 571 404 q 546 498 571 472 q 478 524 521 524 q 390 489 428 524 q 340 392 351 454 q 338 358 338 379 q 363 285 338 311 q 431 260 388 260 q 519 294 481 260 q 568 392 557 329 m 579 944 l 328 822 l 363 1022 l 614 1140 l 822 1022 l 788 822 l 579 944 z "},"ã":{"ha":944,"x_min":18,"x_max":944,"o":"m 28 392 q 108 606 50 515 q 249 745 167 697 q 422 793 331 793 q 549 762 499 793 q 618 676 599 731 l 638 783 l 944 783 l 806 0 l 499 0 l 518 107 q 418 22 479 53 q 281 -10 357 -10 q 90 69 163 -10 q 18 289 18 149 q 28 392 18 342 m 568 392 q 571 425 571 404 q 546 498 571 472 q 478 524 521 524 q 390 489 428 524 q 340 392 351 454 q 338 358 338 379 q 363 285 338 311 q 431 260 388 260 q 519 294 481 260 q 568 392 557 329 m 238 850 q 349 1037 283 979 q 504 1094 415 1094 q 564 1085 538 1094 q 622 1057 590 1075 q 663 1037 649 1043 q 693 1031 676 1031 q 765 1096 744 1031 l 917 1096 q 806 910 872 967 q 651 853 740 853 q 592 863 618 853 q 533 890 565 872 q 492 910 506 904 q 461 915 478 915 q 388 850 411 915 l 238 850 z "},"ä":{"ha":944,"x_min":18,"x_max":944,"o":"m 28 392 q 108 606 50 515 q 249 745 167 697 q 422 793 331 793 q 549 762 499 793 q 618 676 599 731 l 638 783 l 944 783 l 806 0 l 499 0 l 518 107 q 418 22 479 53 q 281 -10 357 -10 q 90 69 163 -10 q 18 289 18 149 q 28 392 18 342 m 568 392 q 571 425 571 404 q 546 498 571 472 q 478 524 521 524 q 390 489 428 524 q 340 392 351 454 q 338 358 338 379 q 363 285 338 311 q 431 260 388 260 q 519 294 481 260 q 568 392 557 329 m 407 861 q 335 888 364 861 q 307 957 307 915 q 349 1058 307 1017 q 449 1100 392 1100 q 522 1073 494 1100 q 550 1001 550 1046 q 508 902 550 943 q 407 861 465 861 m 719 861 q 648 888 676 861 q 619 957 619 915 q 662 1058 619 1017 q 761 1100 704 1100 q 835 1073 807 1100 q 863 1001 863 1046 q 820 902 863 943 q 719 861 778 861 z "},"å":{"ha":944,"x_min":18,"x_max":944,"o":"m 28 392 q 108 606 50 515 q 249 745 167 697 q 422 793 331 793 q 549 762 499 793 q 618 676 599 731 l 638 783 l 944 783 l 806 0 l 499 0 l 518 107 q 418 22 479 53 q 281 -10 357 -10 q 90 69 163 -10 q 18 289 18 149 q 28 392 18 342 m 568 392 q 571 425 571 404 q 546 498 571 472 q 478 524 521 524 q 390 489 428 524 q 340 392 351 454 q 338 358 338 379 q 363 285 338 311 q 431 260 388 260 q 519 294 481 260 q 568 392 557 329 m 407 1007 q 483 1140 422 1090 q 622 1190 544 1190 q 734 1151 690 1190 q 778 1046 778 1113 q 747 928 778 979 q 666 851 717 878 q 558 824 615 824 q 447 863 489 824 q 404 969 404 901 q 407 1007 404 994 m 656 1021 q 640 1058 656 1044 q 601 1072 625 1072 q 547 1051 569 1072 q 525 994 525 1029 q 540 956 525 971 q 579 942 556 942 q 633 965 610 942 q 656 1021 656 988 z "},"æ":{"ha":1464,"x_min":18,"x_max":1447,"o":"m 1176 793 q 1374 715 1301 793 q 1447 499 1447 638 q 1438 399 1447 463 q 1419 338 1429 361 l 876 338 q 898 256 874 279 q 968 232 922 232 q 1074 282 1042 232 l 1400 282 q 1253 72 1351 154 q 1035 -10 1154 -10 q 899 21 951 -10 q 825 107 846 51 l 806 0 l 499 0 l 518 107 q 418 22 479 53 q 281 -10 357 -10 q 90 69 163 -10 q 18 289 18 149 q 28 392 18 342 q 108 606 50 515 q 249 745 167 697 q 422 793 331 793 q 549 762 499 793 q 618 676 599 731 l 638 783 l 944 783 l 925 676 q 1028 763 963 732 q 1176 793 1093 793 m 1136 464 q 1138 481 1138 469 q 1108 533 1138 515 q 1033 551 1079 551 q 900 464 933 551 l 1136 464 m 568 392 q 571 425 571 404 q 546 498 571 472 q 478 524 521 524 q 390 489 428 524 q 340 392 351 454 q 338 358 338 379 q 363 285 338 311 q 431 260 388 260 q 519 294 481 260 q 568 392 557 329 z "},"ç":{"ha":846,"x_min":19,"x_max":832,"o":"m 397 254 q 478 315 450 254 l 804 315 q 665 104 758 186 q 449 -1 571 22 l 440 -47 q 545 -79 497 -47 q 593 -181 593 -111 q 590 -217 593 -204 q 504 -347 574 -307 q 351 -386 435 -386 l 111 -386 l 139 -229 l 347 -229 q 375 -223 364 -229 q 388 -207 386 -217 l 388 -203 q 356 -186 388 -186 l 238 -186 l 271 -3 q 86 99 153 19 q 19 303 19 178 q 28 392 19 344 q 117 605 50 514 q 283 744 183 696 q 499 793 382 793 q 741 707 651 793 q 832 468 831 621 l 506 468 q 444 529 496 529 q 380 494 407 529 q 340 392 353 460 q 335 340 335 353 q 351 276 335 297 q 397 254 368 254 z "},"è":{"ha":856,"x_min":19,"x_max":838,"o":"m 499 793 q 746 710 654 793 q 838 485 838 628 q 829 399 838 444 q 814 338 819 353 l 319 338 q 318 314 318 329 q 385 236 318 236 q 465 282 436 236 l 792 282 q 696 133 761 199 q 542 28 631 67 q 357 -10 454 -10 q 110 73 201 -10 q 19 303 19 156 q 28 392 19 346 q 117 605 50 514 q 283 744 183 696 q 499 793 382 793 m 528 464 q 529 485 529 471 q 508 535 529 518 q 456 551 488 551 q 343 464 372 551 l 528 464 m 740 1042 l 703 836 l 367 967 l 407 1194 l 740 1042 z "},"é":{"ha":856,"x_min":19,"x_max":838,"o":"m 499 793 q 746 710 654 793 q 838 485 838 628 q 829 399 838 444 q 814 338 819 353 l 319 338 q 318 314 318 329 q 385 236 318 236 q 465 282 436 236 l 792 282 q 696 133 761 199 q 542 28 631 67 q 357 -10 454 -10 q 110 73 201 -10 q 19 303 19 156 q 28 392 19 346 q 117 605 50 514 q 283 744 183 696 q 499 793 382 793 m 528 464 q 529 485 529 471 q 508 535 529 518 q 456 551 488 551 q 343 464 372 551 l 528 464 m 726 967 l 343 836 l 381 1042 l 767 1194 l 726 967 z "},"ê":{"ha":856,"x_min":19,"x_max":838,"o":"m 499 793 q 746 710 654 793 q 838 485 838 628 q 829 399 838 444 q 814 338 819 353 l 319 338 q 318 314 318 329 q 385 236 318 236 q 465 282 436 236 l 792 282 q 696 133 761 199 q 542 28 631 67 q 357 -10 454 -10 q 110 73 201 -10 q 19 303 19 156 q 28 392 19 346 q 117 605 50 514 q 283 744 183 696 q 499 793 382 793 m 528 464 q 529 485 529 471 q 508 535 529 518 q 456 551 488 551 q 343 464 372 551 l 528 464 m 544 944 l 293 822 l 328 1022 l 579 1140 l 788 1022 l 753 822 l 544 944 z "},"ë":{"ha":856,"x_min":19,"x_max":838,"o":"m 499 793 q 746 710 654 793 q 838 485 838 628 q 829 399 838 444 q 814 338 819 353 l 319 338 q 318 314 318 329 q 385 236 318 236 q 465 282 436 236 l 792 282 q 696 133 761 199 q 542 28 631 67 q 357 -10 454 -10 q 110 73 201 -10 q 19 303 19 156 q 28 392 19 346 q 117 605 50 514 q 283 744 183 696 q 499 793 382 793 m 528 464 q 529 485 529 471 q 508 535 529 518 q 456 551 488 551 q 343 464 372 551 l 528 464 m 372 861 q 301 888 329 861 q 272 957 272 915 q 315 1058 272 1017 q 414 1100 357 1100 q 488 1073 460 1100 q 515 1001 515 1046 q 473 902 515 943 q 372 861 431 861 m 685 861 q 613 888 642 861 q 585 957 585 915 q 627 1058 585 1017 q 726 1100 669 1100 q 800 1073 772 1100 q 828 1001 828 1046 q 785 902 828 943 q 685 861 743 861 z "},"ì":{"ha":517,"x_min":35,"x_max":553,"o":"m 482 783 l 343 0 l 35 0 l 174 783 l 482 783 m 553 1042 l 515 836 l 179 967 l 219 1194 l 553 1042 z "},"í":{"ha":517,"x_min":35,"x_max":579,"o":"m 482 783 l 343 0 l 35 0 l 174 783 l 482 783 m 539 967 l 156 836 l 193 1042 l 579 1194 l 539 967 z "},"î":{"ha":517,"x_min":35,"x_max":600,"o":"m 482 783 l 343 0 l 35 0 l 174 783 l 482 783 m 357 944 l 106 822 l 140 1022 l 392 1140 l 600 1022 l 565 822 l 357 944 z "},"ï":{"ha":517,"x_min":35,"x_max":640,"o":"m 482 783 l 343 0 l 35 0 l 174 783 l 482 783 m 185 861 q 113 888 142 861 q 85 957 85 915 q 127 1058 85 1017 q 226 1100 169 1100 q 300 1073 272 1100 q 328 1001 328 1046 q 285 902 328 943 q 185 861 243 861 m 497 861 q 426 888 454 861 q 397 957 397 915 q 440 1058 397 1017 q 539 1100 482 1100 q 613 1073 585 1100 q 640 1001 640 1046 q 598 902 640 943 q 497 861 556 861 z "},"ð":{"ha":893,"x_min":21,"x_max":883,"o":"m 797 913 q 860 743 838 833 q 883 560 883 653 q 874 440 883 497 q 776 197 849 299 q 601 44 703 96 q 385 -8 499 -8 q 199 31 282 -8 q 69 145 117 71 q 21 319 21 219 q 28 394 21 350 q 117 604 50 515 q 281 741 183 693 q 488 789 378 789 q 596 778 533 789 q 568 850 586 813 l 442 817 l 460 917 l 524 935 q 456 1028 490 990 l 724 1028 l 749 994 l 846 1021 l 828 921 l 797 913 m 551 392 q 556 429 556 413 q 531 501 556 478 q 474 524 507 524 q 392 492 431 524 q 342 392 354 460 q 339 358 339 379 q 367 283 339 308 q 432 258 396 258 q 506 290 472 258 q 551 392 539 322 z "},"ñ":{"ha":968,"x_min":0,"x_max":968,"o":"m 688 789 q 863 723 801 789 q 924 542 924 657 q 915 454 924 500 l 835 0 l 528 0 l 601 415 q 604 446 604 438 q 580 513 604 489 q 513 536 556 536 q 428 504 463 536 q 382 417 393 472 l 308 0 l 0 0 l 139 783 l 447 783 l 426 665 q 539 755 472 721 q 688 789 606 789 m 289 850 q 401 1037 335 979 q 556 1094 467 1094 q 615 1085 589 1094 q 674 1057 642 1075 q 714 1037 700 1043 q 744 1031 728 1031 q 817 1096 796 1031 l 968 1096 q 858 910 924 967 q 703 853 792 853 q 643 863 669 853 q 585 890 617 872 q 543 910 557 904 q 513 915 529 915 q 439 850 463 915 l 289 850 z "},"ò":{"ha":883,"x_min":19,"x_max":864,"o":"m 371 -10 q 188 31 267 -10 q 64 145 108 71 q 19 318 19 219 q 84 563 19 454 q 261 732 149 671 q 513 793 374 793 q 696 752 617 793 q 819 637 775 711 q 864 464 864 563 q 800 219 864 328 q 624 51 736 111 q 371 -10 511 -10 m 418 257 q 513 311 478 257 q 547 432 547 365 q 524 503 547 479 q 465 526 501 526 q 371 472 406 526 q 336 351 336 418 q 358 281 336 304 q 418 257 381 257 m 736 1051 l 699 846 l 363 976 l 403 1204 l 736 1051 z "},"ó":{"ha":883,"x_min":19,"x_max":864,"o":"m 371 -10 q 188 31 267 -10 q 64 145 108 71 q 19 318 19 219 q 84 563 19 454 q 261 732 149 671 q 513 793 374 793 q 696 752 617 793 q 819 637 775 711 q 864 464 864 563 q 800 219 864 328 q 624 51 736 111 q 371 -10 511 -10 m 418 257 q 513 311 478 257 q 547 432 547 365 q 524 503 547 479 q 465 526 501 526 q 371 472 406 526 q 336 351 336 418 q 358 281 336 304 q 418 257 381 257 m 722 976 l 339 846 l 376 1051 l 763 1204 l 722 976 z "},"ô":{"ha":883,"x_min":19,"x_max":864,"o":"m 371 -10 q 188 31 267 -10 q 64 145 108 71 q 19 318 19 219 q 84 563 19 454 q 261 732 149 671 q 513 793 374 793 q 696 752 617 793 q 819 637 775 711 q 864 464 864 563 q 800 219 864 328 q 624 51 736 111 q 371 -10 511 -10 m 418 257 q 513 311 478 257 q 547 432 547 365 q 524 503 547 479 q 465 526 501 526 q 371 472 406 526 q 336 351 336 418 q 358 281 336 304 q 418 257 381 257 m 540 954 l 289 832 l 324 1032 l 575 1150 l 783 1032 l 749 832 l 540 954 z "},"õ":{"ha":883,"x_min":19,"x_max":878,"o":"m 371 -10 q 188 31 267 -10 q 64 145 108 71 q 19 318 19 219 q 84 563 19 454 q 261 732 149 671 q 513 793 374 793 q 696 752 617 793 q 819 637 775 711 q 864 464 864 563 q 800 219 864 328 q 624 51 736 111 q 371 -10 511 -10 m 418 257 q 513 311 478 257 q 547 432 547 365 q 524 503 547 479 q 465 526 501 526 q 371 472 406 526 q 336 351 336 418 q 358 281 336 304 q 418 257 381 257 m 199 860 q 310 1047 244 989 q 465 1104 376 1104 q 525 1094 499 1104 q 583 1067 551 1085 q 624 1047 610 1053 q 654 1040 638 1040 q 726 1106 706 1040 l 878 1106 q 767 919 833 976 q 613 863 701 863 q 553 872 579 863 q 494 900 526 882 q 453 919 467 914 q 422 925 439 925 q 349 860 372 925 l 199 860 z "},"ö":{"ha":883,"x_min":19,"x_max":864,"o":"m 371 -10 q 188 31 267 -10 q 64 145 108 71 q 19 318 19 219 q 84 563 19 454 q 261 732 149 671 q 513 793 374 793 q 696 752 617 793 q 819 637 775 711 q 864 464 864 563 q 800 219 864 328 q 624 51 736 111 q 371 -10 511 -10 m 418 257 q 513 311 478 257 q 547 432 547 365 q 524 503 547 479 q 465 526 501 526 q 371 472 406 526 q 336 351 336 418 q 358 281 336 304 q 418 257 381 257 m 368 871 q 297 898 325 871 q 268 967 268 925 q 310 1068 268 1026 q 410 1110 353 1110 q 483 1083 456 1110 q 511 1011 511 1056 q 469 912 511 953 q 368 871 426 871 m 681 871 q 609 898 638 871 q 581 967 581 925 q 623 1068 581 1026 q 722 1110 665 1110 q 796 1083 768 1110 q 824 1011 824 1056 q 781 912 824 953 q 681 871 739 871 z "},"÷":{"ha":765,"x_min":18,"x_max":776,"o":"m 440 649 q 327 683 368 649 q 286 774 286 718 q 313 864 286 822 q 388 930 340 906 q 494 954 436 954 q 606 919 565 954 q 646 828 646 883 q 619 738 646 779 q 546 673 593 697 q 440 649 499 649 m 776 613 l 728 333 l 18 333 l 67 613 l 776 613 m 288 -11 q 174 24 215 -11 q 133 114 133 58 q 160 204 133 163 q 235 270 188 246 q 342 294 283 294 q 453 259 413 294 q 493 168 493 224 q 467 78 493 119 q 393 13 440 38 q 288 -11 346 -11 z "},"ø":{"ha":863,"x_min":-69,"x_max":932,"o":"m 794 658 q 853 464 853 576 q 789 219 853 328 q 613 51 725 111 q 360 -10 500 -10 q 135 56 228 -10 l 74 0 l -69 0 l 67 124 q 8 318 8 206 q 73 563 8 454 q 250 732 138 671 q 501 793 363 793 q 726 726 636 793 l 789 783 l 932 783 l 794 658 m 454 526 q 363 475 397 526 q 325 360 328 424 l 496 517 q 454 526 478 526 m 407 257 q 499 308 464 257 q 536 422 533 358 l 365 267 q 407 257 383 257 z "},"ù":{"ha":968,"x_min":44,"x_max":968,"o":"m 968 783 l 829 0 l 521 0 l 542 118 q 429 28 496 63 q 281 -6 363 -6 q 106 60 167 -6 q 44 242 44 126 q 53 329 44 283 l 133 783 l 440 783 l 367 368 q 364 338 364 346 q 388 271 364 294 q 456 247 413 247 q 540 279 506 247 q 586 367 575 311 l 660 783 l 968 783 m 778 1042 l 740 836 l 404 967 l 444 1194 l 778 1042 z "},"ú":{"ha":968,"x_min":44,"x_max":968,"o":"m 968 783 l 829 0 l 521 0 l 542 118 q 429 28 496 63 q 281 -6 363 -6 q 106 60 167 -6 q 44 242 44 126 q 53 329 44 283 l 133 783 l 440 783 l 367 368 q 364 338 364 346 q 388 271 364 294 q 456 247 413 247 q 540 279 506 247 q 586 367 575 311 l 660 783 l 968 783 m 764 967 l 381 836 l 418 1042 l 804 1194 l 764 967 z "},"û":{"ha":968,"x_min":44,"x_max":968,"o":"m 968 783 l 829 0 l 521 0 l 542 118 q 429 28 496 63 q 281 -6 363 -6 q 106 60 167 -6 q 44 242 44 126 q 53 329 44 283 l 133 783 l 440 783 l 367 368 q 364 338 364 346 q 388 271 364 294 q 456 247 413 247 q 540 279 506 247 q 586 367 575 311 l 660 783 l 968 783 m 582 944 l 331 822 l 365 1022 l 617 1140 l 825 1022 l 790 822 l 582 944 z "},"ü":{"ha":968,"x_min":44,"x_max":968,"o":"m 968 783 l 829 0 l 521 0 l 542 118 q 429 28 496 63 q 281 -6 363 -6 q 106 60 167 -6 q 44 242 44 126 q 53 329 44 283 l 133 783 l 440 783 l 367 368 q 364 338 364 346 q 388 271 364 294 q 456 247 413 247 q 540 279 506 247 q 586 367 575 311 l 660 783 l 968 783 m 410 861 q 338 888 367 861 q 310 957 310 915 q 352 1058 310 1017 q 451 1100 394 1100 q 525 1073 497 1100 q 553 1001 553 1046 q 510 902 553 943 q 410 861 468 861 m 722 861 q 651 888 679 861 q 622 957 622 915 q 665 1058 622 1017 q 764 1100 707 1100 q 838 1073 810 1100 q 865 1001 865 1046 q 823 902 865 943 q 722 861 781 861 z "},"ý":{"ha":940,"x_min":-19,"x_max":1024,"o":"m 399 783 l 475 386 l 683 783 l 1024 783 l 318 -375 l -19 -375 l 250 39 l 56 783 l 399 783 m 750 967 l 367 836 l 404 1042 l 790 1194 l 750 967 z "},"þ":{"ha":944,"x_min":-65,"x_max":924,"o":"m 435 714 q 528 772 479 754 q 640 789 576 789 q 785 749 721 789 q 887 638 850 710 q 924 472 924 565 q 915 386 924 431 q 832 181 894 271 q 681 42 769 92 q 500 -8 593 -8 q 397 15 439 -8 q 324 86 356 38 l 243 -375 l -65 -375 l 182 1028 l 490 1028 l 435 714 m 603 386 q 606 421 606 399 q 578 497 606 471 q 515 522 550 522 q 431 491 472 522 q 378 392 390 460 q 375 358 375 379 q 403 284 375 308 q 468 260 432 260 q 551 290 511 260 q 603 386 592 319 z "},"ÿ":{"ha":940,"x_min":-19,"x_max":1024,"o":"m 399 783 l 475 386 l 683 783 l 1024 783 l 318 -375 l -19 -375 l 250 39 l 56 783 l 399 783 m 396 861 q 324 888 353 861 q 296 957 296 915 q 338 1058 296 1017 q 438 1100 381 1100 q 511 1073 483 1100 q 539 1001 539 1046 q 497 902 539 943 q 396 861 454 861 m 708 861 q 637 888 665 861 q 608 957 608 915 q 651 1058 608 1017 q 750 1100 693 1100 q 824 1073 796 1100 q 851 1001 851 1046 q 809 902 851 943 q 708 861 767 861 z "},"Ā":{"ha":1074,"x_min":-69,"x_max":1004,"o":"m 657 149 l 329 149 l 254 0 l -69 0 l 464 983 l 819 983 l 1004 0 l 679 0 l 657 149 m 624 381 l 583 654 l 446 381 l 624 381 m 993 1272 l 957 1068 l 358 1068 l 394 1272 l 993 1272 z "},"ā":{"ha":944,"x_min":18,"x_max":944,"o":"m 28 392 q 108 606 50 515 q 249 745 167 697 q 422 793 331 793 q 549 762 499 793 q 618 676 599 731 l 638 783 l 944 783 l 806 0 l 499 0 l 518 107 q 418 22 479 53 q 281 -10 357 -10 q 90 69 163 -10 q 18 289 18 149 q 28 392 18 342 m 568 392 q 571 425 571 404 q 546 498 571 472 q 478 524 521 524 q 390 489 428 524 q 340 392 351 454 q 338 358 338 379 q 363 285 338 311 q 431 260 388 260 q 519 294 481 260 q 568 392 557 329 m 901 1068 l 865 864 l 267 864 l 303 1068 l 901 1068 z "},"Ă":{"ha":1074,"x_min":-69,"x_max":1004,"o":"m 657 149 l 329 149 l 254 0 l -69 0 l 464 983 l 819 983 l 1004 0 l 679 0 l 657 149 m 624 381 l 583 654 l 446 381 l 624 381 m 963 1319 q 853 1110 939 1182 q 651 1038 767 1038 q 493 1091 553 1038 q 433 1249 433 1144 q 440 1319 433 1278 l 444 1343 l 588 1343 q 585 1321 585 1329 q 609 1273 585 1289 q 690 1257 633 1257 q 785 1278 756 1257 q 824 1343 815 1300 l 967 1343 l 963 1319 z "},"ă":{"ha":944,"x_min":18,"x_max":944,"o":"m 28 392 q 108 606 50 515 q 249 745 167 697 q 422 793 331 793 q 549 762 499 793 q 618 676 599 731 l 638 783 l 944 783 l 806 0 l 499 0 l 518 107 q 418 22 479 53 q 281 -10 357 -10 q 90 69 163 -10 q 18 289 18 149 q 28 392 18 342 m 568 392 q 571 425 571 404 q 546 498 571 472 q 478 524 521 524 q 390 489 428 524 q 340 392 351 454 q 338 358 338 379 q 363 285 338 311 q 431 260 388 260 q 519 294 481 260 q 568 392 557 329 m 871 1115 q 761 906 847 978 q 560 833 675 833 q 401 887 461 833 q 342 1044 342 940 q 349 1115 342 1074 l 353 1139 l 496 1139 q 493 1117 493 1125 q 517 1069 493 1085 q 599 1053 542 1053 q 694 1074 664 1053 q 732 1139 724 1096 l 875 1139 l 871 1115 z "},"Ą":{"ha":1074,"x_min":-69,"x_max":1004,"o":"m 819 -121 q 864 -149 819 -149 q 982 -126 911 -149 l 954 -287 q 792 -310 876 -310 q 648 -273 699 -310 q 597 -169 597 -236 q 600 -135 597 -147 q 626 -62 608 -94 q 679 0 644 -29 l 657 149 l 329 149 l 254 0 l -69 0 l 464 983 l 819 983 l 1004 0 l 939 -26 q 844 -77 868 -54 q 819 -121 819 -100 m 624 381 l 583 654 l 446 381 l 624 381 z "},"ą":{"ha":944,"x_min":18,"x_max":944,"o":"m 742 -29 q 651 -78 679 -57 q 619 -119 624 -99 q 628 -140 617 -132 q 661 -149 639 -149 q 783 -126 713 -149 l 756 -287 q 594 -310 678 -310 q 449 -274 500 -310 q 397 -174 397 -237 q 400 -143 397 -162 q 431 -66 408 -101 q 499 3 453 -31 l 518 107 q 418 22 479 53 q 281 -10 357 -10 q 90 69 163 -10 q 18 289 18 149 q 28 392 18 342 q 108 606 50 515 q 249 745 167 697 q 422 793 331 793 q 549 762 499 793 q 618 676 599 731 l 638 783 l 944 783 l 806 0 l 742 -29 m 431 260 q 519 294 481 260 q 568 392 557 329 q 571 425 571 404 q 546 498 571 472 q 478 524 521 524 q 390 489 428 524 q 340 392 351 454 q 338 358 338 379 q 363 285 338 311 q 431 260 388 260 z "},"Ć":{"ha":1046,"x_min":50,"x_max":1043,"o":"m 60 493 q 164 753 85 639 q 364 930 243 867 q 633 993 485 993 q 853 945 761 993 q 994 810 946 897 q 1042 606 1043 722 l 717 606 q 667 681 703 654 q 578 708 631 708 q 444 650 500 708 q 372 493 389 592 q 367 433 367 465 q 402 319 367 361 q 503 278 438 278 q 601 305 556 278 q 678 381 647 332 l 1003 381 q 882 176 961 264 q 694 41 803 89 q 457 -7 585 -7 q 236 41 328 -7 q 97 177 144 89 q 50 382 50 265 q 60 493 50 439 m 839 1171 l 456 1040 l 493 1246 l 879 1399 l 839 1171 z "},"ć":{"ha":846,"x_min":19,"x_max":832,"o":"m 28 392 q 117 605 50 514 q 283 744 183 696 q 499 793 382 793 q 741 707 651 793 q 832 468 831 621 l 506 468 q 444 529 496 529 q 380 494 407 529 q 340 392 353 460 q 335 340 335 353 q 351 276 335 297 q 397 254 368 254 q 478 315 450 254 l 804 315 q 630 76 750 163 q 357 -10 510 -10 q 110 73 201 -10 q 19 303 19 156 q 28 392 19 346 m 694 967 l 311 836 l 349 1042 l 735 1194 l 694 967 z "},"Ċ":{"ha":1046,"x_min":50,"x_max":1043,"o":"m 60 493 q 164 753 85 639 q 364 930 243 867 q 633 993 485 993 q 853 945 761 993 q 994 810 946 897 q 1042 606 1043 722 l 717 606 q 667 681 703 654 q 578 708 631 708 q 444 650 500 708 q 372 493 389 592 q 367 433 367 465 q 402 319 367 361 q 503 278 438 278 q 601 305 556 278 q 678 381 647 332 l 1003 381 q 882 176 961 264 q 694 41 803 89 q 457 -7 585 -7 q 236 41 328 -7 q 97 177 144 89 q 50 382 50 265 q 60 493 50 439 m 640 1065 q 569 1092 597 1065 q 540 1161 540 1119 q 583 1263 540 1221 q 682 1304 625 1304 q 756 1277 728 1304 q 783 1206 783 1250 q 741 1106 783 1147 q 640 1065 699 1065 z "},"ċ":{"ha":846,"x_min":19,"x_max":832,"o":"m 28 392 q 117 605 50 514 q 283 744 183 696 q 499 793 382 793 q 741 707 651 793 q 832 468 831 621 l 506 468 q 444 529 496 529 q 380 494 407 529 q 340 392 353 460 q 335 340 335 353 q 351 276 335 297 q 397 254 368 254 q 478 315 450 254 l 804 315 q 630 76 750 163 q 357 -10 510 -10 q 110 73 201 -10 q 19 303 19 156 q 28 392 19 346 m 496 861 q 424 888 453 861 q 396 957 396 915 q 438 1058 396 1017 q 538 1100 481 1100 q 611 1073 583 1100 q 639 1001 639 1046 q 597 902 639 943 q 496 861 554 861 z "},"Č":{"ha":1046,"x_min":50,"x_max":1043,"o":"m 60 493 q 164 753 85 639 q 364 930 243 867 q 633 993 485 993 q 853 945 761 993 q 994 810 946 897 q 1042 606 1043 722 l 717 606 q 667 681 703 654 q 578 708 631 708 q 444 650 500 708 q 372 493 389 592 q 367 433 367 465 q 402 319 367 361 q 503 278 438 278 q 601 305 556 278 q 678 381 647 332 l 1003 381 q 882 176 961 264 q 694 41 803 89 q 457 -7 585 -7 q 236 41 328 -7 q 97 177 144 89 q 50 382 50 265 q 60 493 50 439 m 886 1144 l 636 1026 l 426 1144 l 461 1344 l 671 1222 l 921 1344 l 886 1144 z "},"č":{"ha":846,"x_min":19,"x_max":832,"o":"m 28 392 q 117 605 50 514 q 283 744 183 696 q 499 793 382 793 q 741 707 651 793 q 832 468 831 621 l 506 468 q 444 529 496 529 q 380 494 407 529 q 340 392 353 460 q 335 340 335 353 q 351 276 335 297 q 397 254 368 254 q 478 315 450 254 l 804 315 q 630 76 750 163 q 357 -10 510 -10 q 110 73 201 -10 q 19 303 19 156 q 28 392 19 346 m 742 940 l 492 822 l 282 940 l 317 1140 l 526 1018 l 776 1140 l 742 940 z "},"Ď":{"ha":1032,"x_min":0,"x_max":1017,"o":"m 583 983 q 817 934 719 983 q 965 797 914 885 q 1017 593 1017 708 q 1008 494 1017 547 q 901 242 983 354 q 691 65 818 129 q 410 0 564 0 l 0 0 l 174 983 l 583 983 m 431 275 q 606 332 535 275 q 696 494 678 389 q 700 546 700 522 q 649 671 700 628 q 508 714 599 714 l 435 714 l 357 275 l 431 275 m 861 1144 l 611 1026 l 401 1144 l 436 1344 l 646 1222 l 896 1344 l 861 1144 z "},"ď":{"ha":1225,"x_min":18,"x_max":1299,"o":"m 28 392 q 108 606 50 515 q 249 745 167 697 q 422 793 331 793 q 548 762 499 793 q 617 676 597 731 l 679 1028 l 988 1028 l 806 0 l 497 0 l 517 107 q 417 22 478 53 q 281 -10 357 -10 q 90 69 163 -10 q 18 289 18 149 q 28 392 18 342 m 1288 1028 q 1299 928 1299 975 q 1290 842 1299 883 q 1201 665 1271 733 q 1018 596 1131 596 l 1038 706 q 1132 808 1114 706 l 1135 825 l 1035 825 l 1071 1028 l 1288 1028 m 568 392 q 571 425 571 404 q 546 498 571 472 q 478 524 521 524 q 390 489 428 524 q 340 392 351 454 q 338 358 338 379 q 363 285 338 311 q 431 260 388 260 q 519 294 481 260 q 568 392 557 329 z "},"Đ":{"ha":1032,"x_min":-3,"x_max":1017,"o":"m 583 983 q 817 934 719 983 q 965 797 914 885 q 1017 593 1017 708 q 1008 494 1017 547 q 901 242 983 354 q 691 65 818 129 q 410 0 564 0 l 0 0 l 65 372 l -3 372 l 40 617 l 108 617 l 174 983 l 583 983 m 696 494 q 700 546 700 522 q 649 671 700 628 q 508 714 599 714 l 435 714 l 418 617 l 599 617 l 556 372 l 374 372 l 357 275 l 431 275 q 606 332 535 275 q 696 494 678 389 z "},"đ":{"ha":978,"x_min":18,"x_max":1064,"o":"m 1040 822 l 951 822 l 806 0 l 497 0 l 517 107 q 417 22 478 53 q 281 -10 357 -10 q 90 69 163 -10 q 18 289 18 149 q 28 392 18 342 q 108 606 50 515 q 249 745 167 697 q 422 793 331 793 q 548 762 499 793 q 617 676 597 731 l 643 822 l 561 822 l 585 956 l 667 956 l 679 1028 l 988 1028 l 975 956 l 1064 956 l 1040 822 m 568 392 q 571 425 571 404 q 546 498 571 472 q 478 524 521 524 q 390 489 428 524 q 340 392 351 454 q 338 358 338 379 q 363 285 338 311 q 431 260 388 260 q 519 294 481 260 q 568 392 557 329 z "},"Ē":{"ha":772,"x_min":0,"x_max":847,"o":"m 439 739 l 418 617 l 724 617 l 682 385 l 376 385 l 351 246 l 699 246 l 656 0 l 0 0 l 174 983 l 829 983 l 786 739 l 439 739 m 847 1272 l 811 1068 l 213 1068 l 249 1272 l 847 1272 z "},"ē":{"ha":856,"x_min":19,"x_max":867,"o":"m 499 793 q 746 710 654 793 q 838 485 838 628 q 829 399 838 444 q 814 338 819 353 l 319 338 q 318 314 318 329 q 385 236 318 236 q 465 282 436 236 l 792 282 q 696 133 761 199 q 542 28 631 67 q 357 -10 454 -10 q 110 73 201 -10 q 19 303 19 156 q 28 392 19 346 q 117 605 50 514 q 283 744 183 696 q 499 793 382 793 m 528 464 q 529 485 529 471 q 508 535 529 518 q 456 551 488 551 q 343 464 372 551 l 528 464 m 867 1068 l 831 864 l 232 864 l 268 1068 l 867 1068 z "},"Ĕ":{"ha":772,"x_min":0,"x_max":829,"o":"m 439 739 l 418 617 l 724 617 l 682 385 l 376 385 l 351 246 l 699 246 l 656 0 l 0 0 l 174 983 l 829 983 l 786 739 l 439 739 m 817 1319 q 707 1110 793 1182 q 506 1038 621 1038 q 347 1091 407 1038 q 288 1249 288 1144 q 294 1319 288 1278 l 299 1343 l 442 1343 q 439 1321 439 1329 q 463 1273 439 1289 q 544 1257 488 1257 q 640 1278 610 1257 q 678 1343 669 1300 l 821 1343 l 817 1319 z "},"ĕ":{"ha":856,"x_min":19,"x_max":840,"o":"m 499 793 q 746 710 654 793 q 838 485 838 628 q 829 399 838 444 q 814 338 819 353 l 319 338 q 318 314 318 329 q 385 236 318 236 q 465 282 436 236 l 792 282 q 696 133 761 199 q 542 28 631 67 q 357 -10 454 -10 q 110 73 201 -10 q 19 303 19 156 q 28 392 19 346 q 117 605 50 514 q 283 744 183 696 q 499 793 382 793 m 528 464 q 529 485 529 471 q 508 535 529 518 q 456 551 488 551 q 343 464 372 551 l 528 464 m 836 1115 q 726 906 813 978 q 525 833 640 833 q 367 887 426 833 q 307 1044 307 940 q 314 1115 307 1074 l 318 1139 l 461 1139 q 458 1117 458 1125 q 483 1069 458 1085 q 564 1053 507 1053 q 659 1074 629 1053 q 697 1139 689 1096 l 840 1139 l 836 1115 z "},"Ė":{"ha":772,"x_min":0,"x_max":829,"o":"m 439 739 l 418 617 l 724 617 l 682 385 l 376 385 l 351 246 l 699 246 l 656 0 l 0 0 l 174 983 l 829 983 l 786 739 l 439 739 m 508 1065 q 437 1092 465 1065 q 408 1161 408 1119 q 451 1263 408 1221 q 550 1304 493 1304 q 624 1277 596 1304 q 651 1206 651 1250 q 609 1106 651 1147 q 508 1065 567 1065 z "},"ė":{"ha":856,"x_min":19,"x_max":838,"o":"m 499 793 q 746 710 654 793 q 838 485 838 628 q 829 399 838 444 q 814 338 819 353 l 319 338 q 318 314 318 329 q 385 236 318 236 q 465 282 436 236 l 792 282 q 696 133 761 199 q 542 28 631 67 q 357 -10 454 -10 q 110 73 201 -10 q 19 303 19 156 q 28 392 19 346 q 117 605 50 514 q 283 744 183 696 q 499 793 382 793 m 528 464 q 529 485 529 471 q 508 535 529 518 q 456 551 488 551 q 343 464 372 551 l 528 464 m 528 861 q 456 888 485 861 q 428 957 428 915 q 470 1058 428 1017 q 569 1100 513 1100 q 643 1073 615 1100 q 671 1001 671 1046 q 628 902 671 943 q 528 861 586 861 z "},"Ę":{"ha":772,"x_min":0,"x_max":829,"o":"m 439 739 l 418 617 l 724 617 l 682 385 l 376 385 l 351 246 l 699 246 l 656 0 l 592 -29 q 501 -78 529 -57 q 469 -119 474 -99 q 478 -140 467 -132 q 511 -149 489 -149 q 633 -126 563 -149 l 606 -287 q 444 -310 528 -310 q 299 -274 350 -310 q 247 -174 247 -237 q 250 -143 247 -162 q 280 -68 258 -103 q 346 0 301 -33 l 0 0 l 174 983 l 829 983 l 786 739 l 439 739 z "},"ę":{"ha":856,"x_min":19,"x_max":838,"o":"m 499 793 q 746 710 654 793 q 838 485 838 628 q 829 399 838 444 q 814 338 819 353 l 319 338 q 318 314 318 329 q 385 236 318 236 q 465 282 436 236 l 792 282 q 674 113 756 186 q 489 10 593 40 l 429 -18 q 339 -67 367 -46 q 307 -108 311 -87 q 315 -129 304 -121 q 349 -137 326 -137 q 471 -115 400 -137 l 443 -276 q 282 -299 365 -299 q 136 -262 188 -299 q 85 -162 85 -226 q 88 -132 85 -151 q 121 -52 96 -89 q 196 19 146 -15 q 65 127 111 54 q 19 303 19 200 q 28 392 19 344 q 117 605 50 514 q 283 744 183 696 q 499 793 382 793 m 528 464 q 529 485 529 471 q 508 535 529 518 q 456 551 488 551 q 343 464 372 551 l 528 464 z "},"Ě":{"ha":772,"x_min":0,"x_max":829,"o":"m 439 739 l 418 617 l 724 617 l 682 385 l 376 385 l 351 246 l 699 246 l 656 0 l 0 0 l 174 983 l 829 983 l 786 739 l 439 739 m 754 1144 l 504 1026 l 294 1144 l 329 1344 l 539 1222 l 789 1344 l 754 1144 z "},"ě":{"ha":856,"x_min":19,"x_max":838,"o":"m 499 793 q 746 710 654 793 q 838 485 838 628 q 829 399 838 444 q 814 338 819 353 l 319 338 q 318 314 318 329 q 385 236 318 236 q 465 282 436 236 l 792 282 q 696 133 761 199 q 542 28 631 67 q 357 -10 454 -10 q 110 73 201 -10 q 19 303 19 156 q 28 392 19 346 q 117 605 50 514 q 283 744 183 696 q 499 793 382 793 m 528 464 q 529 485 529 471 q 508 535 529 518 q 456 551 488 551 q 343 464 372 551 l 528 464 m 774 940 l 524 822 l 314 940 l 349 1140 l 558 1018 l 808 1140 l 774 940 z "},"Ğ":{"ha":1044,"x_min":50,"x_max":1046,"o":"m 60 493 q 165 753 85 639 q 369 930 246 867 q 644 993 493 993 q 865 951 774 993 q 1001 831 956 908 q 1042 647 1046 753 l 717 647 q 674 692 704 676 q 596 708 643 708 q 448 650 507 708 q 372 493 389 592 q 365 425 365 451 q 553 264 365 264 q 740 350 660 264 l 494 350 l 532 568 l 1033 568 l 979 260 q 769 72 896 150 q 471 -7 643 -7 q 243 42 338 -7 q 99 178 149 90 q 50 385 50 267 q 60 493 50 440 m 949 1319 q 839 1110 925 1182 q 638 1038 753 1038 q 479 1091 539 1038 q 419 1249 419 1144 q 426 1319 419 1278 l 431 1343 l 574 1343 q 571 1321 571 1329 q 595 1273 571 1289 q 676 1257 619 1257 q 772 1278 742 1257 q 810 1343 801 1300 l 953 1343 l 949 1319 z "},"ğ":{"ha":944,"x_min":-31,"x_max":944,"o":"m 422 793 q 549 762 499 793 q 618 676 599 731 l 638 783 l 944 783 l 808 14 q 733 -186 789 -96 q 577 -331 676 -276 q 338 -385 478 -385 q 64 -305 158 -385 q -31 -86 -31 -225 q -29 -57 -31 -67 l 274 -57 q 363 -118 276 -118 q 452 -90 417 -118 q 501 14 488 -62 l 518 107 q 418 22 479 53 q 281 -10 357 -10 q 90 69 163 -10 q 18 289 18 149 q 28 392 18 342 q 108 606 50 515 q 249 745 167 697 q 422 793 331 793 m 568 392 q 571 425 571 404 q 546 498 571 472 q 478 524 521 524 q 390 489 428 524 q 340 392 351 454 q 338 358 338 379 q 363 285 338 311 q 431 260 388 260 q 519 294 481 260 q 568 392 557 329 m 871 1115 q 761 906 847 978 q 560 833 675 833 q 401 887 461 833 q 342 1044 342 940 q 349 1115 342 1074 l 353 1139 l 496 1139 q 493 1117 493 1125 q 517 1069 493 1085 q 599 1053 542 1053 q 694 1074 664 1053 q 732 1139 724 1096 l 875 1139 l 871 1115 z "},"Ġ":{"ha":1044,"x_min":50,"x_max":1046,"o":"m 60 493 q 165 753 85 639 q 369 930 246 867 q 644 993 493 993 q 865 951 774 993 q 1001 831 956 908 q 1042 647 1046 753 l 717 647 q 674 692 704 676 q 596 708 643 708 q 448 650 507 708 q 372 493 389 592 q 365 425 365 451 q 553 264 365 264 q 740 350 660 264 l 494 350 l 532 568 l 1033 568 l 979 260 q 769 72 896 150 q 471 -7 643 -7 q 243 42 338 -7 q 99 178 149 90 q 50 385 50 267 q 60 493 50 440 m 640 1065 q 569 1092 597 1065 q 540 1161 540 1119 q 583 1263 540 1221 q 682 1304 625 1304 q 756 1277 728 1304 q 783 1206 783 1250 q 741 1106 783 1147 q 640 1065 699 1065 z "},"ġ":{"ha":944,"x_min":-31,"x_max":944,"o":"m 422 793 q 549 762 499 793 q 618 676 599 731 l 638 783 l 944 783 l 808 14 q 733 -186 789 -96 q 577 -331 676 -276 q 338 -385 478 -385 q 64 -305 158 -385 q -31 -86 -31 -225 q -29 -57 -31 -67 l 274 -57 q 363 -118 276 -118 q 452 -90 417 -118 q 501 14 488 -62 l 518 107 q 418 22 479 53 q 281 -10 357 -10 q 90 69 163 -10 q 18 289 18 149 q 28 392 18 342 q 108 606 50 515 q 249 745 167 697 q 422 793 331 793 m 568 392 q 571 425 571 404 q 546 498 571 472 q 478 524 521 524 q 390 489 428 524 q 340 392 351 454 q 338 358 338 379 q 363 285 338 311 q 431 260 388 260 q 519 294 481 260 q 568 392 557 329 m 563 861 q 491 888 519 861 q 463 957 463 915 q 505 1058 463 1017 q 604 1100 547 1100 q 678 1073 650 1100 q 706 1001 706 1046 q 663 902 706 943 q 563 861 621 861 z "},"Ģ":{"ha":1050,"x_min":50,"x_max":1046,"o":"m 60 493 q 165 753 85 639 q 369 930 246 867 q 644 993 493 993 q 865 951 774 993 q 1001 831 956 908 q 1042 647 1046 753 l 717 647 q 674 692 704 676 q 596 708 643 708 q 448 650 507 708 q 372 493 389 592 q 365 425 365 451 q 553 264 365 264 q 740 350 660 264 l 494 350 l 532 568 l 1033 568 l 979 260 q 769 72 896 150 q 471 -7 643 -7 q 243 42 338 -7 q 99 178 149 90 q 50 385 50 267 q 60 493 50 440 m 553 -49 q 564 -150 564 -104 q 556 -236 564 -194 q 466 -412 536 -343 q 283 -481 396 -481 l 303 -372 q 397 -268 379 -372 l 400 -253 l 300 -253 l 336 -49 l 553 -49 z "},"ģ":{"ha":944,"x_min":-31,"x_max":944,"o":"m 469 832 q 460 928 460 879 q 468 1019 460 976 q 557 1195 488 1126 q 739 1264 626 1264 l 719 1156 q 625 1051 643 1156 l 622 1036 l 722 1036 l 686 832 l 469 832 m 422 793 q 549 762 499 793 q 618 676 599 731 l 638 783 l 944 783 l 808 14 q 733 -186 789 -96 q 577 -331 676 -276 q 338 -385 478 -385 q 64 -305 158 -385 q -31 -86 -31 -225 q -29 -57 -31 -67 l 274 -57 q 363 -118 276 -118 q 452 -90 417 -118 q 501 14 488 -62 l 518 107 q 418 22 479 53 q 281 -10 357 -10 q 90 69 163 -10 q 18 289 18 149 q 28 392 18 342 q 108 606 50 515 q 249 745 167 697 q 422 793 331 793 m 568 392 q 571 425 571 404 q 546 498 571 472 q 478 524 521 524 q 390 489 428 524 q 340 392 351 454 q 338 358 338 379 q 363 285 338 311 q 431 260 388 260 q 519 294 481 260 q 568 392 557 329 z "},"Ĩ":{"ha":447,"x_min":0,"x_max":696,"o":"m 482 983 l 308 0 l 0 0 l 174 983 l 482 983 m 17 1054 q 128 1241 63 1183 q 283 1299 194 1299 q 343 1289 317 1299 q 401 1261 369 1279 q 442 1241 428 1247 q 472 1235 456 1235 q 544 1300 524 1235 l 696 1300 q 585 1114 651 1171 q 431 1057 519 1057 q 371 1067 397 1057 q 313 1094 344 1076 q 271 1114 285 1108 q 240 1119 257 1119 q 167 1054 190 1119 l 17 1054 z "},"ĩ":{"ha":517,"x_min":15,"x_max":694,"o":"m 482 783 l 343 0 l 35 0 l 174 783 l 482 783 m 15 850 q 127 1037 61 979 q 282 1094 193 1094 q 342 1085 315 1094 q 400 1057 368 1075 q 440 1037 426 1043 q 471 1031 454 1031 q 543 1096 522 1031 l 694 1096 q 584 910 650 967 q 429 853 518 853 q 369 863 396 853 q 311 890 343 872 q 269 910 283 904 q 239 915 256 915 q 165 850 189 915 l 15 850 z "},"Ī":{"ha":447,"x_min":0,"x_max":681,"o":"m 482 983 l 308 0 l 0 0 l 174 983 l 482 983 m 681 1272 l 644 1068 l 46 1068 l 82 1272 l 681 1272 z "},"ī":{"ha":517,"x_min":35,"x_max":679,"o":"m 482 783 l 343 0 l 35 0 l 174 783 l 482 783 m 679 1068 l 643 864 l 44 864 l 81 1068 l 679 1068 z "},"Ĭ":{"ha":447,"x_min":0,"x_max":654,"o":"m 482 983 l 308 0 l 0 0 l 174 983 l 482 983 m 650 1319 q 540 1110 626 1182 q 339 1038 454 1038 q 181 1091 240 1038 q 121 1249 121 1144 q 128 1319 121 1278 l 132 1343 l 275 1343 q 272 1321 272 1329 q 297 1273 272 1289 q 378 1257 321 1257 q 473 1278 443 1257 q 511 1343 503 1300 l 654 1343 l 650 1319 z "},"ĭ":{"ha":517,"x_min":35,"x_max":653,"o":"m 482 783 l 343 0 l 35 0 l 174 783 l 482 783 m 649 1115 q 539 906 625 978 q 338 833 453 833 q 179 887 239 833 q 119 1044 119 940 q 126 1115 119 1074 l 131 1139 l 274 1139 q 271 1117 271 1125 q 295 1069 271 1085 q 376 1053 319 1053 q 472 1074 442 1053 q 510 1139 501 1096 l 653 1139 l 649 1115 z "},"Į":{"ha":447,"x_min":-100,"x_max":482,"o":"m 244 -29 q 154 -78 182 -57 q 122 -119 126 -99 q 131 -140 119 -132 q 164 -149 142 -149 q 286 -126 215 -149 l 258 -287 q 97 -310 181 -310 q -49 -274 3 -310 q -100 -174 -100 -237 q -97 -143 -100 -162 q -67 -66 -89 -101 q 0 1 -44 -31 l 174 983 l 482 983 l 308 0 l 244 -29 z "},"į":{"ha":447,"x_min":-100,"x_max":511,"o":"m 358 1151 q 470 1116 429 1151 q 511 1024 511 1081 q 485 935 511 975 q 411 870 458 894 q 306 846 364 846 q 192 881 233 846 q 151 971 151 915 q 178 1061 151 1019 q 252 1127 204 1103 q 358 1151 300 1151 m 139 783 l 447 783 l 308 0 l 308 -1 l 244 -31 q 154 -79 182 -58 q 122 -121 126 -100 q 131 -142 119 -133 q 164 -150 142 -150 q 286 -128 215 -150 l 258 -289 q 97 -311 181 -311 q -49 -275 3 -311 q -100 -175 -100 -239 q -97 -144 -100 -164 q -67 -67 -89 -103 q 0 0 -44 -32 l 139 783 z "},"İ":{"ha":447,"x_min":0,"x_max":485,"o":"m 482 983 l 308 0 l 0 0 l 174 983 l 482 983 m 342 1065 q 270 1092 299 1065 q 242 1161 242 1119 q 284 1263 242 1221 q 383 1304 326 1304 q 457 1277 429 1304 q 485 1206 485 1250 q 442 1106 485 1147 q 342 1065 400 1065 z "},"ı":{"ha":517,"x_min":35,"x_max":482,"o":"m 482 783 l 343 0 l 35 0 l 174 783 l 482 783 z "},"Ķ":{"ha":1108,"x_min":0,"x_max":1113,"o":"m 689 513 l 961 0 l 594 0 l 383 428 l 308 0 l 0 0 l 174 983 l 482 983 l 408 569 l 764 983 l 1113 983 l 689 513 m 582 -49 q 592 -144 592 -96 q 583 -236 592 -193 q 494 -412 564 -343 q 313 -481 425 -481 l 332 -372 q 426 -268 408 -372 l 429 -253 l 329 -253 l 365 -49 l 582 -49 z "},"ķ":{"ha":939,"x_min":0,"x_max":1001,"o":"m 639 389 l 869 0 l 501 0 l 364 313 l 308 0 l 0 0 l 182 1028 l 490 1028 l 394 489 l 643 783 l 1001 783 l 639 389 m 503 -49 q 513 -144 513 -96 q 504 -236 513 -193 q 415 -412 485 -343 q 233 -481 346 -481 l 253 -372 q 347 -268 329 -372 l 350 -253 l 250 -253 l 286 -49 l 503 -49 z "},"Ĺ":{"ha":703,"x_min":0,"x_max":676,"o":"m 350 233 l 647 233 l 606 0 l 0 0 l 174 983 l 482 983 l 350 233 m 636 1171 l 253 1040 l 290 1246 l 676 1399 l 636 1171 z "},"ĺ":{"ha":447,"x_min":0,"x_max":588,"o":"m 490 1028 l 308 0 l 0 0 l 182 1028 l 490 1028 m 547 1211 l 164 1081 l 201 1286 l 588 1439 l 547 1211 z "},"Ļ":{"ha":710,"x_min":0,"x_max":647,"o":"m 350 233 l 647 233 l 606 0 l 0 0 l 174 983 l 482 983 l 350 233 m 431 -49 q 442 -150 442 -104 q 433 -236 442 -194 q 344 -412 414 -343 q 161 -481 274 -481 l 181 -372 q 275 -268 257 -372 l 278 -253 l 178 -253 l 214 -49 l 431 -49 z "},"ļ":{"ha":447,"x_min":-10,"x_max":490,"o":"m 490 1028 l 308 0 l 0 0 l 182 1028 l 490 1028 m 260 -49 q 269 -144 269 -96 q 261 -236 269 -193 q 172 -412 242 -343 q -10 -481 103 -481 l 10 -372 q 104 -268 86 -372 l 107 -253 l 7 -253 l 43 -49 l 260 -49 z "},"Ľ":{"ha":801,"x_min":0,"x_max":843,"o":"m 350 233 l 647 233 l 606 0 l 0 0 l 174 983 l 482 983 l 350 233 m 833 983 q 843 889 843 939 q 835 797 843 842 q 746 620 815 689 q 564 551 676 551 l 583 661 q 644 687 619 661 q 678 764 668 713 l 681 781 l 581 781 l 617 983 l 833 983 z "},"ľ":{"ha":717,"x_min":0,"x_max":790,"o":"m 490 1028 l 308 0 l 0 0 l 182 1028 l 490 1028 m 781 1028 q 790 933 790 983 q 782 842 790 886 q 693 665 763 733 q 511 596 624 596 l 531 706 q 591 731 567 706 q 625 808 615 757 l 628 825 l 528 825 l 564 1028 l 781 1028 z "},"Ŀ":{"ha":703,"x_min":0,"x_max":729,"o":"m 174 983 l 482 983 l 350 233 l 647 233 l 606 0 l 0 0 l 174 983 m 585 447 q 513 474 540 447 q 486 544 486 501 q 528 644 486 603 q 626 686 571 686 q 701 659 672 686 q 729 589 729 632 q 686 489 729 531 q 585 447 643 447 z "},"ŀ":{"ha":604,"x_min":0,"x_max":674,"o":"m 182 1028 l 490 1028 l 308 0 l 0 0 l 182 1028 m 529 399 q 458 426 485 399 q 431 496 431 453 q 473 596 431 554 q 571 638 515 638 q 645 610 617 638 q 674 540 674 583 q 631 440 674 482 q 529 399 588 399 z "},"Ł":{"ha":724,"x_min":-1,"x_max":668,"o":"m 668 233 l 626 0 l 21 0 l 79 328 l -1 307 l 51 607 l 132 628 l 194 983 l 503 983 l 456 713 l 564 742 l 511 442 l 403 413 l 371 233 l 668 233 z "},"ł":{"ha":517,"x_min":-1,"x_max":564,"o":"m 511 442 l 417 417 l 343 0 l 35 0 l 93 332 l -1 307 l 51 607 l 147 632 l 217 1028 l 525 1028 l 469 717 l 564 742 l 511 442 z "},"Ń":{"ha":1082,"x_min":0,"x_max":1117,"o":"m 943 0 l 635 0 l 396 494 l 308 0 l 0 0 l 174 983 l 482 983 l 719 481 l 808 983 l 1117 983 l 943 0 m 856 1171 l 472 1040 l 510 1246 l 896 1399 l 856 1171 z "},"ń":{"ha":968,"x_min":0,"x_max":924,"o":"m 688 789 q 863 723 801 789 q 924 542 924 657 q 915 454 924 500 l 835 0 l 528 0 l 601 415 q 604 446 604 438 q 580 513 604 489 q 513 536 556 536 q 428 504 463 536 q 382 417 393 472 l 308 0 l 0 0 l 139 783 l 447 783 l 426 665 q 539 755 472 721 q 688 789 606 789 m 813 967 l 429 836 l 467 1042 l 853 1194 l 813 967 z "},"Ņ":{"ha":1151,"x_min":0,"x_max":1117,"o":"m 943 0 l 635 0 l 396 494 l 308 0 l 0 0 l 174 983 l 482 983 l 719 481 l 808 983 l 1117 983 l 943 0 m 603 -49 q 614 -150 614 -104 q 606 -236 614 -194 q 516 -412 586 -343 q 333 -481 446 -481 l 353 -372 q 447 -268 429 -372 l 450 -253 l 350 -253 l 386 -49 l 603 -49 z "},"ņ":{"ha":968,"x_min":0,"x_max":924,"o":"m 688 789 q 863 723 801 789 q 924 542 924 657 q 915 454 924 500 l 835 0 l 528 0 l 601 415 q 604 446 604 438 q 580 513 604 489 q 513 536 556 536 q 428 504 463 536 q 382 417 393 472 l 308 0 l 0 0 l 139 783 l 447 783 l 426 665 q 539 755 472 721 q 688 789 606 789 m 546 -49 q 556 -144 556 -96 q 547 -236 556 -193 q 458 -412 528 -343 q 276 -481 389 -481 l 296 -372 q 390 -268 372 -372 l 393 -253 l 293 -253 l 329 -49 l 546 -49 z "},"Ň":{"ha":1082,"x_min":0,"x_max":1117,"o":"m 943 0 l 635 0 l 396 494 l 308 0 l 0 0 l 174 983 l 482 983 l 719 481 l 808 983 l 1117 983 l 943 0 m 903 1144 l 653 1026 l 443 1144 l 478 1344 l 688 1222 l 938 1344 l 903 1144 z "},"ň":{"ha":968,"x_min":0,"x_max":924,"o":"m 688 789 q 863 723 801 789 q 924 542 924 657 q 915 454 924 500 l 835 0 l 528 0 l 601 415 q 604 446 604 438 q 580 513 604 489 q 513 536 556 536 q 428 504 463 536 q 382 417 393 472 l 308 0 l 0 0 l 139 783 l 447 783 l 426 665 q 539 755 472 721 q 688 789 606 789 m 860 940 l 610 822 l 400 940 l 435 1140 l 644 1018 l 894 1140 l 860 940 z "},"Ō":{"ha":1094,"x_min":65,"x_max":1065,"o":"m 482 -10 q 263 42 357 -10 q 117 187 168 93 q 65 401 65 281 q 138 713 65 578 q 342 924 211 849 q 644 1000 474 1000 q 867 949 772 1000 q 1014 806 963 899 q 1065 593 1065 714 q 992 281 1065 418 q 787 67 919 143 q 482 -10 654 -10 m 529 278 q 655 316 601 278 q 736 417 708 354 q 764 554 764 481 q 723 673 764 631 q 606 715 682 715 q 479 678 533 715 q 397 577 425 640 q 368 440 368 514 q 409 321 368 364 q 529 278 450 278 m 1004 1272 l 968 1068 l 369 1068 l 406 1272 l 1004 1272 z "},"ō":{"ha":883,"x_min":19,"x_max":864,"o":"m 371 -10 q 188 31 267 -10 q 64 145 108 71 q 19 318 19 219 q 84 563 19 454 q 261 732 149 671 q 513 793 374 793 q 696 752 617 793 q 819 637 775 711 q 864 464 864 563 q 800 219 864 328 q 624 51 736 111 q 371 -10 511 -10 m 418 257 q 513 311 478 257 q 547 432 547 365 q 524 503 547 479 q 465 526 501 526 q 371 472 406 526 q 336 351 336 418 q 358 281 336 304 q 418 257 381 257 m 863 1078 l 826 874 l 228 874 l 264 1078 l 863 1078 z "},"Ŏ":{"ha":1094,"x_min":65,"x_max":1065,"o":"m 482 -10 q 263 42 357 -10 q 117 187 168 93 q 65 401 65 281 q 138 713 65 578 q 342 924 211 849 q 644 1000 474 1000 q 867 949 772 1000 q 1014 806 963 899 q 1065 593 1065 714 q 992 281 1065 418 q 787 67 919 143 q 482 -10 654 -10 m 529 278 q 655 316 601 278 q 736 417 708 354 q 764 554 764 481 q 723 673 764 631 q 606 715 682 715 q 479 678 533 715 q 397 577 425 640 q 368 440 368 514 q 409 321 368 364 q 529 278 450 278 m 974 1319 q 864 1110 950 1182 q 663 1038 778 1038 q 504 1091 564 1038 q 444 1249 444 1144 q 451 1319 444 1278 l 456 1343 l 599 1343 q 596 1321 596 1329 q 620 1273 596 1289 q 701 1257 644 1257 q 797 1278 767 1257 q 835 1343 826 1300 l 978 1343 l 974 1319 z "},"ŏ":{"ha":883,"x_min":19,"x_max":864,"o":"m 371 -10 q 188 31 267 -10 q 64 145 108 71 q 19 318 19 219 q 84 563 19 454 q 261 732 149 671 q 513 793 374 793 q 696 752 617 793 q 819 637 775 711 q 864 464 864 563 q 800 219 864 328 q 624 51 736 111 q 371 -10 511 -10 m 418 257 q 513 311 478 257 q 547 432 547 365 q 524 503 547 479 q 465 526 501 526 q 371 472 406 526 q 336 351 336 418 q 358 281 336 304 q 418 257 381 257 m 832 1125 q 722 915 808 988 q 521 843 636 843 q 363 897 422 843 q 303 1054 303 950 q 310 1125 303 1083 l 314 1149 l 457 1149 q 454 1126 454 1135 q 478 1078 454 1094 q 560 1063 503 1063 q 655 1084 625 1063 q 693 1149 685 1106 l 836 1149 l 832 1125 z "},"Ő":{"ha":1094,"x_min":65,"x_max":1140,"o":"m 482 -10 q 263 42 357 -10 q 117 187 168 93 q 65 401 65 281 q 138 713 65 578 q 342 924 211 849 q 644 1000 474 1000 q 867 949 772 1000 q 1014 806 963 899 q 1065 593 1065 714 q 992 281 1065 418 q 787 67 919 143 q 482 -10 654 -10 m 529 278 q 655 316 601 278 q 736 417 708 354 q 764 554 764 481 q 723 673 764 631 q 606 715 682 715 q 479 678 533 715 q 397 577 425 640 q 368 440 368 514 q 409 321 368 364 q 529 278 450 278 m 581 1039 l 396 1039 l 567 1378 l 800 1378 l 581 1039 m 886 1039 l 701 1039 l 907 1378 l 1140 1378 l 886 1039 z "},"ő":{"ha":883,"x_min":19,"x_max":999,"o":"m 371 -10 q 188 31 267 -10 q 64 145 108 71 q 19 318 19 219 q 84 563 19 454 q 261 732 149 671 q 513 793 374 793 q 696 752 617 793 q 819 637 775 711 q 864 464 864 563 q 800 219 864 328 q 624 51 736 111 q 371 -10 511 -10 m 418 257 q 513 311 478 257 q 547 432 547 365 q 524 503 547 479 q 465 526 501 526 q 371 472 406 526 q 336 351 336 418 q 358 281 336 304 q 418 257 381 257 m 439 844 l 254 844 l 425 1183 l 658 1183 l 439 844 m 744 844 l 560 844 l 765 1183 l 999 1183 l 744 844 z "},"Œ":{"ha":1467,"x_min":60,"x_max":1524,"o":"m 1113 617 l 1418 617 l 1376 385 l 1071 385 l 1046 246 l 1393 246 l 1350 0 l 694 0 l 704 51 q 463 -17 613 -10 q 250 33 342 -17 q 109 174 158 83 q 60 385 60 265 q 69 492 60 439 q 178 755 96 639 q 381 935 260 871 q 642 1000 503 1000 q 763 983 706 1000 q 860 932 821 965 l 868 983 l 1524 983 l 1481 739 l 1133 739 l 1113 617 m 383 492 q 378 429 378 463 q 418 310 378 353 q 536 268 458 268 q 688 328 628 268 q 768 492 749 388 q 774 551 774 519 q 733 672 774 629 q 615 715 692 715 q 462 656 522 715 q 383 492 401 596 z "},"œ":{"ha":1419,"x_min":19,"x_max":1365,"o":"m 1026 793 q 1274 710 1182 793 q 1365 485 1365 628 q 1357 399 1365 444 q 1339 338 1349 361 l 847 338 q 846 310 846 328 q 863 252 846 268 q 913 236 881 236 q 993 282 964 236 l 1319 282 q 1224 133 1289 199 q 1070 28 1158 67 q 885 -10 982 -10 q 644 68 738 -10 q 516 10 586 31 q 371 -10 446 -10 q 187 28 267 -10 q 63 138 107 67 q 19 308 19 210 q 28 392 19 349 q 119 605 50 514 q 292 744 189 696 q 513 793 394 793 q 758 715 664 793 q 1026 793 878 793 m 1056 464 q 1057 485 1057 471 q 1036 535 1057 518 q 983 551 1015 551 q 871 464 900 551 l 1056 464 m 543 392 q 547 432 547 413 q 524 503 547 479 q 465 526 501 526 q 388 492 422 526 q 340 392 353 458 q 336 351 336 369 q 358 281 336 304 q 418 257 381 257 q 496 291 461 257 q 543 392 531 325 z "},"Ŕ":{"ha":931,"x_min":0,"x_max":954,"o":"m 632 983 q 872 913 790 983 q 954 724 954 842 q 949 661 954 689 q 863 485 931 561 q 686 376 794 410 l 833 0 l 494 0 l 371 353 l 308 0 l 0 0 l 174 983 l 632 983 m 407 558 l 529 558 q 599 578 574 558 q 633 642 625 599 q 635 660 635 649 q 615 708 635 690 q 558 725 596 725 l 436 725 l 407 558 m 767 1171 l 383 1040 l 421 1246 l 807 1399 l 767 1171 z "},"ŕ":{"ha":649,"x_min":0,"x_max":704,"o":"m 422 639 q 556 748 482 707 q 704 789 631 789 l 647 460 l 560 460 q 426 429 472 460 q 365 321 379 399 l 308 0 l 0 0 l 139 783 l 447 783 l 422 639 m 661 967 l 278 836 l 315 1042 l 701 1194 l 661 967 z "},"Ŗ":{"ha":974,"x_min":0,"x_max":954,"o":"m 632 983 q 872 913 790 983 q 954 724 954 842 q 949 661 954 689 q 863 485 931 561 q 686 376 794 410 l 833 0 l 494 0 l 371 353 l 308 0 l 0 0 l 174 983 l 632 983 m 407 558 l 529 558 q 599 578 574 558 q 633 642 625 599 q 635 660 635 649 q 615 708 635 690 q 558 725 596 725 l 436 725 l 407 558 m 514 -49 q 525 -150 525 -104 q 517 -236 525 -194 q 427 -412 497 -343 q 244 -481 357 -481 l 264 -372 q 358 -268 340 -372 l 361 -253 l 261 -253 l 297 -49 l 514 -49 z "},"ŗ":{"ha":649,"x_min":-19,"x_max":704,"o":"m 422 639 q 556 748 482 707 q 704 789 631 789 l 647 460 l 560 460 q 426 429 472 460 q 365 321 379 399 l 308 0 l 0 0 l 139 783 l 447 783 l 422 639 m 250 -49 q 260 -144 260 -96 q 251 -236 260 -193 q 163 -412 232 -343 q -19 -481 93 -481 l 0 -372 q 94 -268 76 -372 l 97 -253 l -3 -253 l 33 -49 l 250 -49 z "},"Ř":{"ha":931,"x_min":0,"x_max":954,"o":"m 632 983 q 872 913 790 983 q 954 724 954 842 q 949 661 954 689 q 863 485 931 561 q 686 376 794 410 l 833 0 l 494 0 l 371 353 l 308 0 l 0 0 l 174 983 l 632 983 m 407 558 l 529 558 q 599 578 574 558 q 633 642 625 599 q 635 660 635 649 q 615 708 635 690 q 558 725 596 725 l 436 725 l 407 558 m 814 1144 l 564 1026 l 354 1144 l 389 1344 l 599 1222 l 849 1344 l 814 1144 z "},"ř":{"ha":649,"x_min":0,"x_max":743,"o":"m 422 639 q 556 748 482 707 q 704 789 631 789 l 647 460 l 560 460 q 426 429 472 460 q 365 321 379 399 l 308 0 l 0 0 l 139 783 l 447 783 l 422 639 m 708 940 l 458 822 l 249 940 l 283 1140 l 493 1018 l 743 1140 l 708 940 z "},"Ś":{"ha":892,"x_min":26,"x_max":874,"o":"m 422 -10 q 134 63 242 -10 q 26 274 26 135 q 29 315 26 288 l 357 315 q 370 251 353 272 q 428 231 388 231 q 469 243 453 231 q 486 279 486 256 q 453 335 486 313 q 349 388 421 357 q 219 451 269 421 q 131 535 168 482 q 93 667 93 588 q 145 847 93 771 q 290 961 197 922 q 503 1000 383 1000 q 694 967 610 1000 q 826 870 778 933 q 874 721 874 807 q 871 682 874 710 l 539 682 q 542 704 542 699 q 526 745 542 731 q 485 760 511 760 q 446 746 461 760 q 431 710 431 732 q 463 656 431 679 q 564 600 494 633 q 695 529 643 563 q 785 441 747 496 q 822 307 822 386 q 774 144 822 217 q 636 31 726 72 q 422 -10 546 -10 m 774 1171 l 390 1040 l 428 1246 l 814 1399 l 774 1171 z "},"ś":{"ha":804,"x_min":6,"x_max":747,"o":"m 358 -10 q 176 21 256 -10 q 51 106 96 51 q 6 232 6 161 q 8 271 6 258 l 304 271 q 324 219 303 236 q 383 203 346 203 q 424 214 407 203 q 442 240 442 225 q 414 276 442 263 q 322 306 386 289 q 188 351 242 328 q 95 422 135 375 q 56 543 56 468 q 98 670 56 613 q 217 760 140 728 q 396 793 294 793 q 587 756 507 793 q 707 654 667 718 q 744 513 747 590 l 471 513 q 451 562 471 544 q 394 579 432 579 q 355 569 371 579 q 339 543 339 560 q 367 509 339 522 q 461 475 394 496 q 597 428 543 451 q 690 360 650 406 q 731 246 731 315 q 627 58 731 125 q 358 -10 524 -10 m 699 967 l 315 836 l 353 1042 l 739 1194 l 699 967 z "},"Ş":{"ha":892,"x_min":26,"x_max":874,"o":"m 539 682 q 542 704 542 699 q 526 745 542 731 q 485 760 511 760 q 446 746 461 760 q 431 710 431 732 q 463 656 431 679 q 564 600 494 633 q 695 529 643 563 q 785 441 747 496 q 822 307 822 386 q 783 158 822 225 q 668 49 743 92 q 490 -6 593 6 l 483 -47 q 588 -79 540 -47 q 636 -181 636 -111 q 633 -217 636 -204 q 547 -347 617 -307 q 394 -386 478 -386 l 154 -386 l 182 -229 l 390 -229 q 418 -223 407 -229 q 431 -207 429 -217 l 431 -203 q 399 -186 431 -186 l 281 -186 l 314 -3 q 103 87 179 17 q 26 274 26 157 q 29 315 26 288 l 357 315 q 370 251 353 272 q 428 231 388 231 q 469 243 453 231 q 486 279 486 256 q 453 335 486 313 q 349 388 421 357 q 219 451 269 421 q 131 535 168 482 q 93 667 93 588 q 145 847 93 771 q 290 961 197 922 q 503 1000 383 1000 q 694 967 610 1000 q 826 870 778 933 q 874 721 874 807 q 871 682 874 710 l 539 682 z "},"ş":{"ha":804,"x_min":6,"x_max":747,"o":"m 394 579 q 355 569 371 579 q 339 543 339 560 q 367 509 339 522 q 461 475 394 496 q 597 428 543 451 q 690 360 650 406 q 731 246 731 315 q 655 78 731 143 q 453 -3 579 14 l 444 -47 q 549 -79 501 -47 q 597 -181 597 -111 q 594 -217 597 -204 q 508 -347 578 -307 q 356 -386 439 -386 l 115 -386 l 143 -229 l 351 -229 q 379 -223 368 -229 q 392 -207 390 -217 l 392 -203 q 360 -186 392 -186 l 242 -186 l 274 -4 q 78 76 151 13 q 6 233 6 140 q 8 271 6 258 l 304 271 q 324 219 303 236 q 383 203 346 203 q 424 214 407 203 q 442 240 442 225 q 414 276 442 263 q 322 306 386 289 q 188 351 242 328 q 95 422 135 375 q 56 543 56 468 q 98 670 56 613 q 217 760 140 728 q 396 793 294 793 q 587 756 507 793 q 707 654 667 718 q 744 513 747 590 l 471 513 q 451 562 471 544 q 394 579 432 579 z "},"Š":{"ha":892,"x_min":26,"x_max":874,"o":"m 422 -10 q 134 63 242 -10 q 26 274 26 135 q 29 315 26 288 l 357 315 q 370 251 353 272 q 428 231 388 231 q 469 243 453 231 q 486 279 486 256 q 453 335 486 313 q 349 388 421 357 q 219 451 269 421 q 131 535 168 482 q 93 667 93 588 q 145 847 93 771 q 290 961 197 922 q 503 1000 383 1000 q 694 967 610 1000 q 826 870 778 933 q 874 721 874 807 q 871 682 874 710 l 539 682 q 542 704 542 699 q 526 745 542 731 q 485 760 511 760 q 446 746 461 760 q 431 710 431 732 q 463 656 431 679 q 564 600 494 633 q 695 529 643 563 q 785 441 747 496 q 822 307 822 386 q 774 144 822 217 q 636 31 726 72 q 422 -10 546 -10 m 821 1144 l 571 1026 l 361 1144 l 396 1344 l 606 1222 l 856 1344 l 821 1144 z "},"š":{"ha":804,"x_min":6,"x_max":781,"o":"m 358 -10 q 176 21 256 -10 q 51 106 96 51 q 6 232 6 161 q 8 271 6 258 l 304 271 q 324 219 303 236 q 383 203 346 203 q 424 214 407 203 q 442 240 442 225 q 414 276 442 263 q 322 306 386 289 q 188 351 242 328 q 95 422 135 375 q 56 543 56 468 q 98 670 56 613 q 217 760 140 728 q 396 793 294 793 q 587 756 507 793 q 707 654 667 718 q 744 513 747 590 l 471 513 q 451 562 471 544 q 394 579 432 579 q 355 569 371 579 q 339 543 339 560 q 367 509 339 522 q 461 475 394 496 q 597 428 543 451 q 690 360 650 406 q 731 246 731 315 q 627 58 731 125 q 358 -10 524 -10 m 746 940 l 496 822 l 286 940 l 321 1140 l 531 1018 l 781 1140 l 746 940 z "},"Ţ":{"ha":856,"x_min":75,"x_max":946,"o":"m 946 983 l 903 739 l 642 739 l 511 0 l 203 0 l 333 739 l 75 739 l 118 983 l 946 983 m 446 -47 q 551 -79 503 -47 q 599 -181 599 -111 q 596 -217 599 -204 q 510 -347 579 -307 q 357 -386 440 -386 l 117 -386 l 144 -229 l 353 -229 q 381 -223 369 -229 q 393 -207 392 -217 l 393 -203 q 361 -186 393 -186 l 243 -186 l 276 0 l 454 0 l 446 -47 z "},"ţ":{"ha":606,"x_min":29,"x_max":624,"o":"m 413 315 q 411 301 411 310 q 461 263 411 263 l 535 263 l 488 0 l 371 0 l 365 0 l 358 -37 q 463 -69 415 -37 q 511 -171 511 -101 q 508 -207 511 -194 q 422 -337 492 -297 q 269 -376 353 -376 l 29 -376 l 57 -219 l 265 -219 q 293 -213 282 -219 q 306 -197 304 -207 l 306 -193 q 274 -176 306 -176 l 156 -176 l 193 39 q 97 232 97 94 q 106 321 97 271 l 142 526 l 44 526 l 90 783 l 188 783 l 221 972 l 529 972 l 496 783 l 624 783 l 578 526 l 450 526 l 413 315 z "},"Ť":{"ha":856,"x_min":75,"x_max":946,"o":"m 946 983 l 903 739 l 642 739 l 511 0 l 203 0 l 333 739 l 75 739 l 118 983 l 946 983 m 783 1144 l 533 1026 l 324 1144 l 358 1344 l 568 1222 l 818 1344 l 783 1144 z "},"ť":{"ha":606,"x_min":44,"x_max":847,"o":"m 835 1236 q 847 1135 847 1181 q 840 1064 847 1106 q 756 906 824 967 q 574 846 688 846 l 593 956 q 678 1010 669 956 l 682 1033 l 582 1033 l 618 1236 l 835 1236 m 496 783 l 624 783 l 578 526 l 450 526 l 413 315 q 411 301 411 310 q 461 263 411 263 l 535 263 l 488 0 l 371 0 q 97 232 97 0 q 106 321 97 274 l 142 526 l 44 526 l 90 783 l 188 783 l 221 972 l 529 972 l 496 783 z "},"Ũ":{"ha":999,"x_min":61,"x_max":1039,"o":"m 475 983 l 378 429 q 374 383 374 407 q 399 309 374 336 q 478 282 424 282 q 583 322 544 282 q 635 429 622 361 l 732 983 l 1039 983 l 942 429 q 842 186 917 285 q 660 39 768 88 q 424 -10 553 -10 q 160 77 258 -10 q 61 325 61 164 q 71 429 61 376 l 168 983 l 475 983 m 292 1054 q 403 1241 338 1183 q 558 1299 469 1299 q 618 1289 592 1299 q 676 1261 644 1279 q 717 1241 703 1247 q 747 1235 731 1235 q 819 1300 799 1235 l 971 1300 q 860 1114 926 1171 q 706 1057 794 1057 q 646 1067 672 1057 q 588 1094 619 1076 q 546 1114 560 1108 q 515 1119 532 1119 q 442 1054 465 1119 l 292 1054 z "},"ũ":{"ha":968,"x_min":44,"x_max":968,"o":"m 968 783 l 829 0 l 521 0 l 542 118 q 429 28 496 63 q 281 -6 363 -6 q 106 60 167 -6 q 44 242 44 126 q 53 329 44 283 l 133 783 l 440 783 l 367 368 q 364 338 364 346 q 388 271 364 294 q 456 247 413 247 q 540 279 506 247 q 586 367 575 311 l 660 783 l 968 783 m 240 850 q 352 1037 286 979 q 507 1094 418 1094 q 567 1085 540 1094 q 625 1057 593 1075 q 665 1037 651 1043 q 696 1031 679 1031 q 768 1096 747 1031 l 919 1096 q 809 910 875 967 q 654 853 743 853 q 594 863 621 853 q 536 890 568 872 q 494 910 508 904 q 464 915 481 915 q 390 850 414 915 l 240 850 z "},"Ū":{"ha":999,"x_min":61,"x_max":1039,"o":"m 475 983 l 378 429 q 374 383 374 407 q 399 309 374 336 q 478 282 424 282 q 583 322 544 282 q 635 429 622 361 l 732 983 l 1039 983 l 942 429 q 842 186 917 285 q 660 39 768 88 q 424 -10 553 -10 q 160 77 258 -10 q 61 325 61 164 q 71 429 61 376 l 168 983 l 475 983 m 956 1272 l 919 1068 l 321 1068 l 357 1272 l 956 1272 z "},"ū":{"ha":968,"x_min":44,"x_max":968,"o":"m 968 783 l 829 0 l 521 0 l 542 118 q 429 28 496 63 q 281 -6 363 -6 q 106 60 167 -6 q 44 242 44 126 q 53 329 44 283 l 133 783 l 440 783 l 367 368 q 364 338 364 346 q 388 271 364 294 q 456 247 413 247 q 540 279 506 247 q 586 367 575 311 l 660 783 l 968 783 m 904 1068 l 868 864 l 269 864 l 306 1068 l 904 1068 z "},"Ŭ":{"ha":999,"x_min":61,"x_max":1039,"o":"m 475 983 l 378 429 q 374 383 374 407 q 399 309 374 336 q 478 282 424 282 q 583 322 544 282 q 635 429 622 361 l 732 983 l 1039 983 l 942 429 q 842 186 917 285 q 660 39 768 88 q 424 -10 553 -10 q 160 77 258 -10 q 61 325 61 164 q 71 429 61 376 l 168 983 l 475 983 m 925 1319 q 815 1110 901 1182 q 614 1038 729 1038 q 456 1091 515 1038 q 396 1249 396 1144 q 403 1319 396 1278 l 407 1343 l 550 1343 q 547 1321 547 1329 q 572 1273 547 1289 q 653 1257 596 1257 q 748 1278 718 1257 q 786 1343 778 1300 l 929 1343 l 925 1319 z "},"ŭ":{"ha":968,"x_min":44,"x_max":968,"o":"m 968 783 l 829 0 l 521 0 l 542 118 q 429 28 496 63 q 281 -6 363 -6 q 106 60 167 -6 q 44 242 44 126 q 53 329 44 283 l 133 783 l 440 783 l 367 368 q 364 338 364 346 q 388 271 364 294 q 456 247 413 247 q 540 279 506 247 q 586 367 575 311 l 660 783 l 968 783 m 874 1115 q 764 906 850 978 q 563 833 678 833 q 404 887 464 833 q 344 1044 344 940 q 351 1115 344 1074 l 356 1139 l 499 1139 q 496 1117 496 1125 q 520 1069 496 1085 q 601 1053 544 1053 q 697 1074 667 1053 q 735 1139 726 1096 l 878 1139 l 874 1115 z "},"Ů":{"ha":999,"x_min":61,"x_max":1039,"o":"m 475 983 l 378 429 q 374 383 374 407 q 399 309 374 336 q 478 282 424 282 q 583 322 544 282 q 635 429 622 361 l 732 983 l 1039 983 l 942 429 q 842 186 917 285 q 660 39 768 88 q 424 -10 553 -10 q 160 77 258 -10 q 61 325 61 164 q 71 429 61 376 l 168 983 l 475 983 m 461 1211 q 538 1344 476 1294 q 676 1394 599 1394 q 788 1356 744 1394 q 832 1250 832 1317 q 801 1133 832 1183 q 720 1055 771 1082 q 613 1028 669 1028 q 501 1067 543 1028 q 458 1174 458 1106 q 461 1211 458 1199 m 710 1225 q 694 1263 710 1249 q 656 1276 679 1276 q 601 1255 624 1276 q 579 1199 579 1233 q 594 1160 579 1175 q 633 1146 610 1146 q 687 1169 664 1146 q 710 1225 710 1192 z "},"ů":{"ha":968,"x_min":44,"x_max":968,"o":"m 968 783 l 829 0 l 521 0 l 542 118 q 429 28 496 63 q 281 -6 363 -6 q 106 60 167 -6 q 44 242 44 126 q 53 329 44 283 l 133 783 l 440 783 l 367 368 q 364 338 364 346 q 388 271 364 294 q 456 247 413 247 q 540 279 506 247 q 586 367 575 311 l 660 783 l 968 783 m 410 1007 q 486 1140 425 1090 q 625 1190 547 1190 q 737 1151 693 1190 q 781 1046 781 1113 q 750 928 781 979 q 669 851 719 878 q 561 824 618 824 q 449 863 492 824 q 407 969 407 901 q 410 1007 407 994 m 658 1021 q 643 1058 658 1044 q 604 1072 628 1072 q 550 1051 572 1072 q 528 994 528 1029 q 543 956 528 971 q 582 942 558 942 q 635 965 613 942 q 658 1021 658 988 z "},"Ű":{"ha":999,"x_min":61,"x_max":1092,"o":"m 475 983 l 378 429 q 374 383 374 407 q 399 309 374 336 q 478 282 424 282 q 583 322 544 282 q 635 429 622 361 l 732 983 l 1039 983 l 942 429 q 842 186 917 285 q 660 39 768 88 q 424 -10 553 -10 q 160 77 258 -10 q 61 325 61 164 q 71 429 61 376 l 168 983 l 475 983 m 532 1039 l 347 1039 l 518 1378 l 751 1378 l 532 1039 m 838 1039 l 653 1039 l 858 1378 l 1092 1378 l 838 1039 z "},"ű":{"ha":968,"x_min":44,"x_max":1040,"o":"m 968 783 l 829 0 l 521 0 l 542 118 q 429 28 496 63 q 281 -6 363 -6 q 106 60 167 -6 q 44 242 44 126 q 53 329 44 283 l 133 783 l 440 783 l 367 368 q 364 338 364 346 q 388 271 364 294 q 456 247 413 247 q 540 279 506 247 q 586 367 575 311 l 660 783 l 968 783 m 481 835 l 296 835 l 467 1174 l 700 1174 l 481 835 m 786 835 l 601 835 l 807 1174 l 1040 1174 l 786 835 z "},"Ų":{"ha":999,"x_min":61,"x_max":1039,"o":"m 1039 983 l 942 429 q 808 144 911 251 q 556 4 706 36 l 492 -25 q 401 -74 429 -53 q 369 -115 374 -94 q 378 -136 367 -128 q 411 -144 389 -144 q 533 -122 463 -144 l 506 -283 q 344 -306 428 -306 q 199 -269 250 -306 q 147 -169 147 -233 q 150 -139 147 -158 q 184 -57 158 -94 q 263 17 210 -19 q 115 130 168 51 q 61 325 61 208 q 71 429 61 376 l 168 983 l 475 983 l 378 429 q 374 383 374 407 q 399 309 374 336 q 478 282 424 282 q 583 322 544 282 q 635 429 622 361 l 732 983 l 1039 983 z "},"ų":{"ha":968,"x_min":44,"x_max":968,"o":"m 829 0 l 828 0 l 829 -4 l 765 -33 q 675 -82 703 -61 q 643 -124 647 -103 q 651 -144 640 -136 q 685 -153 663 -153 q 807 -131 736 -153 l 779 -292 q 618 -314 701 -314 q 472 -278 524 -314 q 421 -178 421 -242 q 424 -147 421 -167 q 455 -69 432 -106 q 525 0 478 -33 l 521 0 l 542 118 q 429 28 496 63 q 281 -6 363 -6 q 106 60 167 -6 q 44 242 44 126 q 53 329 44 283 l 133 783 l 440 783 l 367 368 q 364 338 364 346 q 388 271 364 294 q 456 247 413 247 q 540 279 506 247 q 586 367 575 311 l 660 783 l 968 783 l 829 0 z "},"Ŵ":{"ha":1528,"x_min":146,"x_max":1590,"o":"m 1590 983 l 1192 0 l 808 0 l 793 558 l 581 0 l 197 0 l 146 983 l 478 983 l 458 364 l 700 983 l 1036 983 l 1060 364 l 1258 983 l 1590 983 m 863 1144 l 611 1022 l 646 1222 l 897 1340 l 1106 1222 l 1071 1022 l 863 1144 z "},"ŵ":{"ha":1254,"x_min":68,"x_max":1328,"o":"m 1328 783 l 1003 0 l 656 0 l 639 442 l 461 0 l 114 0 l 68 783 l 374 783 l 356 307 l 540 783 l 869 783 l 892 301 l 1043 783 l 1328 783 m 726 944 l 475 822 l 510 1022 l 761 1140 l 969 1022 l 935 822 l 726 944 z "},"Ŷ":{"ha":1014,"x_min":104,"x_max":1118,"o":"m 1118 983 l 644 299 l 592 0 l 283 0 l 336 299 l 104 983 l 457 983 l 553 635 l 771 983 l 1118 983 m 642 1149 l 390 1026 l 425 1226 l 676 1344 l 885 1226 l 850 1026 l 642 1149 z "},"ŷ":{"ha":940,"x_min":-19,"x_max":1024,"o":"m 399 783 l 475 386 l 683 783 l 1024 783 l 318 -375 l -19 -375 l 250 39 l 56 783 l 399 783 m 568 944 l 317 822 l 351 1022 l 603 1140 l 811 1022 l 776 822 l 568 944 z "},"Ÿ":{"ha":1014,"x_min":104,"x_max":1118,"o":"m 1118 983 l 644 299 l 592 0 l 283 0 l 336 299 l 104 983 l 457 983 l 553 635 l 771 983 l 1118 983 m 469 1065 q 398 1092 426 1065 q 369 1161 369 1119 q 412 1263 369 1221 q 511 1304 454 1304 q 585 1277 557 1304 q 613 1206 613 1250 q 570 1106 613 1147 q 469 1065 528 1065 m 782 1065 q 710 1092 739 1065 q 682 1161 682 1119 q 724 1263 682 1221 q 824 1304 767 1304 q 897 1277 869 1304 q 925 1206 925 1250 q 883 1106 925 1147 q 782 1065 840 1065 z "},"Ź":{"ha":875,"x_min":0,"x_max":910,"o":"m 385 246 l 779 246 l 736 0 l 0 0 l 42 232 l 519 739 l 131 739 l 174 983 l 910 983 l 869 751 l 385 246 m 753 1171 l 369 1040 l 407 1246 l 793 1399 l 753 1171 z "},"ź":{"ha":719,"x_min":-42,"x_max":747,"o":"m 342 256 l 668 256 l 622 0 l -42 0 l 1 242 l 350 528 l 56 528 l 101 783 l 747 783 l 704 542 l 342 256 m 649 967 l 265 836 l 303 1042 l 689 1194 l 649 967 z "},"Ż":{"ha":875,"x_min":0,"x_max":910,"o":"m 385 246 l 779 246 l 736 0 l 0 0 l 42 232 l 519 739 l 131 739 l 174 983 l 910 983 l 869 751 l 385 246 m 554 1065 q 483 1092 511 1065 q 454 1161 454 1119 q 497 1263 454 1221 q 596 1304 539 1304 q 669 1277 642 1304 q 697 1206 697 1250 q 655 1106 697 1147 q 554 1065 613 1065 z "},"ż":{"ha":719,"x_min":-42,"x_max":747,"o":"m 342 256 l 668 256 l 622 0 l -42 0 l 1 242 l 350 528 l 56 528 l 101 783 l 747 783 l 704 542 l 342 256 m 450 861 q 378 888 407 861 q 350 957 350 915 q 392 1058 350 1017 q 492 1100 435 1100 q 565 1073 538 1100 q 593 1001 593 1046 q 551 902 593 943 q 450 861 508 861 z "},"Ž":{"ha":875,"x_min":0,"x_max":910,"o":"m 385 246 l 779 246 l 736 0 l 0 0 l 42 232 l 519 739 l 131 739 l 174 983 l 910 983 l 869 751 l 385 246 m 800 1144 l 550 1026 l 340 1144 l 375 1344 l 585 1222 l 835 1344 l 800 1144 z "},"ž":{"ha":719,"x_min":-42,"x_max":747,"o":"m 342 256 l 668 256 l 622 0 l -42 0 l 1 242 l 350 528 l 56 528 l 101 783 l 747 783 l 704 542 l 342 256 m 696 940 l 446 822 l 236 940 l 271 1140 l 481 1018 l 731 1140 l 696 940 z "},"Ə":{"ha":1094,"x_min":60,"x_max":1072,"o":"m 647 1010 q 870 957 774 1010 q 1019 813 967 904 q 1072 606 1072 721 q 995 293 1072 435 q 781 69 918 151 q 472 -12 643 -12 q 256 41 350 -12 q 111 188 163 94 q 60 396 60 281 q 88 568 60 490 l 760 568 q 761 594 761 578 q 721 697 761 660 q 611 735 681 735 q 508 709 556 735 q 439 639 460 683 l 115 639 q 231 834 153 750 q 417 964 310 918 q 647 1010 525 1010 m 517 272 q 647 308 586 272 q 729 408 707 344 l 371 408 q 406 309 365 346 q 517 272 447 272 z "},"ƒ":{"ha":472,"x_min":-242,"x_max":650,"o":"m 578 839 q 517 828 539 839 q 488 790 496 818 l 486 783 l 572 783 l 500 526 l 413 526 l 226 -136 q 71 -365 181 -300 q -196 -431 -39 -431 l -242 -431 l -171 -167 l -118 -167 q -96 -158 -106 -167 q -82 -136 -86 -150 l 106 526 l 49 526 l 121 783 l 179 783 l 181 790 q 340 1026 226 951 q 650 1101 454 1101 l 578 839 z "},"Ǽ":{"ha":1369,"x_min":-69,"x_max":1426,"o":"m 1050 739 l 1029 621 l 1321 621 l 1281 389 l 989 389 l 963 246 l 1296 246 l 1253 0 l 611 0 l 635 135 l 351 135 l 265 0 l -69 0 l 575 983 l 1426 983 l 1383 739 l 1050 739 m 676 367 l 743 746 l 500 367 l 676 367 m 943 1167 l 560 1036 l 597 1242 l 983 1394 l 943 1167 z "},"ǽ":{"ha":1464,"x_min":18,"x_max":1447,"o":"m 1176 793 q 1374 715 1301 793 q 1447 499 1447 638 q 1438 399 1447 463 q 1419 338 1429 361 l 876 338 q 898 256 874 279 q 968 232 922 232 q 1074 282 1042 232 l 1400 282 q 1253 72 1351 154 q 1035 -10 1154 -10 q 899 21 951 -10 q 825 107 846 51 l 806 0 l 499 0 l 518 107 q 418 22 479 53 q 281 -10 357 -10 q 90 69 163 -10 q 18 289 18 149 q 28 392 18 342 q 108 606 50 515 q 249 745 167 697 q 422 793 331 793 q 549 762 499 793 q 618 676 599 731 l 638 783 l 944 783 l 925 676 q 1028 763 963 732 q 1176 793 1093 793 m 1136 464 q 1138 481 1138 469 q 1108 533 1138 515 q 1033 551 1079 551 q 900 464 933 551 l 1136 464 m 568 392 q 571 425 571 404 q 546 498 571 472 q 478 524 521 524 q 390 489 428 524 q 340 392 351 454 q 338 358 338 379 q 363 285 338 311 q 431 260 388 260 q 519 294 481 260 q 568 392 557 329 m 1014 967 l 631 836 l 668 1042 l 1054 1194 l 1014 967 z "},"Ș":{"ha":951,"x_min":26,"x_max":874,"o":"m 422 -10 q 134 63 242 -10 q 26 274 26 135 q 29 315 26 288 l 357 315 q 370 251 353 272 q 428 231 388 231 q 469 243 453 231 q 486 279 486 256 q 453 335 486 313 q 349 388 421 357 q 219 451 269 421 q 131 535 168 482 q 93 667 93 588 q 145 847 93 771 q 290 961 197 922 q 503 1000 383 1000 q 694 967 610 1000 q 826 870 778 933 q 874 721 874 807 q 871 682 874 710 l 539 682 q 542 704 542 699 q 526 745 542 731 q 485 760 511 760 q 446 746 461 760 q 431 710 431 732 q 463 656 431 679 q 564 600 494 633 q 695 529 643 563 q 785 441 747 496 q 822 307 822 386 q 774 144 822 217 q 636 31 726 72 q 422 -10 546 -10 m 504 -49 q 515 -150 515 -104 q 507 -236 515 -194 q 417 -412 488 -343 q 235 -481 347 -481 l 254 -372 q 349 -268 331 -372 l 351 -253 l 251 -253 l 288 -49 l 504 -49 z "},"ș":{"ha":804,"x_min":6,"x_max":747,"o":"m 358 -10 q 176 21 256 -10 q 51 106 96 51 q 6 232 6 161 q 8 271 6 258 l 304 271 q 324 219 303 236 q 383 203 346 203 q 424 214 407 203 q 442 240 442 225 q 414 276 442 263 q 322 306 386 289 q 188 351 242 328 q 95 422 135 375 q 56 543 56 468 q 98 670 56 613 q 217 760 140 728 q 396 793 294 793 q 587 756 507 793 q 707 654 667 718 q 744 513 747 590 l 471 513 q 451 562 471 544 q 394 579 432 579 q 355 569 371 579 q 339 543 339 560 q 367 509 339 522 q 461 475 394 496 q 597 428 543 451 q 690 360 650 406 q 731 246 731 315 q 627 58 731 125 q 358 -10 524 -10 m 428 -49 q 438 -144 438 -96 q 429 -236 438 -193 q 340 -412 410 -343 q 158 -481 271 -481 l 178 -372 q 272 -268 254 -372 l 275 -253 l 175 -253 l 211 -49 l 428 -49 z "},"Ț":{"ha":856,"x_min":75,"x_max":946,"o":"m 946 983 l 903 739 l 642 739 l 511 0 l 203 0 l 333 739 l 75 739 l 118 983 l 946 983 m 457 -49 q 467 -144 467 -96 q 458 -236 467 -193 q 369 -412 439 -343 q 188 -481 300 -481 l 207 -372 q 301 -268 283 -372 l 304 -253 l 204 -253 l 240 -49 l 457 -49 z "},"ț":{"ha":606,"x_min":44,"x_max":624,"o":"m 413 315 q 411 301 411 310 q 461 263 411 263 l 535 263 l 488 0 l 371 0 q 97 232 97 0 q 106 321 97 274 l 142 526 l 44 526 l 90 783 l 188 783 l 221 972 l 529 972 l 496 783 l 624 783 l 578 526 l 450 526 l 413 315 m 343 -49 q 354 -150 354 -104 q 346 -236 354 -194 q 256 -412 326 -343 q 74 -481 186 -481 l 93 -372 q 188 -268 169 -372 l 190 -253 l 90 -253 l 126 -49 l 343 -49 z "},"ə":{"ha":856,"x_min":18,"x_max":836,"o":"m 499 793 q 745 710 654 793 q 836 481 836 628 q 828 392 836 438 q 739 178 806 269 q 573 39 672 88 q 357 -10 474 -10 q 110 73 201 -10 q 18 299 18 156 q 26 385 18 339 q 42 446 36 431 l 536 446 q 538 469 538 454 q 471 547 538 547 q 390 501 419 547 l 64 501 q 160 651 94 585 q 313 755 225 717 q 499 793 401 793 m 400 232 q 513 319 483 232 l 328 319 q 326 299 326 313 q 347 249 326 265 q 400 232 368 232 z "},"ʼ":{"ha":525,"x_min":121,"x_max":560,"o":"m 254 983 l 560 983 l 324 574 l 121 574 l 254 983 z "},"ˆ":{"ha":488,"x_min":90,"x_max":585,"o":"m 342 944 l 90 822 l 125 1022 l 376 1140 l 585 1022 l 550 822 l 342 944 z "},"ˇ":{"ha":488,"x_min":111,"x_max":606,"o":"m 571 940 l 321 822 l 111 940 l 146 1140 l 356 1018 l 606 1140 l 571 940 z "},"ˉ":{"ha":626,"x_min":97,"x_max":732,"o":"m 732 1068 l 696 864 l 97 864 l 133 1068 l 732 1068 z "},"˘":{"ha":549,"x_min":135,"x_max":668,"o":"m 664 1115 q 554 906 640 978 q 353 833 468 833 q 194 887 254 833 q 135 1044 135 940 q 142 1115 135 1074 l 146 1139 l 289 1139 q 286 1117 286 1125 q 310 1069 286 1085 q 392 1053 335 1053 q 487 1074 457 1053 q 525 1139 517 1096 l 668 1139 l 664 1115 z "},"˙":{"ha":267,"x_min":115,"x_max":358,"o":"m 215 861 q 144 888 172 861 q 115 957 115 915 q 158 1058 115 1017 q 257 1100 200 1100 q 331 1073 303 1100 q 358 1001 358 1046 q 316 902 358 943 q 215 861 274 861 z "},"˚":{"ha":393,"x_min":119,"x_max":493,"o":"m 122 1007 q 199 1140 138 1090 q 338 1190 260 1190 q 449 1151 406 1190 q 493 1046 493 1113 q 463 928 493 979 q 381 851 432 878 q 274 824 331 824 q 162 863 204 824 q 119 969 119 901 q 122 1007 119 994 m 371 1021 q 356 1058 371 1044 q 317 1072 340 1072 q 263 1051 285 1072 q 240 994 240 1029 q 256 956 240 971 q 294 942 271 942 q 348 965 325 942 q 371 1021 371 988 z "},"˛":{"ha":419,"x_min":-72,"x_max":336,"o":"m 336 0 l 272 -29 q 182 -78 210 -57 q 150 -119 154 -99 q 158 -140 147 -132 q 192 -149 169 -149 q 314 -126 243 -149 l 286 -287 q 125 -310 208 -310 q -21 -274 31 -310 q -72 -174 -72 -237 q -69 -143 -72 -162 q 13 -11 -56 -69 q 246 110 81 47 l 301 131 l 336 0 z "},"˜":{"ha":636,"x_min":81,"x_max":760,"o":"m 81 850 q 192 1037 126 979 q 347 1094 258 1094 q 407 1085 381 1094 q 465 1057 433 1075 q 506 1037 492 1043 q 536 1031 519 1031 q 608 1096 588 1031 l 760 1096 q 649 910 715 967 q 494 853 583 853 q 435 863 461 853 q 376 890 408 872 q 335 910 349 904 q 304 915 321 915 q 231 850 254 915 l 81 850 z "},"˝":{"ha":713,"x_min":92,"x_max":836,"o":"m 276 835 l 92 835 l 263 1174 l 496 1174 l 276 835 m 582 835 l 397 835 l 603 1174 l 836 1174 l 582 835 z "},"π":{"ha":983,"x_min":35,"x_max":1046,"o":"m 1046 783 l 1004 553 l 914 553 l 817 0 l 508 0 l 606 553 l 440 553 l 343 0 l 35 0 l 132 553 l 42 553 l 83 783 l 1046 783 z "},"Ẁ":{"ha":1528,"x_min":146,"x_max":1590,"o":"m 1590 983 l 1192 0 l 808 0 l 793 558 l 581 0 l 197 0 l 146 983 l 478 983 l 458 364 l 700 983 l 1036 983 l 1060 364 l 1258 983 l 1590 983 m 1060 1242 l 1022 1036 l 686 1167 l 726 1394 l 1060 1242 z "},"ẁ":{"ha":1254,"x_min":68,"x_max":1328,"o":"m 1328 783 l 1003 0 l 656 0 l 639 442 l 461 0 l 114 0 l 68 783 l 374 783 l 356 307 l 540 783 l 869 783 l 892 301 l 1043 783 l 1328 783 m 924 1042 l 886 836 l 550 967 l 590 1194 l 924 1042 z "},"Ẃ":{"ha":1528,"x_min":146,"x_max":1590,"o":"m 1590 983 l 1192 0 l 808 0 l 793 558 l 581 0 l 197 0 l 146 983 l 478 983 l 458 364 l 700 983 l 1036 983 l 1060 364 l 1258 983 l 1590 983 m 1046 1167 l 663 1036 l 700 1242 l 1086 1394 l 1046 1167 z "},"ẃ":{"ha":1254,"x_min":68,"x_max":1328,"o":"m 1328 783 l 1003 0 l 656 0 l 639 442 l 461 0 l 114 0 l 68 783 l 374 783 l 356 307 l 540 783 l 869 783 l 892 301 l 1043 783 l 1328 783 m 910 967 l 526 836 l 564 1042 l 950 1194 l 910 967 z "},"Ẅ":{"ha":1528,"x_min":146,"x_max":1590,"o":"m 1590 983 l 1192 0 l 808 0 l 793 558 l 581 0 l 197 0 l 146 983 l 478 983 l 458 364 l 700 983 l 1036 983 l 1060 364 l 1258 983 l 1590 983 m 690 1061 q 619 1088 647 1061 q 590 1157 590 1115 q 633 1258 590 1217 q 732 1300 675 1300 q 806 1273 778 1300 q 833 1201 833 1246 q 791 1102 833 1143 q 690 1061 749 1061 m 1003 1061 q 931 1088 960 1061 q 903 1157 903 1115 q 945 1258 903 1217 q 1044 1300 988 1300 q 1118 1273 1090 1300 q 1146 1201 1146 1246 q 1103 1102 1146 1143 q 1003 1061 1061 1061 z "},"ẅ":{"ha":1254,"x_min":68,"x_max":1328,"o":"m 1328 783 l 1003 0 l 656 0 l 639 442 l 461 0 l 114 0 l 68 783 l 374 783 l 356 307 l 540 783 l 869 783 l 892 301 l 1043 783 l 1328 783 m 554 861 q 483 888 511 861 q 454 957 454 915 q 497 1058 454 1017 q 596 1100 539 1100 q 669 1073 642 1100 q 697 1001 697 1046 q 655 902 697 943 q 554 861 613 861 m 867 861 q 795 888 824 861 q 767 957 767 915 q 809 1058 767 1017 q 908 1100 851 1100 q 982 1073 954 1100 q 1010 1001 1010 1046 q 967 902 1010 943 q 867 861 925 861 z "},"Ẽ":{"ha":772,"x_min":0,"x_max":863,"o":"m 439 739 l 418 617 l 724 617 l 682 385 l 376 385 l 351 246 l 699 246 l 656 0 l 0 0 l 174 983 l 829 983 l 786 739 l 439 739 m 183 1054 q 295 1241 229 1183 q 450 1299 361 1299 q 510 1289 483 1299 q 568 1261 536 1279 q 608 1241 594 1247 q 639 1235 622 1235 q 711 1300 690 1235 l 863 1300 q 752 1114 818 1171 q 597 1057 686 1057 q 538 1067 564 1057 q 479 1094 511 1076 q 438 1114 451 1108 q 407 1119 424 1119 q 333 1054 357 1119 l 183 1054 z "},"ẽ":{"ha":856,"x_min":19,"x_max":882,"o":"m 499 793 q 746 710 654 793 q 838 485 838 628 q 829 399 838 444 q 814 338 819 353 l 319 338 q 318 314 318 329 q 385 236 318 236 q 465 282 436 236 l 792 282 q 696 133 761 199 q 542 28 631 67 q 357 -10 454 -10 q 110 73 201 -10 q 19 303 19 156 q 28 392 19 346 q 117 605 50 514 q 283 744 183 696 q 499 793 382 793 m 528 464 q 529 485 529 471 q 508 535 529 518 q 456 551 488 551 q 343 464 372 551 l 528 464 m 203 850 q 315 1037 249 979 q 469 1094 381 1094 q 529 1085 503 1094 q 588 1057 556 1075 q 628 1037 614 1043 q 658 1031 642 1031 q 731 1096 710 1031 l 882 1096 q 772 910 838 967 q 617 853 706 853 q 557 863 583 853 q 499 890 531 872 q 457 910 471 904 q 426 915 443 915 q 353 850 376 915 l 203 850 z "},"Ỳ":{"ha":1014,"x_min":104,"x_max":1118,"o":"m 1118 983 l 644 299 l 592 0 l 283 0 l 336 299 l 104 983 l 457 983 l 553 635 l 771 983 l 1118 983 m 838 1246 l 800 1040 l 464 1171 l 504 1399 l 838 1246 z "},"ỳ":{"ha":940,"x_min":-19,"x_max":1024,"o":"m 399 783 l 475 386 l 683 783 l 1024 783 l 318 -375 l -19 -375 l 250 39 l 56 783 l 399 783 m 764 1042 l 726 836 l 390 967 l 431 1194 l 764 1042 z "},"Ỹ":{"ha":1014,"x_min":104,"x_max":1118,"o":"m 1118 983 l 644 299 l 592 0 l 283 0 l 336 299 l 104 983 l 457 983 l 553 635 l 771 983 l 1118 983 m 300 1054 q 412 1241 346 1183 q 567 1299 478 1299 q 626 1289 600 1299 q 685 1261 653 1279 q 725 1241 711 1247 q 756 1235 739 1235 q 828 1300 807 1235 l 979 1300 q 869 1114 935 1171 q 714 1057 803 1057 q 654 1067 681 1057 q 596 1094 628 1076 q 554 1114 568 1108 q 524 1119 540 1119 q 450 1054 474 1119 l 300 1054 z "},"ỹ":{"ha":940,"x_min":-19,"x_max":1024,"o":"m 399 783 l 475 386 l 683 783 l 1024 783 l 318 -375 l -19 -375 l 250 39 l 56 783 l 399 783 m 226 850 q 338 1037 272 979 q 493 1094 404 1094 q 553 1085 526 1094 q 611 1057 579 1075 q 651 1037 638 1043 q 682 1031 665 1031 q 754 1096 733 1031 l 906 1096 q 795 910 861 967 q 640 853 729 853 q 581 863 607 853 q 522 890 554 872 q 481 910 494 904 q 450 915 467 915 q 376 850 400 915 l 226 850 z "},"–":{"ha":949,"x_min":68,"x_max":910,"o":"m 910 601 l 864 347 l 68 347 l 114 601 l 910 601 z "},"—":{"ha":1300,"x_min":68,"x_max":1261,"o":"m 1261 601 l 1215 347 l 68 347 l 114 601 l 1261 601 z "},"‘":{"ha":525,"x_min":101,"x_max":540,"o":"m 407 574 l 101 574 l 338 983 l 540 983 l 407 574 z "},"’":{"ha":525,"x_min":121,"x_max":560,"o":"m 254 983 l 560 983 l 324 574 l 121 574 l 254 983 z "},"‚":{"ha":503,"x_min":-15,"x_max":424,"o":"m 118 261 l 424 261 l 188 -149 l -15 -149 l 118 261 z "},"“":{"ha":917,"x_min":101,"x_max":932,"o":"m 407 574 l 101 574 l 338 983 l 540 983 l 407 574 m 799 574 l 493 574 l 729 983 l 932 983 l 799 574 z "},"”":{"ha":917,"x_min":121,"x_max":951,"o":"m 254 983 l 560 983 l 324 574 l 121 574 l 254 983 m 646 983 l 951 983 l 715 574 l 513 574 l 646 983 z "},"„":{"ha":876,"x_min":-15,"x_max":796,"o":"m 118 261 l 424 261 l 188 -149 l -15 -149 l 118 261 m 490 261 l 796 261 l 560 -149 l 357 -149 l 490 261 z "},"†":{"ha":996,"x_min":99,"x_max":994,"o":"m 953 553 l 653 574 l 517 -375 l 208 -375 l 404 574 l 99 553 l 140 783 l 438 763 l 468 1103 l 776 1103 l 686 763 l 994 783 l 953 553 z "},"‡":{"ha":994,"x_min":-10,"x_max":994,"o":"m 653 574 l 579 154 l 888 176 l 846 -56 l 546 -35 l 515 -375 l 207 -375 l 297 -35 l -10 -56 l 32 176 l 331 154 l 404 574 l 97 553 l 139 783 l 438 763 l 467 1103 l 775 1103 l 686 763 l 994 783 l 953 553 l 653 574 z "},"•":{"ha":744,"x_min":147,"x_max":622,"o":"m 344 231 q 202 284 257 231 q 147 419 147 338 q 151 463 147 442 q 203 581 163 528 q 303 666 244 635 q 426 697 363 697 q 568 644 514 697 q 622 507 622 590 q 618 463 622 486 q 567 345 607 399 q 468 261 526 292 q 344 231 410 231 z "},"…":{"ha":1207,"x_min":-3,"x_max":1121,"o":"m 533 -11 q 420 24 461 -11 q 379 114 379 58 q 406 204 379 163 q 481 270 433 246 q 588 294 529 294 q 699 259 658 294 q 739 168 739 224 q 713 78 739 119 q 639 13 686 38 q 533 -11 592 -11 m 915 -11 q 802 24 843 -11 q 761 114 761 58 q 788 204 761 163 q 863 270 815 246 q 969 294 911 294 q 1081 259 1040 294 q 1121 168 1121 224 q 1094 78 1121 119 q 1021 13 1068 38 q 915 -11 974 -11 m 151 -11 q 38 24 79 -11 q -3 114 -3 58 q 24 204 -3 163 q 99 270 51 246 q 206 294 147 294 q 317 259 276 294 q 357 168 357 224 q 331 78 357 119 q 257 13 304 38 q 151 -11 210 -11 z "},"‰":{"ha":1783,"x_min":85,"x_max":1733,"o":"m 90 750 q 193 937 113 872 q 386 1001 274 1001 q 539 953 482 1001 q 596 811 596 904 q 590 750 596 779 q 490 564 569 628 q 299 500 410 500 q 143 549 201 500 q 85 692 85 597 q 90 750 85 722 m 1135 988 l 442 0 l 147 0 l 840 988 l 1135 988 m 353 822 q 292 750 306 822 q 289 724 289 731 q 326 679 289 679 q 368 697 351 679 q 390 750 385 715 q 393 776 393 769 q 353 822 393 822 m 690 238 q 793 424 713 360 q 985 489 874 489 q 1138 440 1082 489 q 1194 299 1194 392 q 1189 238 1194 267 q 1089 51 1168 115 q 897 -14 1010 -14 q 743 35 801 -14 q 685 179 685 85 q 690 238 685 210 m 1228 238 q 1331 424 1250 360 q 1524 489 1411 489 q 1676 440 1619 489 q 1733 299 1733 392 q 1728 238 1733 267 q 1627 51 1707 115 q 1436 -14 1547 -14 q 1281 35 1339 -14 q 1222 179 1222 85 q 1228 238 1222 210 m 953 310 q 913 291 929 310 q 890 238 896 272 q 888 211 888 218 q 926 165 888 165 q 967 183 950 165 q 989 238 983 201 q 992 263 992 257 q 953 310 992 310 m 1490 310 q 1451 291 1467 310 q 1429 238 1435 272 q 1426 211 1426 218 q 1464 165 1426 165 q 1506 183 1489 165 q 1528 238 1522 201 q 1531 263 1531 254 q 1490 310 1531 310 z "},"‹":{"ha":518,"x_min":65,"x_max":494,"o":"m 129 167 l 65 410 l 215 653 l 494 653 l 342 410 l 408 167 l 129 167 z "},"›":{"ha":518,"x_min":29,"x_max":458,"o":"m 183 410 l 115 653 l 396 653 l 458 410 l 310 167 l 29 167 l 183 410 z "},"⁄":{"ha":771,"x_min":-107,"x_max":881,"o":"m 881 988 l 188 0 l -107 0 l 586 988 l 881 988 z "},"€":{"ha":1097,"x_min":11,"x_max":1094,"o":"m 768 606 q 718 681 754 654 q 629 708 682 708 q 500 654 554 708 l 672 654 l 649 515 l 428 515 l 424 493 l 421 476 l 642 476 l 617 339 l 439 339 q 554 278 476 278 q 653 305 607 278 q 729 381 699 332 l 1054 381 q 933 176 1013 264 q 745 41 854 89 q 508 -7 636 -7 q 222 86 328 -7 q 103 339 115 179 l 11 339 l 36 476 l 108 476 l 111 493 l 115 515 l 43 515 l 67 654 l 160 654 q 367 902 229 811 q 685 993 506 993 q 905 945 813 993 q 1046 810 997 897 q 1093 606 1094 722 l 768 606 z "},"₺":{"ha":1138,"x_min":3,"x_max":1172,"o":"m 1172 668 q 1051 280 1129 426 q 842 65 972 133 q 513 -3 713 -3 q 97 43 347 -3 l 150 346 l 3 326 l 33 506 l 182 526 l 190 572 l 42 551 l 72 725 l 221 747 l 264 989 l 576 989 l 542 794 l 696 817 l 664 638 l 511 617 l 503 569 l 661 592 l 629 411 l 471 390 l 454 296 q 561 286 497 286 q 731 340 671 286 q 814 467 790 393 q 860 668 838 542 l 1172 668 z "},"₽":{"ha":985,"x_min":-40,"x_max":1013,"o":"m 688 983 q 929 916 846 983 q 1013 736 1013 849 q 1007 675 1013 703 q 871 451 982 536 q 579 367 760 367 l 457 367 l 446 310 l 606 310 l 565 81 l 406 81 l 392 0 l 83 0 l 97 81 l -40 81 l 0 310 l 138 310 l 149 367 l 10 367 l 50 600 l 189 600 l 257 983 l 688 983 m 694 676 q 696 690 696 681 q 678 735 696 717 q 628 753 661 753 l 525 753 l 499 600 l 600 600 q 663 621 639 600 q 694 676 688 642 z "},"ℓ":{"ha":447,"x_min":0,"x_max":490,"o":"m 490 1028 l 308 0 l 0 0 l 182 1028 l 490 1028 z "},"™":{"ha":1315,"x_min":115,"x_max":1378,"o":"m 599 983 l 568 807 l 449 807 l 393 497 l 179 497 l 235 807 l 115 807 l 146 983 l 599 983 m 1378 983 l 1292 497 l 1096 497 l 1133 731 l 997 497 l 854 497 l 806 746 l 761 497 l 575 497 l 661 983 l 954 983 l 985 765 l 1111 983 l 1378 983 z "},"Ω":{"ha":1099,"x_min":-24,"x_max":1089,"o":"m 1081 538 q 1025 365 1064 440 q 914 232 986 290 l 1026 232 l 985 0 l 614 0 l 657 239 q 722 367 699 310 q 758 493 746 424 q 764 558 764 525 q 724 676 764 636 q 607 715 685 715 q 455 659 514 715 q 376 493 396 603 q 367 399 367 444 q 390 239 367 333 l 347 0 l -24 0 l 18 232 l 129 232 q 61 429 61 310 q 72 538 61 478 q 181 787 97 682 q 390 946 265 892 q 657 1000 514 1000 q 881 957 783 1000 q 1034 830 979 914 q 1089 629 1089 746 q 1081 538 1089 586 z "},"℮":{"ha":1028,"x_min":43,"x_max":1024,"o":"m 913 185 q 456 -10 697 -10 q 239 34 332 -10 q 94 163 146 78 q 43 367 43 249 q 53 472 43 419 q 156 744 79 624 q 353 933 233 864 q 621 1001 472 1001 q 842 951 751 1001 q 978 814 932 900 q 1024 624 1024 728 q 1017 539 1024 575 l 1000 450 l 361 450 l 317 194 q 486 163 403 163 q 835 300 674 163 l 913 185 m 756 814 q 593 838 697 838 q 510 830 546 838 q 425 808 475 822 l 388 593 l 717 593 l 756 814 z "},"∂":{"ha":892,"x_min":29,"x_max":892,"o":"m 38 369 q 127 590 60 497 q 289 731 194 683 q 489 779 383 779 q 625 732 585 779 q 569 826 613 796 q 432 857 525 857 q 358 853 397 857 l 383 1001 q 575 1028 489 1028 q 812 941 732 1028 q 892 694 892 854 q 879 557 892 631 q 690 141 832 290 q 333 -8 547 -8 q 114 65 199 -8 q 29 281 29 139 q 38 369 29 322 m 532 432 q 535 457 535 451 q 518 507 535 490 q 476 524 501 524 q 350 371 378 524 q 347 335 347 357 q 364 277 347 296 q 408 258 381 258 q 487 303 457 258 q 532 432 517 347 z "},"∆":{"ha":1069,"x_min":-42,"x_max":1014,"o":"m 765 988 l 1014 233 l 972 0 l -42 0 l 0 233 l 517 988 l 765 988 m 318 233 l 696 233 l 579 639 l 318 233 z "},"∏":{"ha":1046,"x_min":35,"x_max":1138,"o":"m 1138 988 l 1096 757 l 1006 757 l 872 0 l 564 0 l 697 757 l 476 757 l 343 0 l 35 0 l 168 757 l 78 757 l 119 988 l 1138 988 z "},"∑":{"ha":814,"x_min":-25,"x_max":864,"o":"m 822 756 l 446 756 l 694 604 l 654 372 l 314 171 l 719 171 l 678 -62 l -25 -62 l 39 297 l 374 481 l 97 629 l 161 988 l 864 988 l 822 756 z "},"−":{"ha":703,"x_min":19,"x_max":713,"o":"m 713 601 l 667 347 l 19 347 l 65 601 l 713 601 z "},"∕":{"ha":554,"x_min":-168,"x_max":779,"o":"m 779 1326 l 128 -275 l -168 -275 l 485 1326 l 779 1326 z "},"∙":{"ha":485,"x_min":18,"x_max":378,"o":"m 172 260 q 59 294 100 260 q 18 385 18 329 q 45 475 18 433 q 120 541 72 517 q 226 565 168 565 q 338 530 297 565 q 378 439 378 494 q 351 349 378 390 q 278 284 325 308 q 172 260 231 260 z "},"√":{"ha":1417,"x_min":31,"x_max":1538,"o":"m 1538 1288 l 536 -56 l 390 -56 l 233 354 l 92 279 l 31 418 l 476 656 l 617 288 l 1365 1288 l 1538 1288 z "},"∞":{"ha":1172,"x_min":56,"x_max":1150,"o":"m 910 743 q 1088 692 1026 743 q 1150 544 1150 640 q 1144 483 1150 511 q 1083 344 1131 404 q 969 253 1036 285 q 828 222 903 222 q 672 253 736 222 q 561 336 608 283 q 438 253 507 283 q 294 222 369 222 q 117 274 179 222 q 56 424 56 326 q 61 482 56 440 q 122 622 75 563 q 235 712 168 681 q 376 743 303 743 q 533 710 474 743 q 635 619 593 678 q 761 710 690 676 q 910 743 832 743 m 349 421 q 468 469 414 421 q 421 526 443 507 q 371 546 399 546 q 324 529 344 546 q 299 482 304 513 q 297 468 297 476 q 311 433 297 446 q 349 421 325 421 m 908 497 q 894 533 908 521 q 857 546 881 546 q 788 530 824 546 q 722 482 751 514 q 835 421 767 421 q 887 442 865 421 q 908 497 908 463 z "},"∫":{"ha":433,"x_min":-224,"x_max":671,"o":"m 232 1036 q 388 1265 278 1200 q 653 1331 497 1331 l 671 1331 l 600 1067 l 575 1067 q 553 1058 563 1067 q 539 1036 543 1050 l 215 -136 q 60 -365 169 -300 q -206 -431 -50 -431 l -224 -431 l -153 -167 l -129 -167 q -92 -136 -101 -167 l 232 1036 z "},"≈":{"ha":988,"x_min":3,"x_max":1000,"o":"m 3 97 q 167 375 65 286 q 394 464 268 464 q 483 449 444 464 q 568 408 522 435 q 626 380 604 389 q 671 371 647 371 q 731 392 708 371 q 769 467 753 414 l 1000 467 q 836 189 938 278 q 608 100 735 100 q 519 115 558 100 q 435 156 481 129 q 376 184 399 175 q 331 193 354 193 q 271 171 293 193 q 231 97 249 149 l 3 97 m 3 479 q 167 757 65 668 q 394 846 268 846 q 483 831 444 846 q 568 790 522 817 q 626 762 604 771 q 671 753 647 753 q 731 774 708 753 q 769 849 753 796 l 1000 849 q 836 571 938 660 q 608 482 735 482 q 519 497 558 482 q 435 538 481 511 q 376 566 399 557 q 331 575 354 575 q 271 553 293 575 q 231 479 249 531 l 3 479 z "},"≠":{"ha":869,"x_min":-40,"x_max":939,"o":"m 817 806 l 915 806 l 865 526 l 572 526 l 475 417 l 846 417 l 797 138 l 231 138 l 108 -1 l -40 -1 l 82 138 l -17 138 l 32 417 l 328 417 l 424 526 l 51 526 l 101 806 l 669 806 l 792 944 l 939 944 l 817 806 z "},"≤":{"ha":683,"x_min":-17,"x_max":722,"o":"m 429 521 l 635 271 l 257 271 l 50 521 l 344 772 l 722 772 l 429 521 m 25 154 l 614 154 l 572 -83 l -17 -83 l 25 154 z "},"≥":{"ha":683,"x_min":-56,"x_max":678,"o":"m 7 271 l 300 521 l 94 772 l 472 772 l 678 521 l 385 271 l 7 271 m -14 154 l 575 154 l 533 -83 l -56 -83 l -14 154 z "},"◊":{"ha":794,"x_min":32,"x_max":799,"o":"m 799 493 l 349 110 l 32 493 l 483 875 l 799 493 m 321 493 l 400 397 l 511 493 l 433 588 l 321 493 z "},"ﬁ":{"ha":989,"x_min":28,"x_max":1011,"o":"m 581 839 q 556 840 571 840 q 505 827 524 840 q 476 783 486 814 l 954 783 l 815 0 l 507 0 l 600 526 l 429 526 l 336 0 l 28 0 l 121 526 l 38 526 l 83 783 l 167 783 q 301 1020 197 936 q 568 1104 406 1104 q 626 1101 588 1104 l 581 839 m 858 1110 q 971 1076 931 1110 q 1011 989 1011 1043 q 1010 964 1011 972 q 943 858 999 899 q 807 818 888 818 q 693 850 733 818 q 653 938 653 882 q 710 1061 653 1013 q 858 1110 768 1110 z "},"ﬂ":{"ha":982,"x_min":28,"x_max":1025,"o":"m 600 839 q 567 842 575 842 q 509 828 531 842 q 476 783 488 814 l 590 783 l 544 526 l 429 526 l 336 0 l 28 0 l 121 526 l 38 526 l 83 783 l 167 783 q 304 1020 196 936 q 582 1104 413 1104 q 646 1101 601 1104 l 600 839 m 1025 1028 l 843 0 l 535 0 l 717 1028 l 1025 1028 z "}}}
